%TF.GenerationSoftware,KiCad,Pcbnew,5.99.0+really5.1.10+dfsg1-1*%
%TF.CreationDate,2021-11-14T15:35:52+01:00*%
%TF.ProjectId,GBPOCKET_DCDC,4742504f-434b-4455-945f-444344432e6b,Rev1*%
%TF.SameCoordinates,PX7102aa0PY5f5e100*%
%TF.FileFunction,Legend,Bot*%
%TF.FilePolarity,Positive*%
%FSLAX46Y46*%
G04 Gerber Fmt 4.6, Leading zero omitted, Abs format (unit mm)*
G04 Created by KiCad (PCBNEW 5.99.0+really5.1.10+dfsg1-1) date 2021-11-14 15:35:52*
%MOMM*%
%LPD*%
G01*
G04 APERTURE LIST*
%ADD10C,0.150000*%
%ADD11C,0.010000*%
%ADD12C,0.120000*%
G04 APERTURE END LIST*
D10*
X17164404Y10578572D02*
X16402500Y10578572D01*
X16783452Y10197620D02*
X16783452Y10959524D01*
X15450119Y11197620D02*
X15926309Y11197620D01*
X15973928Y10721429D01*
X15926309Y10769048D01*
X15831071Y10816667D01*
X15592976Y10816667D01*
X15497738Y10769048D01*
X15450119Y10721429D01*
X15402500Y10626191D01*
X15402500Y10388096D01*
X15450119Y10292858D01*
X15497738Y10245239D01*
X15592976Y10197620D01*
X15831071Y10197620D01*
X15926309Y10245239D01*
X15973928Y10292858D01*
X15116785Y11197620D02*
X14783452Y10197620D01*
X14450119Y11197620D01*
X17164404Y8078572D02*
X16402500Y8078572D01*
X15402500Y7697620D02*
X15973928Y7697620D01*
X15688214Y7697620D02*
X15688214Y8697620D01*
X15783452Y8554762D01*
X15878690Y8459524D01*
X15973928Y8411905D01*
X14831071Y8269048D02*
X14926309Y8316667D01*
X14973928Y8364286D01*
X15021547Y8459524D01*
X15021547Y8507143D01*
X14973928Y8602381D01*
X14926309Y8650000D01*
X14831071Y8697620D01*
X14640595Y8697620D01*
X14545357Y8650000D01*
X14497738Y8602381D01*
X14450119Y8507143D01*
X14450119Y8459524D01*
X14497738Y8364286D01*
X14545357Y8316667D01*
X14640595Y8269048D01*
X14831071Y8269048D01*
X14926309Y8221429D01*
X14973928Y8173810D01*
X15021547Y8078572D01*
X15021547Y7888096D01*
X14973928Y7792858D01*
X14926309Y7745239D01*
X14831071Y7697620D01*
X14640595Y7697620D01*
X14545357Y7745239D01*
X14497738Y7792858D01*
X14450119Y7888096D01*
X14450119Y8078572D01*
X14497738Y8173810D01*
X14545357Y8221429D01*
X14640595Y8269048D01*
X14164404Y8697620D02*
X13831071Y7697620D01*
X13497738Y8697620D01*
X16590595Y5950000D02*
X16685833Y5997620D01*
X16828690Y5997620D01*
X16971547Y5950000D01*
X17066785Y5854762D01*
X17114404Y5759524D01*
X17162023Y5569048D01*
X17162023Y5426191D01*
X17114404Y5235715D01*
X17066785Y5140477D01*
X16971547Y5045239D01*
X16828690Y4997620D01*
X16733452Y4997620D01*
X16590595Y5045239D01*
X16542976Y5092858D01*
X16542976Y5426191D01*
X16733452Y5426191D01*
X16114404Y4997620D02*
X16114404Y5997620D01*
X15542976Y4997620D01*
X15542976Y5997620D01*
X15066785Y4997620D02*
X15066785Y5997620D01*
X14828690Y5997620D01*
X14685833Y5950000D01*
X14590595Y5854762D01*
X14542976Y5759524D01*
X14495357Y5569048D01*
X14495357Y5426191D01*
X14542976Y5235715D01*
X14590595Y5140477D01*
X14685833Y5045239D01*
X14828690Y4997620D01*
X15066785Y4997620D01*
X4961904Y4450000D02*
X5057142Y4497620D01*
X5200000Y4497620D01*
X5342857Y4450000D01*
X5438095Y4354762D01*
X5485714Y4259524D01*
X5533333Y4069048D01*
X5533333Y3926191D01*
X5485714Y3735715D01*
X5438095Y3640477D01*
X5342857Y3545239D01*
X5200000Y3497620D01*
X5104761Y3497620D01*
X4961904Y3545239D01*
X4914285Y3592858D01*
X4914285Y3926191D01*
X5104761Y3926191D01*
X4485714Y3497620D02*
X4485714Y4497620D01*
X3914285Y3497620D01*
X3914285Y4497620D01*
X3438095Y3497620D02*
X3438095Y4497620D01*
X3200000Y4497620D01*
X3057142Y4450000D01*
X2961904Y4354762D01*
X2914285Y4259524D01*
X2866666Y4069048D01*
X2866666Y3926191D01*
X2914285Y3735715D01*
X2961904Y3640477D01*
X3057142Y3545239D01*
X3200000Y3497620D01*
X3438095Y3497620D01*
X6042857Y10947620D02*
X5709523Y9947620D01*
X5376190Y10947620D01*
X4709523Y10471429D02*
X4566666Y10423810D01*
X4519047Y10376191D01*
X4471428Y10280953D01*
X4471428Y10138096D01*
X4519047Y10042858D01*
X4566666Y9995239D01*
X4661904Y9947620D01*
X5042857Y9947620D01*
X5042857Y10947620D01*
X4709523Y10947620D01*
X4614285Y10900000D01*
X4566666Y10852381D01*
X4519047Y10757143D01*
X4519047Y10661905D01*
X4566666Y10566667D01*
X4614285Y10519048D01*
X4709523Y10471429D01*
X5042857Y10471429D01*
X4090476Y10233334D02*
X3614285Y10233334D01*
X4185714Y9947620D02*
X3852380Y10947620D01*
X3519047Y9947620D01*
X3328571Y10947620D02*
X2757142Y10947620D01*
X3042857Y9947620D02*
X3042857Y10947620D01*
D11*
%TO.C,MARK1*%
G36*
X6426219Y12615636D02*
G01*
X6454776Y12593371D01*
X6494820Y12566581D01*
X6538891Y12540179D01*
X6550573Y12533722D01*
X6576624Y12519423D01*
X6618928Y12495961D01*
X6675295Y12464559D01*
X6743535Y12426443D01*
X6821460Y12382836D01*
X6906878Y12334963D01*
X6997602Y12284048D01*
X7091440Y12231315D01*
X7097646Y12227825D01*
X7560667Y11967432D01*
X7560667Y11532568D01*
X7097646Y11272175D01*
X7003679Y11219366D01*
X6912685Y11168294D01*
X6826851Y11120184D01*
X6748369Y11076260D01*
X6679427Y11037746D01*
X6622215Y11005867D01*
X6578922Y10981847D01*
X6551739Y10966911D01*
X6550573Y10966278D01*
X6506695Y10940829D01*
X6464821Y10913659D01*
X6432409Y10889680D01*
X6426219Y10884365D01*
X6385917Y10847954D01*
X6385917Y10661748D01*
X6428639Y10630329D01*
X6446772Y10619515D01*
X6482005Y10600826D01*
X6532235Y10575298D01*
X6595363Y10543965D01*
X6669286Y10507861D01*
X6751903Y10468021D01*
X6841113Y10425479D01*
X6928702Y10384140D01*
X7084583Y10310923D01*
X7223210Y10245731D01*
X7346488Y10187591D01*
X7456324Y10135528D01*
X7554623Y10088570D01*
X7643289Y10045744D01*
X7724229Y10006077D01*
X7799347Y9968596D01*
X7870550Y9932327D01*
X7939742Y9896298D01*
X8008830Y9859535D01*
X8079718Y9821066D01*
X8154313Y9779917D01*
X8234518Y9735116D01*
X8322241Y9685688D01*
X8419386Y9630662D01*
X8527859Y9569064D01*
X8555500Y9553359D01*
X9206375Y9183542D01*
X9324352Y9180012D01*
X9379398Y9178932D01*
X9419998Y9180094D01*
X9452826Y9184313D01*
X9484555Y9192402D01*
X9517415Y9203567D01*
X9626189Y9249471D01*
X9725673Y9306356D01*
X9821427Y9377726D01*
X9887952Y9436984D01*
X9902980Y9453193D01*
X9930335Y9484892D01*
X9969151Y9531019D01*
X10018563Y9590512D01*
X10077704Y9662310D01*
X10145708Y9745350D01*
X10221711Y9838570D01*
X10304845Y9940908D01*
X10394246Y10051302D01*
X10489046Y10168691D01*
X10588382Y10292011D01*
X10691386Y10420201D01*
X10797193Y10552199D01*
X10800764Y10556660D01*
X11645833Y11612278D01*
X11645044Y11752577D01*
X11644255Y11892875D01*
X10810315Y12933629D01*
X10705272Y13064624D01*
X10603155Y13191778D01*
X10504826Y13314030D01*
X10411144Y13430316D01*
X10322971Y13539576D01*
X10241166Y13640748D01*
X10166590Y13732769D01*
X10100104Y13814578D01*
X10042568Y13885112D01*
X9994844Y13943311D01*
X9957791Y13988111D01*
X9932270Y14018451D01*
X9919458Y14032945D01*
X9873535Y14076400D01*
X9818039Y14123137D01*
X9758743Y14168757D01*
X9701417Y14208860D01*
X9651835Y14239044D01*
X9643111Y14243628D01*
X9605975Y14260872D01*
X9559369Y14280379D01*
X9517161Y14296525D01*
X9480857Y14308723D01*
X9449349Y14316335D01*
X9415969Y14320171D01*
X9374052Y14321042D01*
X9356399Y14320668D01*
X9356399Y14168070D01*
X9401650Y14156596D01*
X9456425Y14134206D01*
X9517723Y14102635D01*
X9582544Y14063617D01*
X9647886Y14018889D01*
X9710749Y13970184D01*
X9768131Y13919238D01*
X9790380Y13897066D01*
X9803272Y13882390D01*
X9827443Y13853584D01*
X9861528Y13812342D01*
X9904160Y13760358D01*
X9953974Y13699325D01*
X10009603Y13630937D01*
X10069681Y13556888D01*
X10132842Y13478872D01*
X10197720Y13398582D01*
X10262949Y13317711D01*
X10327163Y13237955D01*
X10388996Y13161005D01*
X10447081Y13088557D01*
X10500054Y13022304D01*
X10546546Y12963939D01*
X10585193Y12915156D01*
X10614629Y12877649D01*
X10633486Y12853111D01*
X10640400Y12843237D01*
X10640409Y12843176D01*
X10631015Y12845594D01*
X10605247Y12853751D01*
X10566730Y12866464D01*
X10519094Y12882547D01*
X10504171Y12887645D01*
X10321984Y12955490D01*
X10132040Y13036300D01*
X9939371Y13127489D01*
X9749012Y13226473D01*
X9565995Y13330666D01*
X9395356Y13437482D01*
X9281462Y13515654D01*
X9226903Y13557555D01*
X9167398Y13607955D01*
X9106799Y13663144D01*
X9048958Y13719411D01*
X8997729Y13773048D01*
X8956964Y13820344D01*
X8936858Y13847482D01*
X8915962Y13879890D01*
X8900747Y13905619D01*
X8894225Y13919543D01*
X8894167Y13920084D01*
X8902913Y13927365D01*
X8927064Y13943060D01*
X8963484Y13965366D01*
X9009037Y13992482D01*
X9060588Y14022605D01*
X9115003Y14053936D01*
X9169146Y14084671D01*
X9219881Y14113010D01*
X9264075Y14137151D01*
X9298591Y14155292D01*
X9320295Y14165633D01*
X9323674Y14166892D01*
X9356399Y14168070D01*
X9356399Y14320668D01*
X9324352Y14319988D01*
X9206375Y14316458D01*
X8729573Y14045547D01*
X8729573Y13831945D01*
X8739257Y13824268D01*
X8754089Y13801900D01*
X8770916Y13769622D01*
X8771468Y13768445D01*
X8787084Y13739010D01*
X8807561Y13708760D01*
X8835517Y13674535D01*
X8873571Y13633174D01*
X8924339Y13581517D01*
X8935582Y13570333D01*
X9040020Y13473522D01*
X9154886Y13380408D01*
X9282349Y13289519D01*
X9424580Y13199385D01*
X9583748Y13108533D01*
X9728958Y13032196D01*
X9901904Y12946841D01*
X10061877Y12873563D01*
X10212277Y12811026D01*
X10356507Y12757896D01*
X10497967Y12712835D01*
X10639175Y12674727D01*
X10694181Y12660911D01*
X10742257Y12648396D01*
X10779466Y12638239D01*
X10801870Y12631501D01*
X10806148Y12629827D01*
X10816129Y12619898D01*
X10837159Y12595885D01*
X10867138Y12560291D01*
X10903968Y12515621D01*
X10945551Y12464378D01*
X10962558Y12443208D01*
X11013358Y12379084D01*
X11051430Y12329260D01*
X11077928Y12292061D01*
X11094004Y12265809D01*
X11100812Y12248827D01*
X11100860Y12242125D01*
X11095196Y12221160D01*
X11086194Y12187411D01*
X11076855Y12152167D01*
X11071649Y12129674D01*
X11067525Y12104251D01*
X11064369Y12073291D01*
X11062067Y12034187D01*
X11060506Y11984333D01*
X11059573Y11921123D01*
X11059155Y11841948D01*
X11059137Y11744708D01*
X11059348Y11649817D01*
X11059802Y11573343D01*
X11060654Y11512535D01*
X11062057Y11464643D01*
X11064165Y11426919D01*
X11067134Y11396610D01*
X11071116Y11370969D01*
X11076267Y11347244D01*
X11082740Y11322685D01*
X11082811Y11322429D01*
X11093081Y11280309D01*
X11098358Y11247408D01*
X11097896Y11228701D01*
X11097110Y11227179D01*
X11067994Y11189706D01*
X11032772Y11145165D01*
X10993740Y11096370D01*
X10953197Y11046141D01*
X10913438Y10997292D01*
X10876759Y10952642D01*
X10845459Y10915007D01*
X10821832Y10887204D01*
X10808177Y10872050D01*
X10806043Y10870173D01*
X10791916Y10865389D01*
X10761147Y10856694D01*
X10717671Y10845147D01*
X10665421Y10831806D01*
X10639175Y10825273D01*
X10632864Y10823569D01*
X10632864Y10648014D01*
X10632702Y10646683D01*
X10624405Y10636249D01*
X10604059Y10610756D01*
X10572837Y10571673D01*
X10531915Y10520468D01*
X10482465Y10458609D01*
X10425662Y10387567D01*
X10362680Y10308809D01*
X10294694Y10223804D01*
X10222876Y10134021D01*
X10220259Y10130750D01*
X10129221Y10017130D01*
X10050022Y9918788D01*
X9981440Y9834346D01*
X9922246Y9762431D01*
X9871216Y9701667D01*
X9827124Y9650678D01*
X9788745Y9608090D01*
X9754853Y9572526D01*
X9724221Y9542611D01*
X9695626Y9516971D01*
X9667840Y9494230D01*
X9639638Y9473012D01*
X9624417Y9462134D01*
X9564520Y9423095D01*
X9503627Y9389018D01*
X9445366Y9361461D01*
X9393362Y9341978D01*
X9351242Y9332126D01*
X9323674Y9333108D01*
X9306159Y9340917D01*
X9274946Y9357036D01*
X9233169Y9379664D01*
X9183965Y9407000D01*
X9130467Y9437240D01*
X9075811Y9468585D01*
X9023133Y9499233D01*
X8975567Y9527381D01*
X8936249Y9551229D01*
X8908313Y9568974D01*
X8894895Y9578816D01*
X8894167Y9579917D01*
X8899666Y9592397D01*
X8914157Y9617187D01*
X8934625Y9649164D01*
X8936858Y9652519D01*
X8968097Y9693234D01*
X9012474Y9742865D01*
X9066135Y9797700D01*
X9125228Y9854031D01*
X9185902Y9908148D01*
X9244303Y9956342D01*
X9281462Y9984347D01*
X9440582Y10091904D01*
X9615768Y10198650D01*
X9801993Y10302004D01*
X9994230Y10399386D01*
X10187453Y10488213D01*
X10376634Y10565906D01*
X10505464Y10612798D01*
X10554151Y10628825D01*
X10593774Y10640612D01*
X10621092Y10647296D01*
X10632864Y10648014D01*
X10632864Y10823569D01*
X10497098Y10786910D01*
X10355632Y10741804D01*
X10211374Y10688619D01*
X10060925Y10626021D01*
X9900883Y10552673D01*
X9728958Y10467804D01*
X9554226Y10375258D01*
X9398216Y10284641D01*
X9258759Y10194480D01*
X9133685Y10103304D01*
X9020824Y10009643D01*
X8935582Y9929667D01*
X8882115Y9875708D01*
X8841858Y9832643D01*
X8812194Y9797310D01*
X8790503Y9766551D01*
X8774169Y9737205D01*
X8771468Y9731556D01*
X8754629Y9699032D01*
X8739680Y9676262D01*
X8729777Y9668025D01*
X8729573Y9668056D01*
X8718166Y9673637D01*
X8690436Y9688548D01*
X8648453Y9711639D01*
X8594285Y9741757D01*
X8529999Y9777754D01*
X8457663Y9818477D01*
X8379346Y9862777D01*
X8364448Y9871226D01*
X8272187Y9923169D01*
X8185150Y9971220D01*
X8100230Y10016964D01*
X8014317Y10061990D01*
X7924304Y10107885D01*
X7827083Y10156234D01*
X7719545Y10208625D01*
X7598583Y10266645D01*
X7476000Y10324832D01*
X7372556Y10373709D01*
X7271619Y10421320D01*
X7175412Y10466621D01*
X7086154Y10508571D01*
X7006067Y10546128D01*
X6937372Y10578250D01*
X6882290Y10603893D01*
X6843041Y10622017D01*
X6830417Y10627767D01*
X6775500Y10652969D01*
X6717866Y10680078D01*
X6665963Y10705093D01*
X6640601Y10717678D01*
X6561910Y10757408D01*
X6587684Y10776968D01*
X6605586Y10788303D01*
X6638584Y10807123D01*
X6682892Y10831345D01*
X6734724Y10858890D01*
X6772208Y10878391D01*
X6825649Y10906240D01*
X6872868Y10931396D01*
X6910471Y10952006D01*
X6935066Y10966221D01*
X6942841Y10971481D01*
X6954369Y10978917D01*
X6982393Y10995523D01*
X7024922Y11020160D01*
X7079966Y11051691D01*
X7145533Y11088977D01*
X7219633Y11130881D01*
X7300275Y11176263D01*
X7342004Y11199667D01*
X7729285Y11416625D01*
X7729642Y11476963D01*
X7726844Y11523737D01*
X7719326Y11574833D01*
X7714125Y11598249D01*
X7703598Y11658806D01*
X7699058Y11730677D01*
X7700503Y11804872D01*
X7707934Y11872402D01*
X7714125Y11901751D01*
X7723326Y11948766D01*
X7728873Y11999788D01*
X7729642Y12023037D01*
X7729285Y12083375D01*
X7342004Y12300333D01*
X7258861Y12347017D01*
X7181273Y12390786D01*
X7111233Y12430500D01*
X7050731Y12465022D01*
X7001757Y12493214D01*
X6966304Y12513938D01*
X6946361Y12526056D01*
X6942841Y12528519D01*
X6929824Y12536927D01*
X6901333Y12553075D01*
X6860762Y12575114D01*
X6811503Y12601190D01*
X6772208Y12621610D01*
X6717429Y12650223D01*
X6667608Y12676925D01*
X6626531Y12699633D01*
X6597985Y12716268D01*
X6587684Y12723032D01*
X6561910Y12742592D01*
X6640601Y12782322D01*
X6684806Y12804072D01*
X6739926Y12830372D01*
X6797511Y12857218D01*
X6830417Y12872233D01*
X6861225Y12886353D01*
X6908939Y12908496D01*
X6971339Y12937620D01*
X7046203Y12972682D01*
X7131310Y13012641D01*
X7224439Y13056455D01*
X7323369Y13103081D01*
X7425880Y13151476D01*
X7476000Y13175169D01*
X7611661Y13239593D01*
X7731108Y13296965D01*
X7837447Y13348870D01*
X7933789Y13396895D01*
X8023240Y13442628D01*
X8108908Y13487655D01*
X8193903Y13533563D01*
X8281331Y13581938D01*
X8364448Y13628774D01*
X8443641Y13673606D01*
X8517232Y13715074D01*
X8583154Y13752027D01*
X8639340Y13783313D01*
X8683720Y13807783D01*
X8714227Y13824286D01*
X8728794Y13831670D01*
X8729573Y13831945D01*
X8729573Y14045547D01*
X8555500Y13946641D01*
X8444056Y13883339D01*
X8344393Y13826840D01*
X8254604Y13776170D01*
X8172786Y13730358D01*
X8097031Y13688430D01*
X8025435Y13649412D01*
X7956092Y13612332D01*
X7887097Y13576217D01*
X7816544Y13540093D01*
X7742528Y13502988D01*
X7663144Y13463928D01*
X7576486Y13421941D01*
X7480648Y13376053D01*
X7373725Y13325291D01*
X7253812Y13268682D01*
X7119004Y13205253D01*
X6967394Y13134031D01*
X6928702Y13115861D01*
X6835225Y13071728D01*
X6746375Y13029328D01*
X6664253Y12989697D01*
X6590960Y12953868D01*
X6528598Y12922877D01*
X6479268Y12897757D01*
X6445071Y12879543D01*
X6428639Y12869671D01*
X6385917Y12838252D01*
X6385917Y12652047D01*
X6426219Y12615636D01*
G37*
X6426219Y12615636D02*
X6454776Y12593371D01*
X6494820Y12566581D01*
X6538891Y12540179D01*
X6550573Y12533722D01*
X6576624Y12519423D01*
X6618928Y12495961D01*
X6675295Y12464559D01*
X6743535Y12426443D01*
X6821460Y12382836D01*
X6906878Y12334963D01*
X6997602Y12284048D01*
X7091440Y12231315D01*
X7097646Y12227825D01*
X7560667Y11967432D01*
X7560667Y11532568D01*
X7097646Y11272175D01*
X7003679Y11219366D01*
X6912685Y11168294D01*
X6826851Y11120184D01*
X6748369Y11076260D01*
X6679427Y11037746D01*
X6622215Y11005867D01*
X6578922Y10981847D01*
X6551739Y10966911D01*
X6550573Y10966278D01*
X6506695Y10940829D01*
X6464821Y10913659D01*
X6432409Y10889680D01*
X6426219Y10884365D01*
X6385917Y10847954D01*
X6385917Y10661748D01*
X6428639Y10630329D01*
X6446772Y10619515D01*
X6482005Y10600826D01*
X6532235Y10575298D01*
X6595363Y10543965D01*
X6669286Y10507861D01*
X6751903Y10468021D01*
X6841113Y10425479D01*
X6928702Y10384140D01*
X7084583Y10310923D01*
X7223210Y10245731D01*
X7346488Y10187591D01*
X7456324Y10135528D01*
X7554623Y10088570D01*
X7643289Y10045744D01*
X7724229Y10006077D01*
X7799347Y9968596D01*
X7870550Y9932327D01*
X7939742Y9896298D01*
X8008830Y9859535D01*
X8079718Y9821066D01*
X8154313Y9779917D01*
X8234518Y9735116D01*
X8322241Y9685688D01*
X8419386Y9630662D01*
X8527859Y9569064D01*
X8555500Y9553359D01*
X9206375Y9183542D01*
X9324352Y9180012D01*
X9379398Y9178932D01*
X9419998Y9180094D01*
X9452826Y9184313D01*
X9484555Y9192402D01*
X9517415Y9203567D01*
X9626189Y9249471D01*
X9725673Y9306356D01*
X9821427Y9377726D01*
X9887952Y9436984D01*
X9902980Y9453193D01*
X9930335Y9484892D01*
X9969151Y9531019D01*
X10018563Y9590512D01*
X10077704Y9662310D01*
X10145708Y9745350D01*
X10221711Y9838570D01*
X10304845Y9940908D01*
X10394246Y10051302D01*
X10489046Y10168691D01*
X10588382Y10292011D01*
X10691386Y10420201D01*
X10797193Y10552199D01*
X10800764Y10556660D01*
X11645833Y11612278D01*
X11645044Y11752577D01*
X11644255Y11892875D01*
X10810315Y12933629D01*
X10705272Y13064624D01*
X10603155Y13191778D01*
X10504826Y13314030D01*
X10411144Y13430316D01*
X10322971Y13539576D01*
X10241166Y13640748D01*
X10166590Y13732769D01*
X10100104Y13814578D01*
X10042568Y13885112D01*
X9994844Y13943311D01*
X9957791Y13988111D01*
X9932270Y14018451D01*
X9919458Y14032945D01*
X9873535Y14076400D01*
X9818039Y14123137D01*
X9758743Y14168757D01*
X9701417Y14208860D01*
X9651835Y14239044D01*
X9643111Y14243628D01*
X9605975Y14260872D01*
X9559369Y14280379D01*
X9517161Y14296525D01*
X9480857Y14308723D01*
X9449349Y14316335D01*
X9415969Y14320171D01*
X9374052Y14321042D01*
X9356399Y14320668D01*
X9356399Y14168070D01*
X9401650Y14156596D01*
X9456425Y14134206D01*
X9517723Y14102635D01*
X9582544Y14063617D01*
X9647886Y14018889D01*
X9710749Y13970184D01*
X9768131Y13919238D01*
X9790380Y13897066D01*
X9803272Y13882390D01*
X9827443Y13853584D01*
X9861528Y13812342D01*
X9904160Y13760358D01*
X9953974Y13699325D01*
X10009603Y13630937D01*
X10069681Y13556888D01*
X10132842Y13478872D01*
X10197720Y13398582D01*
X10262949Y13317711D01*
X10327163Y13237955D01*
X10388996Y13161005D01*
X10447081Y13088557D01*
X10500054Y13022304D01*
X10546546Y12963939D01*
X10585193Y12915156D01*
X10614629Y12877649D01*
X10633486Y12853111D01*
X10640400Y12843237D01*
X10640409Y12843176D01*
X10631015Y12845594D01*
X10605247Y12853751D01*
X10566730Y12866464D01*
X10519094Y12882547D01*
X10504171Y12887645D01*
X10321984Y12955490D01*
X10132040Y13036300D01*
X9939371Y13127489D01*
X9749012Y13226473D01*
X9565995Y13330666D01*
X9395356Y13437482D01*
X9281462Y13515654D01*
X9226903Y13557555D01*
X9167398Y13607955D01*
X9106799Y13663144D01*
X9048958Y13719411D01*
X8997729Y13773048D01*
X8956964Y13820344D01*
X8936858Y13847482D01*
X8915962Y13879890D01*
X8900747Y13905619D01*
X8894225Y13919543D01*
X8894167Y13920084D01*
X8902913Y13927365D01*
X8927064Y13943060D01*
X8963484Y13965366D01*
X9009037Y13992482D01*
X9060588Y14022605D01*
X9115003Y14053936D01*
X9169146Y14084671D01*
X9219881Y14113010D01*
X9264075Y14137151D01*
X9298591Y14155292D01*
X9320295Y14165633D01*
X9323674Y14166892D01*
X9356399Y14168070D01*
X9356399Y14320668D01*
X9324352Y14319988D01*
X9206375Y14316458D01*
X8729573Y14045547D01*
X8729573Y13831945D01*
X8739257Y13824268D01*
X8754089Y13801900D01*
X8770916Y13769622D01*
X8771468Y13768445D01*
X8787084Y13739010D01*
X8807561Y13708760D01*
X8835517Y13674535D01*
X8873571Y13633174D01*
X8924339Y13581517D01*
X8935582Y13570333D01*
X9040020Y13473522D01*
X9154886Y13380408D01*
X9282349Y13289519D01*
X9424580Y13199385D01*
X9583748Y13108533D01*
X9728958Y13032196D01*
X9901904Y12946841D01*
X10061877Y12873563D01*
X10212277Y12811026D01*
X10356507Y12757896D01*
X10497967Y12712835D01*
X10639175Y12674727D01*
X10694181Y12660911D01*
X10742257Y12648396D01*
X10779466Y12638239D01*
X10801870Y12631501D01*
X10806148Y12629827D01*
X10816129Y12619898D01*
X10837159Y12595885D01*
X10867138Y12560291D01*
X10903968Y12515621D01*
X10945551Y12464378D01*
X10962558Y12443208D01*
X11013358Y12379084D01*
X11051430Y12329260D01*
X11077928Y12292061D01*
X11094004Y12265809D01*
X11100812Y12248827D01*
X11100860Y12242125D01*
X11095196Y12221160D01*
X11086194Y12187411D01*
X11076855Y12152167D01*
X11071649Y12129674D01*
X11067525Y12104251D01*
X11064369Y12073291D01*
X11062067Y12034187D01*
X11060506Y11984333D01*
X11059573Y11921123D01*
X11059155Y11841948D01*
X11059137Y11744708D01*
X11059348Y11649817D01*
X11059802Y11573343D01*
X11060654Y11512535D01*
X11062057Y11464643D01*
X11064165Y11426919D01*
X11067134Y11396610D01*
X11071116Y11370969D01*
X11076267Y11347244D01*
X11082740Y11322685D01*
X11082811Y11322429D01*
X11093081Y11280309D01*
X11098358Y11247408D01*
X11097896Y11228701D01*
X11097110Y11227179D01*
X11067994Y11189706D01*
X11032772Y11145165D01*
X10993740Y11096370D01*
X10953197Y11046141D01*
X10913438Y10997292D01*
X10876759Y10952642D01*
X10845459Y10915007D01*
X10821832Y10887204D01*
X10808177Y10872050D01*
X10806043Y10870173D01*
X10791916Y10865389D01*
X10761147Y10856694D01*
X10717671Y10845147D01*
X10665421Y10831806D01*
X10639175Y10825273D01*
X10632864Y10823569D01*
X10632864Y10648014D01*
X10632702Y10646683D01*
X10624405Y10636249D01*
X10604059Y10610756D01*
X10572837Y10571673D01*
X10531915Y10520468D01*
X10482465Y10458609D01*
X10425662Y10387567D01*
X10362680Y10308809D01*
X10294694Y10223804D01*
X10222876Y10134021D01*
X10220259Y10130750D01*
X10129221Y10017130D01*
X10050022Y9918788D01*
X9981440Y9834346D01*
X9922246Y9762431D01*
X9871216Y9701667D01*
X9827124Y9650678D01*
X9788745Y9608090D01*
X9754853Y9572526D01*
X9724221Y9542611D01*
X9695626Y9516971D01*
X9667840Y9494230D01*
X9639638Y9473012D01*
X9624417Y9462134D01*
X9564520Y9423095D01*
X9503627Y9389018D01*
X9445366Y9361461D01*
X9393362Y9341978D01*
X9351242Y9332126D01*
X9323674Y9333108D01*
X9306159Y9340917D01*
X9274946Y9357036D01*
X9233169Y9379664D01*
X9183965Y9407000D01*
X9130467Y9437240D01*
X9075811Y9468585D01*
X9023133Y9499233D01*
X8975567Y9527381D01*
X8936249Y9551229D01*
X8908313Y9568974D01*
X8894895Y9578816D01*
X8894167Y9579917D01*
X8899666Y9592397D01*
X8914157Y9617187D01*
X8934625Y9649164D01*
X8936858Y9652519D01*
X8968097Y9693234D01*
X9012474Y9742865D01*
X9066135Y9797700D01*
X9125228Y9854031D01*
X9185902Y9908148D01*
X9244303Y9956342D01*
X9281462Y9984347D01*
X9440582Y10091904D01*
X9615768Y10198650D01*
X9801993Y10302004D01*
X9994230Y10399386D01*
X10187453Y10488213D01*
X10376634Y10565906D01*
X10505464Y10612798D01*
X10554151Y10628825D01*
X10593774Y10640612D01*
X10621092Y10647296D01*
X10632864Y10648014D01*
X10632864Y10823569D01*
X10497098Y10786910D01*
X10355632Y10741804D01*
X10211374Y10688619D01*
X10060925Y10626021D01*
X9900883Y10552673D01*
X9728958Y10467804D01*
X9554226Y10375258D01*
X9398216Y10284641D01*
X9258759Y10194480D01*
X9133685Y10103304D01*
X9020824Y10009643D01*
X8935582Y9929667D01*
X8882115Y9875708D01*
X8841858Y9832643D01*
X8812194Y9797310D01*
X8790503Y9766551D01*
X8774169Y9737205D01*
X8771468Y9731556D01*
X8754629Y9699032D01*
X8739680Y9676262D01*
X8729777Y9668025D01*
X8729573Y9668056D01*
X8718166Y9673637D01*
X8690436Y9688548D01*
X8648453Y9711639D01*
X8594285Y9741757D01*
X8529999Y9777754D01*
X8457663Y9818477D01*
X8379346Y9862777D01*
X8364448Y9871226D01*
X8272187Y9923169D01*
X8185150Y9971220D01*
X8100230Y10016964D01*
X8014317Y10061990D01*
X7924304Y10107885D01*
X7827083Y10156234D01*
X7719545Y10208625D01*
X7598583Y10266645D01*
X7476000Y10324832D01*
X7372556Y10373709D01*
X7271619Y10421320D01*
X7175412Y10466621D01*
X7086154Y10508571D01*
X7006067Y10546128D01*
X6937372Y10578250D01*
X6882290Y10603893D01*
X6843041Y10622017D01*
X6830417Y10627767D01*
X6775500Y10652969D01*
X6717866Y10680078D01*
X6665963Y10705093D01*
X6640601Y10717678D01*
X6561910Y10757408D01*
X6587684Y10776968D01*
X6605586Y10788303D01*
X6638584Y10807123D01*
X6682892Y10831345D01*
X6734724Y10858890D01*
X6772208Y10878391D01*
X6825649Y10906240D01*
X6872868Y10931396D01*
X6910471Y10952006D01*
X6935066Y10966221D01*
X6942841Y10971481D01*
X6954369Y10978917D01*
X6982393Y10995523D01*
X7024922Y11020160D01*
X7079966Y11051691D01*
X7145533Y11088977D01*
X7219633Y11130881D01*
X7300275Y11176263D01*
X7342004Y11199667D01*
X7729285Y11416625D01*
X7729642Y11476963D01*
X7726844Y11523737D01*
X7719326Y11574833D01*
X7714125Y11598249D01*
X7703598Y11658806D01*
X7699058Y11730677D01*
X7700503Y11804872D01*
X7707934Y11872402D01*
X7714125Y11901751D01*
X7723326Y11948766D01*
X7728873Y11999788D01*
X7729642Y12023037D01*
X7729285Y12083375D01*
X7342004Y12300333D01*
X7258861Y12347017D01*
X7181273Y12390786D01*
X7111233Y12430500D01*
X7050731Y12465022D01*
X7001757Y12493214D01*
X6966304Y12513938D01*
X6946361Y12526056D01*
X6942841Y12528519D01*
X6929824Y12536927D01*
X6901333Y12553075D01*
X6860762Y12575114D01*
X6811503Y12601190D01*
X6772208Y12621610D01*
X6717429Y12650223D01*
X6667608Y12676925D01*
X6626531Y12699633D01*
X6597985Y12716268D01*
X6587684Y12723032D01*
X6561910Y12742592D01*
X6640601Y12782322D01*
X6684806Y12804072D01*
X6739926Y12830372D01*
X6797511Y12857218D01*
X6830417Y12872233D01*
X6861225Y12886353D01*
X6908939Y12908496D01*
X6971339Y12937620D01*
X7046203Y12972682D01*
X7131310Y13012641D01*
X7224439Y13056455D01*
X7323369Y13103081D01*
X7425880Y13151476D01*
X7476000Y13175169D01*
X7611661Y13239593D01*
X7731108Y13296965D01*
X7837447Y13348870D01*
X7933789Y13396895D01*
X8023240Y13442628D01*
X8108908Y13487655D01*
X8193903Y13533563D01*
X8281331Y13581938D01*
X8364448Y13628774D01*
X8443641Y13673606D01*
X8517232Y13715074D01*
X8583154Y13752027D01*
X8639340Y13783313D01*
X8683720Y13807783D01*
X8714227Y13824286D01*
X8728794Y13831670D01*
X8729573Y13831945D01*
X8729573Y14045547D01*
X8555500Y13946641D01*
X8444056Y13883339D01*
X8344393Y13826840D01*
X8254604Y13776170D01*
X8172786Y13730358D01*
X8097031Y13688430D01*
X8025435Y13649412D01*
X7956092Y13612332D01*
X7887097Y13576217D01*
X7816544Y13540093D01*
X7742528Y13502988D01*
X7663144Y13463928D01*
X7576486Y13421941D01*
X7480648Y13376053D01*
X7373725Y13325291D01*
X7253812Y13268682D01*
X7119004Y13205253D01*
X6967394Y13134031D01*
X6928702Y13115861D01*
X6835225Y13071728D01*
X6746375Y13029328D01*
X6664253Y12989697D01*
X6590960Y12953868D01*
X6528598Y12922877D01*
X6479268Y12897757D01*
X6445071Y12879543D01*
X6428639Y12869671D01*
X6385917Y12838252D01*
X6385917Y12652047D01*
X6426219Y12615636D01*
D12*
%TO.C,J3*%
X7400000Y-130000D02*
X7400000Y2530000D01*
X10000000Y-130000D02*
X7400000Y-130000D01*
X10000000Y2530000D02*
X7400000Y2530000D01*
X10000000Y-130000D02*
X10000000Y2530000D01*
X11270000Y-130000D02*
X12600000Y-130000D01*
X12600000Y-130000D02*
X12600000Y1200000D01*
%TO.C,C13*%
X6246267Y6910000D02*
X5953733Y6910000D01*
X6246267Y5890000D02*
X5953733Y5890000D01*
%TO.C,J2*%
X2580000Y4170000D02*
X-80000Y4170000D01*
X2580000Y9310000D02*
X2580000Y4170000D01*
X-80000Y9310000D02*
X-80000Y4170000D01*
X2580000Y9310000D02*
X-80000Y9310000D01*
X2580000Y10580000D02*
X2580000Y11910000D01*
X2580000Y11910000D02*
X1250000Y11910000D01*
D10*
%TO.C,U2*%
X9825000Y15550000D02*
X8600000Y15550000D01*
X9825000Y18675000D02*
X13175000Y18675000D01*
X9825000Y15325000D02*
X13175000Y15325000D01*
X9825000Y18675000D02*
X9825000Y18375000D01*
X13175000Y18675000D02*
X13175000Y18375000D01*
X13175000Y15325000D02*
X13175000Y15625000D01*
X9825000Y15325000D02*
X9825000Y15550000D01*
D12*
%TO.C,J1*%
X20080000Y11910000D02*
X18750000Y11910000D01*
X20080000Y10580000D02*
X20080000Y11910000D01*
X20080000Y9310000D02*
X17420000Y9310000D01*
X17420000Y9310000D02*
X17420000Y4170000D01*
X20080000Y9310000D02*
X20080000Y4170000D01*
X20080000Y4170000D02*
X17420000Y4170000D01*
%TO.C,D2*%
X3500000Y17950000D02*
X6650000Y17950000D01*
X3500000Y19650000D02*
X6650000Y19650000D01*
X3500000Y17950000D02*
X3500000Y19650000D01*
%TO.C,D1*%
X3050000Y14650000D02*
X6200000Y14650000D01*
X3050000Y16350000D02*
X6200000Y16350000D01*
X3050000Y14650000D02*
X3050000Y16350000D01*
%TO.C,J3*%
D10*
X13052380Y1533334D02*
X13766666Y1533334D01*
X13909523Y1580953D01*
X14004761Y1676191D01*
X14052380Y1819048D01*
X14052380Y1914286D01*
X13052380Y1152381D02*
X13052380Y533334D01*
X13433333Y866667D01*
X13433333Y723810D01*
X13480952Y628572D01*
X13528571Y580953D01*
X13623809Y533334D01*
X13861904Y533334D01*
X13957142Y580953D01*
X14004761Y628572D01*
X14052380Y723810D01*
X14052380Y1009524D01*
X14004761Y1104762D01*
X13957142Y1152381D01*
%TO.C,C13*%
X6742857Y7472858D02*
X6790476Y7425239D01*
X6933333Y7377620D01*
X7028571Y7377620D01*
X7171428Y7425239D01*
X7266666Y7520477D01*
X7314285Y7615715D01*
X7361904Y7806191D01*
X7361904Y7949048D01*
X7314285Y8139524D01*
X7266666Y8234762D01*
X7171428Y8330000D01*
X7028571Y8377620D01*
X6933333Y8377620D01*
X6790476Y8330000D01*
X6742857Y8282381D01*
X5790476Y7377620D02*
X6361904Y7377620D01*
X6076190Y7377620D02*
X6076190Y8377620D01*
X6171428Y8234762D01*
X6266666Y8139524D01*
X6361904Y8091905D01*
X5457142Y8377620D02*
X4838095Y8377620D01*
X5171428Y7996667D01*
X5028571Y7996667D01*
X4933333Y7949048D01*
X4885714Y7901429D01*
X4838095Y7806191D01*
X4838095Y7568096D01*
X4885714Y7472858D01*
X4933333Y7425239D01*
X5028571Y7377620D01*
X5314285Y7377620D01*
X5409523Y7425239D01*
X5457142Y7472858D01*
%TO.C,J2*%
X3083333Y13347620D02*
X3083333Y12633334D01*
X3130952Y12490477D01*
X3226190Y12395239D01*
X3369047Y12347620D01*
X3464285Y12347620D01*
X2654761Y13252381D02*
X2607142Y13300000D01*
X2511904Y13347620D01*
X2273809Y13347620D01*
X2178571Y13300000D01*
X2130952Y13252381D01*
X2083333Y13157143D01*
X2083333Y13061905D01*
X2130952Y12919048D01*
X2702380Y12347620D01*
X2083333Y12347620D01*
%TO.C,U2*%
X12261904Y14947620D02*
X12261904Y14138096D01*
X12214285Y14042858D01*
X12166666Y13995239D01*
X12071428Y13947620D01*
X11880952Y13947620D01*
X11785714Y13995239D01*
X11738095Y14042858D01*
X11690476Y14138096D01*
X11690476Y14947620D01*
X11261904Y14852381D02*
X11214285Y14900000D01*
X11119047Y14947620D01*
X10880952Y14947620D01*
X10785714Y14900000D01*
X10738095Y14852381D01*
X10690476Y14757143D01*
X10690476Y14661905D01*
X10738095Y14519048D01*
X11309523Y13947620D01*
X10690476Y13947620D01*
%TO.C,L1*%
X10166666Y7647620D02*
X10642857Y7647620D01*
X10642857Y8647620D01*
X9309523Y7647620D02*
X9880952Y7647620D01*
X9595238Y7647620D02*
X9595238Y8647620D01*
X9690476Y8504762D01*
X9785714Y8409524D01*
X9880952Y8361905D01*
%TO.C,J1*%
X16983333Y12797620D02*
X16983333Y12083334D01*
X17030952Y11940477D01*
X17126190Y11845239D01*
X17269047Y11797620D01*
X17364285Y11797620D01*
X15983333Y11797620D02*
X16554761Y11797620D01*
X16269047Y11797620D02*
X16269047Y12797620D01*
X16364285Y12654762D01*
X16459523Y12559524D01*
X16554761Y12511905D01*
%TO.C,D2*%
X6138095Y16497620D02*
X6138095Y17497620D01*
X5900000Y17497620D01*
X5757142Y17450000D01*
X5661904Y17354762D01*
X5614285Y17259524D01*
X5566666Y17069048D01*
X5566666Y16926191D01*
X5614285Y16735715D01*
X5661904Y16640477D01*
X5757142Y16545239D01*
X5900000Y16497620D01*
X6138095Y16497620D01*
X5185714Y17402381D02*
X5138095Y17450000D01*
X5042857Y17497620D01*
X4804761Y17497620D01*
X4709523Y17450000D01*
X4661904Y17402381D01*
X4614285Y17307143D01*
X4614285Y17211905D01*
X4661904Y17069048D01*
X5233333Y16497620D01*
X4614285Y16497620D01*
%TO.C,D1*%
X5688095Y13197620D02*
X5688095Y14197620D01*
X5450000Y14197620D01*
X5307142Y14150000D01*
X5211904Y14054762D01*
X5164285Y13959524D01*
X5116666Y13769048D01*
X5116666Y13626191D01*
X5164285Y13435715D01*
X5211904Y13340477D01*
X5307142Y13245239D01*
X5450000Y13197620D01*
X5688095Y13197620D01*
X4164285Y13197620D02*
X4735714Y13197620D01*
X4450000Y13197620D02*
X4450000Y14197620D01*
X4545238Y14054762D01*
X4640476Y13959524D01*
X4735714Y13911905D01*
%TD*%
M02*
