%TF.GenerationSoftware,KiCad,Pcbnew,5.99.0+really5.1.10+dfsg1-1*%
%TF.CreationDate,2021-11-14T15:35:52+01:00*%
%TF.ProjectId,GBPOCKET_DCDC,4742504f-434b-4455-945f-444344432e6b,Rev1*%
%TF.SameCoordinates,PX7102aa0PY5f5e100*%
%TF.FileFunction,Copper,L2,Bot*%
%TF.FilePolarity,Positive*%
%FSLAX46Y46*%
G04 Gerber Fmt 4.6, Leading zero omitted, Abs format (unit mm)*
G04 Created by KiCad (PCBNEW 5.99.0+really5.1.10+dfsg1-1) date 2021-11-14 15:35:52*
%MOMM*%
%LPD*%
G01*
G04 APERTURE LIST*
%TA.AperFunction,ComponentPad*%
%ADD10O,1.700000X1.700000*%
%TD*%
%TA.AperFunction,ComponentPad*%
%ADD11R,1.700000X1.700000*%
%TD*%
%TA.AperFunction,SMDPad,CuDef*%
%ADD12R,1.400000X0.300000*%
%TD*%
%TA.AperFunction,SMDPad,CuDef*%
%ADD13R,1.400000X3.800000*%
%TD*%
%TA.AperFunction,SMDPad,CuDef*%
%ADD14R,1.000000X1.000000*%
%TD*%
%TA.AperFunction,ViaPad*%
%ADD15C,0.600000*%
%TD*%
%TA.AperFunction,Conductor*%
%ADD16C,0.300000*%
%TD*%
%TA.AperFunction,Conductor*%
%ADD17C,0.250000*%
%TD*%
%TA.AperFunction,Conductor*%
%ADD18C,0.200000*%
%TD*%
%TA.AperFunction,Conductor*%
%ADD19C,0.800000*%
%TD*%
%TA.AperFunction,Conductor*%
%ADD20C,0.600000*%
%TD*%
%TA.AperFunction,Conductor*%
%ADD21C,0.100000*%
%TD*%
G04 APERTURE END LIST*
D10*
%TO.P,J3,2*%
%TO.N,GND*%
X8730000Y1200000D03*
D11*
%TO.P,J3,1*%
%TO.N,Net-(J3-Pad1)*%
X11270000Y1200000D03*
%TD*%
%TO.P,C13,2*%
%TO.N,GND*%
%TA.AperFunction,SMDPad,CuDef*%
G36*
G01*
X5775000Y6637500D02*
X5775000Y6162500D01*
G75*
G02*
X5537500Y5925000I-237500J0D01*
G01*
X4937500Y5925000D01*
G75*
G02*
X4700000Y6162500I0J237500D01*
G01*
X4700000Y6637500D01*
G75*
G02*
X4937500Y6875000I237500J0D01*
G01*
X5537500Y6875000D01*
G75*
G02*
X5775000Y6637500I0J-237500D01*
G01*
G37*
%TD.AperFunction*%
%TO.P,C13,1*%
%TO.N,+VSW*%
%TA.AperFunction,SMDPad,CuDef*%
G36*
G01*
X7500000Y6637500D02*
X7500000Y6162500D01*
G75*
G02*
X7262500Y5925000I-237500J0D01*
G01*
X6662500Y5925000D01*
G75*
G02*
X6425000Y6162500I0J237500D01*
G01*
X6425000Y6637500D01*
G75*
G02*
X6662500Y6875000I237500J0D01*
G01*
X7262500Y6875000D01*
G75*
G02*
X7500000Y6637500I0J-237500D01*
G01*
G37*
%TD.AperFunction*%
%TD*%
D10*
%TO.P,J2,3*%
%TO.N,GND*%
X1250000Y5500000D03*
%TO.P,J2,2*%
%TO.N,N/C*%
X1250000Y8040000D03*
D11*
%TO.P,J2,1*%
%TO.N,+BATT*%
X1250000Y10580000D03*
%TD*%
D12*
%TO.P,U2,10*%
%TO.N,/FB_NEG*%
X13700000Y16000000D03*
%TO.P,U2,9*%
%TO.N,+5V*%
X13700000Y16500000D03*
%TO.P,U2,8*%
%TO.N,Net-(C8-Pad1)*%
X13700000Y17000000D03*
%TO.P,U2,7*%
%TO.N,+5V*%
X13700000Y17500000D03*
%TO.P,U2,6*%
%TO.N,Net-(C8-Pad2)*%
X13700000Y18000000D03*
%TO.P,U2,5*%
%TO.N,Net-(C6-Pad2)*%
X9300000Y18000000D03*
%TO.P,U2,4*%
%TO.N,GND*%
X9300000Y17500000D03*
%TO.P,U2,3*%
%TO.N,Net-(C5-Pad2)*%
X9300000Y17000000D03*
%TO.P,U2,2*%
%TO.N,Net-(C3-Pad1)*%
X9300000Y16500000D03*
%TO.P,U2,1*%
%TO.N,GND*%
X9300000Y16000000D03*
%TD*%
D13*
%TO.P,L1,1*%
%TO.N,Net-(L1-Pad1)*%
X11400000Y5100000D03*
%TO.P,L1,2*%
%TO.N,+VSW*%
X8600000Y5100000D03*
%TD*%
D10*
%TO.P,J1,3*%
%TO.N,GND*%
X18750000Y5500000D03*
%TO.P,J1,2*%
%TO.N,-18V*%
X18750000Y8040000D03*
D11*
%TO.P,J1,1*%
%TO.N,+5V*%
X18750000Y10580000D03*
%TD*%
D14*
%TO.P,D2,2*%
%TO.N,Net-(C5-Pad1)*%
X6650000Y18800000D03*
%TO.P,D2,1*%
%TO.N,Net-(C3-Pad1)*%
X4150000Y18800000D03*
%TD*%
%TO.P,D1,2*%
%TO.N,-18V*%
X6200000Y15500000D03*
%TO.P,D1,1*%
%TO.N,Net-(C5-Pad1)*%
X3700000Y15500000D03*
%TD*%
D15*
%TO.N,GND*%
X14000000Y10300000D03*
X14000000Y9400000D03*
X14000000Y8500000D03*
X11200000Y7700000D03*
X8000000Y19300000D03*
X7900000Y18400000D03*
X11900000Y19300000D03*
X11900000Y18200000D03*
X11600000Y15400000D03*
X14650000Y14450000D03*
X15400000Y13300000D03*
X14850000Y12300000D03*
X4350000Y12450000D03*
X3200000Y13850000D03*
X4950000Y15250000D03*
X2300000Y15800000D03*
X2350000Y18450000D03*
X3000000Y19050000D03*
X16300000Y19200000D03*
X17550000Y18450000D03*
X17150000Y4650000D03*
X17950000Y3600000D03*
X17250000Y1200000D03*
X17150000Y2450000D03*
X14550000Y2400000D03*
X13050000Y2500000D03*
X14600000Y4700000D03*
X15200000Y6750000D03*
X13700000Y6600000D03*
X12900000Y5500000D03*
X12850000Y3500000D03*
X9900000Y2400000D03*
X7350000Y2650000D03*
X7050000Y4200000D03*
X6450000Y700000D03*
X3200000Y900000D03*
X2300000Y1950000D03*
X2250000Y3800000D03*
X5400000Y4700000D03*
X3850000Y5050000D03*
X3750000Y6700000D03*
X2400000Y9100000D03*
X1150000Y12200000D03*
X6650000Y11750000D03*
X2850000Y11800000D03*
X17850000Y16750000D03*
%TO.N,-18V*%
X7200012Y15500000D03*
X17250000Y17450000D03*
X17600000Y12500000D03*
%TO.N,Net-(C3-Pad1)*%
X5200000Y18800000D03*
%TO.N,Net-(C5-Pad2)*%
X10700000Y17000000D03*
%TO.N,Net-(C5-Pad1)*%
X7000000Y17750000D03*
X5006556Y16231521D03*
%TO.N,Net-(C6-Pad2)*%
X10600000Y18800000D03*
%TO.N,+5V*%
X17100000Y6900000D03*
X15609627Y15709627D03*
%TO.N,Net-(C8-Pad2)*%
X13700000Y18700000D03*
%TO.N,Net-(C8-Pad1)*%
X15700000Y18150000D03*
%TO.N,/FB_NEG*%
X15549999Y14649999D03*
%TO.N,Net-(L1-Pad1)*%
X12700000Y6700000D03*
%TO.N,+VSW*%
X7000000Y5300000D03*
X12500000Y11100000D03*
X11200000Y8700000D03*
%TD*%
D16*
%TO.N,GND*%
X10237998Y17500000D02*
X10437998Y17700000D01*
X9300000Y17500000D02*
X10237998Y17500000D01*
X9300000Y17500000D02*
X7900000Y17500000D01*
X10437998Y17700000D02*
X10900000Y17700000D01*
X9300000Y16000000D02*
X10600000Y16000000D01*
X10600000Y16000000D02*
X10800000Y16200000D01*
%TO.N,-18V*%
X6200000Y15500000D02*
X7200012Y15500000D01*
D17*
X17250000Y12850000D02*
X17600000Y12500000D01*
X17250000Y16300000D02*
X17250000Y12850000D01*
X17100000Y16450000D02*
X17250000Y16300000D01*
X17100000Y17300000D02*
X17100000Y16450000D01*
X17250000Y17450000D02*
X17100000Y17300000D01*
D16*
%TO.N,Net-(C3-Pad1)*%
X4150000Y18800000D02*
X5200000Y18800000D01*
X6400000Y16500000D02*
X9300000Y16500000D01*
X5200000Y17700000D02*
X6400000Y16500000D01*
X5200000Y18800000D02*
X5200000Y17700000D01*
D18*
%TO.N,Net-(C5-Pad2)*%
X9300000Y17000000D02*
X10700000Y17000000D01*
D16*
%TO.N,Net-(C5-Pad1)*%
X3700000Y15500000D02*
X4431521Y16231521D01*
X4431521Y16231521D02*
X5006556Y16231521D01*
X6650000Y18100000D02*
X7000000Y17750000D01*
X6650000Y18800000D02*
X6650000Y18100000D01*
D18*
%TO.N,Net-(C6-Pad2)*%
X9800000Y18000000D02*
X10600000Y18800000D01*
X9300000Y18000000D02*
X9800000Y18000000D01*
D16*
%TO.N,+5V*%
X12719998Y16500000D02*
X13700000Y16500000D01*
X12500000Y17300000D02*
X12500000Y16719998D01*
X12500000Y16719998D02*
X12719998Y16500000D01*
X12700000Y17500000D02*
X12500000Y17300000D01*
X13700000Y17500000D02*
X12700000Y17500000D01*
D19*
X17715000Y10580000D02*
X18750000Y10580000D01*
X17100000Y9965000D02*
X17715000Y10580000D01*
X17100000Y6900000D02*
X17100000Y9965000D01*
D16*
X13700000Y16500000D02*
X14819254Y16500000D01*
X14819254Y16500000D02*
X15609627Y15709627D01*
%TO.N,Net-(C8-Pad2)*%
X13700000Y18700000D02*
X13700000Y18000000D01*
%TO.N,Net-(C8-Pad1)*%
X14849994Y17000000D02*
X13700000Y17000000D01*
X15700000Y18150000D02*
X14849994Y17000000D01*
%TO.N,/FB_NEG*%
X15549999Y14850001D02*
X15549999Y14649999D01*
X13700000Y16000000D02*
X14400000Y16000000D01*
X14400000Y16000000D02*
X15549999Y14850001D01*
D20*
%TO.N,Net-(L1-Pad1)*%
X12400000Y6400000D02*
X11300000Y6400000D01*
X12700000Y6700000D02*
X12400000Y6400000D01*
%TO.N,+VSW*%
X7000000Y6362500D02*
X6962500Y6400000D01*
X7000000Y5300000D02*
X7000000Y6362500D01*
X8600000Y6400000D02*
X8600000Y5100000D01*
X6962500Y6400000D02*
X8600000Y6400000D01*
D18*
X11200000Y9800000D02*
X11200000Y8700000D01*
X12500000Y11100000D02*
X11200000Y9800000D01*
%TD*%
%TO.N,GND*%
X3315803Y19523303D02*
X3278660Y19453814D01*
X3255788Y19378414D01*
X3248065Y19300000D01*
X3248065Y18300000D01*
X3255788Y18221586D01*
X3278660Y18146186D01*
X3315803Y18076697D01*
X3365789Y18015789D01*
X3426697Y17965803D01*
X3496186Y17928660D01*
X3571586Y17905788D01*
X3650000Y17898065D01*
X4650001Y17898065D01*
X4650001Y17727017D01*
X4647340Y17700000D01*
X4650001Y17672982D01*
X4657959Y17592181D01*
X4679449Y17521340D01*
X4689409Y17488506D01*
X4740479Y17392958D01*
X4791987Y17330196D01*
X4791993Y17330190D01*
X4809211Y17309210D01*
X4830191Y17291992D01*
X5222388Y16899794D01*
X5210738Y16904620D01*
X5075500Y16931521D01*
X4937612Y16931521D01*
X4802374Y16904620D01*
X4674982Y16851853D01*
X4569722Y16781521D01*
X4458529Y16781521D01*
X4431521Y16784181D01*
X4404513Y16781521D01*
X4404503Y16781521D01*
X4323702Y16773563D01*
X4220027Y16742113D01*
X4134103Y16696186D01*
X4124479Y16691042D01*
X4061716Y16639534D01*
X4061711Y16639529D01*
X4040731Y16622311D01*
X4023513Y16601331D01*
X3824117Y16401935D01*
X3200000Y16401935D01*
X3121586Y16394212D01*
X3046186Y16371340D01*
X2976697Y16334197D01*
X2915789Y16284211D01*
X2865803Y16223303D01*
X2828660Y16153814D01*
X2805788Y16078414D01*
X2798065Y16000000D01*
X2798065Y15000000D01*
X2805788Y14921586D01*
X2828660Y14846186D01*
X2865803Y14776697D01*
X2915789Y14715789D01*
X2976697Y14665803D01*
X3046186Y14628660D01*
X3121586Y14605788D01*
X3200000Y14598065D01*
X4200000Y14598065D01*
X4278414Y14605788D01*
X4353814Y14628660D01*
X4423303Y14665803D01*
X4484211Y14715789D01*
X4534197Y14776697D01*
X4571340Y14846186D01*
X4594212Y14921586D01*
X4601935Y15000000D01*
X4601935Y15624117D01*
X4623443Y15645626D01*
X4674982Y15611189D01*
X4802374Y15558422D01*
X4937612Y15531521D01*
X5075500Y15531521D01*
X5210738Y15558422D01*
X5298065Y15594594D01*
X5298065Y15000000D01*
X5305788Y14921586D01*
X5328660Y14846186D01*
X5365803Y14776697D01*
X5415789Y14715789D01*
X5476697Y14665803D01*
X5546186Y14628660D01*
X5621586Y14605788D01*
X5700000Y14598065D01*
X6700000Y14598065D01*
X6778414Y14605788D01*
X6853814Y14628660D01*
X6923303Y14665803D01*
X6984211Y14715789D01*
X7034197Y14776697D01*
X7054766Y14815178D01*
X7131068Y14800000D01*
X7268956Y14800000D01*
X7404194Y14826901D01*
X7531586Y14879668D01*
X7646236Y14956274D01*
X7743738Y15053776D01*
X7820344Y15168426D01*
X7873111Y15295818D01*
X7900012Y15431056D01*
X7900012Y15568944D01*
X7873111Y15704182D01*
X7820344Y15831574D01*
X7743738Y15946224D01*
X7739962Y15950000D01*
X8000000Y15950000D01*
X8000000Y15849998D01*
X8049998Y15849998D01*
X8000000Y15800000D01*
X8011806Y15717638D01*
X8048930Y15605430D01*
X8107232Y15502621D01*
X8184471Y15413162D01*
X8277678Y15340490D01*
X8383272Y15287398D01*
X8497195Y15255927D01*
X8615068Y15247285D01*
X9000000Y15250000D01*
X9150000Y15400000D01*
X9150000Y15948065D01*
X9450000Y15948065D01*
X9450000Y15400000D01*
X9600000Y15250000D01*
X9984932Y15247285D01*
X10102805Y15255927D01*
X10216728Y15287398D01*
X10322322Y15340490D01*
X10415529Y15413162D01*
X10492768Y15502621D01*
X10551070Y15605430D01*
X10588194Y15717638D01*
X10600000Y15800000D01*
X10450000Y15950000D01*
X10019647Y15950000D01*
X10078414Y15955788D01*
X10153814Y15978660D01*
X10223303Y16015803D01*
X10264972Y16050000D01*
X10450000Y16050000D01*
X10600000Y16200000D01*
X10588194Y16282362D01*
X10578928Y16310369D01*
X10631056Y16300000D01*
X10768944Y16300000D01*
X10904182Y16326901D01*
X11031574Y16379668D01*
X11146224Y16456274D01*
X11243726Y16553776D01*
X11320332Y16668426D01*
X11373099Y16795818D01*
X11400000Y16931056D01*
X11400000Y17068944D01*
X11373099Y17204182D01*
X11333411Y17300000D01*
X11947340Y17300000D01*
X11950000Y17272992D01*
X11950000Y16747006D01*
X11947340Y16719998D01*
X11950000Y16692990D01*
X11950000Y16692980D01*
X11957958Y16612179D01*
X11981121Y16535825D01*
X11989409Y16508504D01*
X12040479Y16412956D01*
X12091987Y16350194D01*
X12091993Y16350188D01*
X12109211Y16329208D01*
X12130191Y16311990D01*
X12311985Y16130196D01*
X12329208Y16109210D01*
X12350194Y16091987D01*
X12412076Y16041201D01*
X12412956Y16040479D01*
X12508504Y15989408D01*
X12598065Y15962240D01*
X12598065Y15850000D01*
X12605788Y15771586D01*
X12628660Y15696186D01*
X12665803Y15626697D01*
X12715789Y15565789D01*
X12776697Y15515803D01*
X12846186Y15478660D01*
X12921586Y15455788D01*
X13000000Y15448065D01*
X14174118Y15448065D01*
X14858832Y14763350D01*
X14849999Y14718943D01*
X14849999Y14581055D01*
X14876900Y14445817D01*
X14929667Y14318425D01*
X15006273Y14203775D01*
X15103775Y14106273D01*
X15218425Y14029667D01*
X15345817Y13976900D01*
X15481055Y13949999D01*
X15618943Y13949999D01*
X15754181Y13976900D01*
X15881573Y14029667D01*
X15996223Y14106273D01*
X16093725Y14203775D01*
X16170331Y14318425D01*
X16223098Y14445817D01*
X16249999Y14581055D01*
X16249999Y14718943D01*
X16223098Y14854181D01*
X16170331Y14981573D01*
X16093725Y15096223D01*
X16036786Y15153162D01*
X16055851Y15165901D01*
X16153353Y15263403D01*
X16229959Y15378053D01*
X16282726Y15505445D01*
X16309627Y15640683D01*
X16309627Y15778571D01*
X16282726Y15913809D01*
X16229959Y16041201D01*
X16153353Y16155851D01*
X16055851Y16253353D01*
X15941201Y16329959D01*
X15813809Y16382726D01*
X15689648Y16407424D01*
X15348261Y16748810D01*
X15883358Y17472759D01*
X15904182Y17476901D01*
X16005683Y17518944D01*
X16550000Y17518944D01*
X16550000Y17381056D01*
X16575000Y17255375D01*
X16575000Y16475780D01*
X16572461Y16450000D01*
X16575000Y16424220D01*
X16575000Y16424212D01*
X16577920Y16394570D01*
X16582597Y16347083D01*
X16612617Y16248120D01*
X16658341Y16162577D01*
X16661368Y16156914D01*
X16725000Y16079378D01*
X16725001Y12875790D01*
X16722461Y12850000D01*
X16732597Y12747083D01*
X16762617Y12648120D01*
X16811367Y12556915D01*
X16811368Y12556914D01*
X16876974Y12476973D01*
X16897005Y12460534D01*
X16900000Y12457539D01*
X16900000Y12431056D01*
X16926901Y12295818D01*
X16979668Y12168426D01*
X17056274Y12053776D01*
X17153776Y11956274D01*
X17268426Y11879668D01*
X17395818Y11826901D01*
X17531056Y11800000D01*
X17668944Y11800000D01*
X17804182Y11826901D01*
X17931574Y11879668D01*
X18046224Y11956274D01*
X18143726Y12053776D01*
X18220332Y12168426D01*
X18273099Y12295818D01*
X18300000Y12431056D01*
X18300000Y12568944D01*
X18273099Y12704182D01*
X18220332Y12831574D01*
X18143726Y12946224D01*
X18046224Y13043726D01*
X17931574Y13120332D01*
X17804182Y13173099D01*
X17775000Y13178904D01*
X17775000Y16274221D01*
X17777539Y16300001D01*
X17775000Y16325781D01*
X17775000Y16325788D01*
X17767403Y16402918D01*
X17737383Y16501881D01*
X17688633Y16593086D01*
X17625000Y16670623D01*
X17625000Y16858684D01*
X17696224Y16906274D01*
X17793726Y17003776D01*
X17870332Y17118426D01*
X17923099Y17245818D01*
X17950000Y17381056D01*
X17950000Y17518944D01*
X17923099Y17654182D01*
X17870332Y17781574D01*
X17793726Y17896224D01*
X17696224Y17993726D01*
X17581574Y18070332D01*
X17454182Y18123099D01*
X17318944Y18150000D01*
X17181056Y18150000D01*
X17045818Y18123099D01*
X16918426Y18070332D01*
X16803776Y17993726D01*
X16706274Y17896224D01*
X16629668Y17781574D01*
X16576901Y17654182D01*
X16550000Y17518944D01*
X16005683Y17518944D01*
X16031574Y17529668D01*
X16146224Y17606274D01*
X16243726Y17703776D01*
X16320332Y17818426D01*
X16373099Y17945818D01*
X16400000Y18081056D01*
X16400000Y18218944D01*
X16373099Y18354182D01*
X16320332Y18481574D01*
X16243726Y18596224D01*
X16146224Y18693726D01*
X16031574Y18770332D01*
X15904182Y18823099D01*
X15768944Y18850000D01*
X15631056Y18850000D01*
X15495818Y18823099D01*
X15368426Y18770332D01*
X15253776Y18693726D01*
X15156274Y18596224D01*
X15079668Y18481574D01*
X15026901Y18354182D01*
X15000000Y18218944D01*
X15000000Y18128261D01*
X14801935Y17860292D01*
X14801935Y18150000D01*
X14794212Y18228414D01*
X14771340Y18303814D01*
X14734197Y18373303D01*
X14684211Y18434211D01*
X14623303Y18484197D01*
X14553814Y18521340D01*
X14478414Y18544212D01*
X14400000Y18551935D01*
X14384262Y18551935D01*
X14400000Y18631056D01*
X14400000Y18768944D01*
X14373099Y18904182D01*
X14320332Y19031574D01*
X14243726Y19146224D01*
X14146224Y19243726D01*
X14031574Y19320332D01*
X13904182Y19373099D01*
X13768944Y19400000D01*
X13631056Y19400000D01*
X13495818Y19373099D01*
X13368426Y19320332D01*
X13253776Y19243726D01*
X13156274Y19146224D01*
X13079668Y19031574D01*
X13026901Y18904182D01*
X13000000Y18768944D01*
X13000000Y18631056D01*
X13015738Y18551935D01*
X13000000Y18551935D01*
X12921586Y18544212D01*
X12846186Y18521340D01*
X12776697Y18484197D01*
X12715789Y18434211D01*
X12665803Y18373303D01*
X12628660Y18303814D01*
X12605788Y18228414D01*
X12598065Y18150000D01*
X12598065Y18042622D01*
X12592181Y18042042D01*
X12488506Y18010592D01*
X12392958Y17959521D01*
X12309210Y17890790D01*
X12291983Y17869800D01*
X12130197Y17708014D01*
X12109210Y17690790D01*
X12040479Y17607042D01*
X11989408Y17511493D01*
X11957958Y17407818D01*
X11950000Y17327017D01*
X11950000Y17327008D01*
X11947340Y17300000D01*
X11333411Y17300000D01*
X11320332Y17331574D01*
X11243726Y17446224D01*
X11146224Y17543726D01*
X11031574Y17620332D01*
X10904182Y17673099D01*
X10768944Y17700000D01*
X10631056Y17700000D01*
X10592289Y17692289D01*
X10600000Y17700000D01*
X10588194Y17782362D01*
X10551070Y17894570D01*
X10497008Y17989902D01*
X10607106Y18100000D01*
X10668944Y18100000D01*
X10804182Y18126901D01*
X10931574Y18179668D01*
X11046224Y18256274D01*
X11143726Y18353776D01*
X11220332Y18468426D01*
X11273099Y18595818D01*
X11300000Y18731056D01*
X11300000Y18868944D01*
X11273099Y19004182D01*
X11220332Y19131574D01*
X11143726Y19246224D01*
X11046224Y19343726D01*
X10931574Y19420332D01*
X10804182Y19473099D01*
X10668944Y19500000D01*
X10531056Y19500000D01*
X10395818Y19473099D01*
X10268426Y19420332D01*
X10153776Y19343726D01*
X10056274Y19246224D01*
X9979668Y19131574D01*
X9926901Y19004182D01*
X9900000Y18868944D01*
X9900000Y18807106D01*
X9644829Y18551935D01*
X8600000Y18551935D01*
X8521586Y18544212D01*
X8446186Y18521340D01*
X8376697Y18484197D01*
X8315789Y18434211D01*
X8265803Y18373303D01*
X8228660Y18303814D01*
X8205788Y18228414D01*
X8198065Y18150000D01*
X8198065Y18097437D01*
X8184471Y18086838D01*
X8107232Y17997379D01*
X8048930Y17894570D01*
X8011806Y17782362D01*
X8000000Y17700000D01*
X8150000Y17550000D01*
X8335028Y17550000D01*
X8376697Y17515803D01*
X8406262Y17500000D01*
X8376697Y17484197D01*
X8335028Y17450000D01*
X8150000Y17450000D01*
X8000000Y17300000D01*
X8011806Y17217638D01*
X8048930Y17105430D01*
X8080364Y17050000D01*
X7068944Y17050000D01*
X7204182Y17076901D01*
X7331574Y17129668D01*
X7446224Y17206274D01*
X7543726Y17303776D01*
X7620332Y17418426D01*
X7673099Y17545818D01*
X7700000Y17681056D01*
X7700000Y17818944D01*
X7673099Y17954182D01*
X7620332Y18081574D01*
X7543726Y18196224D01*
X7538196Y18201754D01*
X7544212Y18221586D01*
X7551935Y18300000D01*
X7551935Y19300000D01*
X7544212Y19378414D01*
X7521340Y19453814D01*
X7484197Y19523303D01*
X7441770Y19575000D01*
X16823960Y19575000D01*
X18075000Y18323959D01*
X18075001Y13520877D01*
X18072945Y13500000D01*
X18081150Y13416686D01*
X18105207Y13337383D01*
X18105453Y13336573D01*
X18144917Y13262740D01*
X18198027Y13198026D01*
X18214239Y13184721D01*
X19567024Y11831935D01*
X17900000Y11831935D01*
X17821586Y11824212D01*
X17746186Y11801340D01*
X17676697Y11764197D01*
X17615789Y11714211D01*
X17565803Y11653303D01*
X17528660Y11583814D01*
X17505788Y11508414D01*
X17498065Y11430000D01*
X17498065Y11350190D01*
X17407372Y11322679D01*
X17350478Y11292268D01*
X17268393Y11248393D01*
X17207010Y11198017D01*
X17146578Y11148422D01*
X17121531Y11117902D01*
X16562098Y10558468D01*
X16531579Y10533422D01*
X16506532Y10502902D01*
X16506531Y10502901D01*
X16431607Y10411606D01*
X16357321Y10272627D01*
X16311577Y10121827D01*
X16296130Y9965000D01*
X16300001Y9925700D01*
X16300000Y6860708D01*
X16311576Y6743174D01*
X16357321Y6592373D01*
X16431607Y6453395D01*
X16531578Y6331578D01*
X16653394Y6231607D01*
X16792372Y6157321D01*
X16943173Y6111576D01*
X17100000Y6096130D01*
X17256826Y6111576D01*
X17407627Y6157321D01*
X17481650Y6196887D01*
X17377452Y5967582D01*
X17349000Y5873766D01*
X17458683Y5650000D01*
X18600000Y5650000D01*
X18600000Y5670000D01*
X18900000Y5670000D01*
X18900000Y5650000D01*
X18920000Y5650000D01*
X18920000Y5350000D01*
X18900000Y5350000D01*
X18900000Y4207774D01*
X19039109Y4140149D01*
X18214243Y3315283D01*
X18198026Y3301974D01*
X18144916Y3237259D01*
X18105452Y3163426D01*
X18092760Y3121586D01*
X18081151Y3083315D01*
X18081150Y3083313D01*
X18075000Y3020873D01*
X18075000Y3020867D01*
X18072945Y3000000D01*
X18075000Y2979133D01*
X18075001Y1676042D01*
X16823960Y425000D01*
X12521935Y425000D01*
X12521935Y2050000D01*
X12514212Y2128414D01*
X12491340Y2203814D01*
X12454197Y2273303D01*
X12404211Y2334211D01*
X12343303Y2384197D01*
X12273814Y2421340D01*
X12198414Y2444212D01*
X12120000Y2451935D01*
X10420000Y2451935D01*
X10341586Y2444212D01*
X10266186Y2421340D01*
X10196697Y2384197D01*
X10135789Y2334211D01*
X10085803Y2273303D01*
X10048660Y2203814D01*
X10025788Y2128414D01*
X10018065Y2050000D01*
X10018065Y1861029D01*
X9881326Y2081457D01*
X9687240Y2289133D01*
X9456368Y2454954D01*
X9197582Y2572548D01*
X9103766Y2601000D01*
X8880000Y2491317D01*
X8880000Y1350000D01*
X8900000Y1350000D01*
X8900000Y1050000D01*
X8880000Y1050000D01*
X8880000Y1030000D01*
X8580000Y1030000D01*
X8580000Y1050000D01*
X7437774Y1050000D01*
X7328995Y826233D01*
X7428833Y560092D01*
X7512635Y425000D01*
X3176041Y425000D01*
X2027274Y1573767D01*
X7328995Y1573767D01*
X7437774Y1350000D01*
X8580000Y1350000D01*
X8580000Y2491317D01*
X8356234Y2601000D01*
X8262418Y2572548D01*
X8003632Y2454954D01*
X7772760Y2289133D01*
X7578674Y2081457D01*
X7428833Y1839908D01*
X7328995Y1573767D01*
X2027274Y1573767D01*
X1925000Y1676040D01*
X1925000Y2979134D01*
X1927055Y3000001D01*
X1925000Y3020868D01*
X1925000Y3020874D01*
X1918850Y3083314D01*
X1894548Y3163427D01*
X1855084Y3237260D01*
X1801974Y3301974D01*
X1785763Y3315278D01*
X960891Y4140149D01*
X1100000Y4207774D01*
X1100000Y5350000D01*
X1400000Y5350000D01*
X1400000Y4207774D01*
X1623767Y4098995D01*
X1889908Y4198833D01*
X2131457Y4348674D01*
X2339133Y4542760D01*
X2504954Y4773632D01*
X2622548Y5032418D01*
X2651000Y5126234D01*
X2541317Y5350000D01*
X1400000Y5350000D01*
X1100000Y5350000D01*
X1080000Y5350000D01*
X1080000Y5650000D01*
X1100000Y5650000D01*
X1100000Y5670000D01*
X1400000Y5670000D01*
X1400000Y5650000D01*
X2541317Y5650000D01*
X2651000Y5873766D01*
X2635463Y5925000D01*
X4097097Y5925000D01*
X4108682Y5807379D01*
X4142990Y5694279D01*
X4198704Y5590045D01*
X4273683Y5498683D01*
X4365045Y5423704D01*
X4469279Y5367990D01*
X4582379Y5333682D01*
X4700000Y5322097D01*
X4937500Y5325000D01*
X5087500Y5475000D01*
X5087500Y6250000D01*
X4250000Y6250000D01*
X4100000Y6100000D01*
X4097097Y5925000D01*
X2635463Y5925000D01*
X2622548Y5967582D01*
X2504954Y6226368D01*
X2339133Y6457240D01*
X2131457Y6651326D01*
X1889908Y6801167D01*
X1698735Y6872882D01*
X1703848Y6875000D01*
X4097097Y6875000D01*
X4100000Y6700000D01*
X4250000Y6550000D01*
X5087500Y6550000D01*
X5087500Y7325000D01*
X5387500Y7325000D01*
X5387500Y6550000D01*
X5407500Y6550000D01*
X5407500Y6250000D01*
X5387500Y6250000D01*
X5387500Y5475000D01*
X5537500Y5325000D01*
X5775000Y5322097D01*
X5892621Y5333682D01*
X6005721Y5367990D01*
X6109955Y5423704D01*
X6201317Y5498683D01*
X6276296Y5590045D01*
X6300000Y5634393D01*
X6300000Y5231056D01*
X6306741Y5197168D01*
X6310128Y5162777D01*
X6320160Y5129705D01*
X6326901Y5095818D01*
X6340123Y5063897D01*
X6350155Y5030826D01*
X6366445Y5000350D01*
X6379668Y4968426D01*
X6398867Y4939692D01*
X6415155Y4909220D01*
X6437072Y4882513D01*
X6456274Y4853776D01*
X6480713Y4829337D01*
X6502630Y4802631D01*
X6529337Y4780713D01*
X6553776Y4756274D01*
X6582510Y4737075D01*
X6609219Y4715155D01*
X6639696Y4698865D01*
X6668426Y4679668D01*
X6700346Y4666446D01*
X6730825Y4650155D01*
X6763900Y4640122D01*
X6795818Y4626901D01*
X6829702Y4620161D01*
X6862776Y4610128D01*
X6897169Y4606741D01*
X6931056Y4600000D01*
X6965610Y4600000D01*
X7000000Y4596613D01*
X7034390Y4600000D01*
X7068944Y4600000D01*
X7102832Y4606741D01*
X7137223Y4610128D01*
X7170295Y4620160D01*
X7204182Y4626901D01*
X7236103Y4640123D01*
X7269174Y4650155D01*
X7299650Y4666445D01*
X7331574Y4679668D01*
X7360308Y4698867D01*
X7390780Y4715155D01*
X7417487Y4737072D01*
X7446224Y4756274D01*
X7470663Y4780713D01*
X7497369Y4802630D01*
X7498065Y4803478D01*
X7498065Y3200000D01*
X7505788Y3121586D01*
X7528660Y3046186D01*
X7565803Y2976697D01*
X7615789Y2915789D01*
X7676697Y2865803D01*
X7746186Y2828660D01*
X7821586Y2805788D01*
X7900000Y2798065D01*
X9300000Y2798065D01*
X9378414Y2805788D01*
X9453814Y2828660D01*
X9523303Y2865803D01*
X9564972Y2900000D01*
X10435028Y2900000D01*
X10476697Y2865803D01*
X10546186Y2828660D01*
X10621586Y2805788D01*
X10700000Y2798065D01*
X12100000Y2798065D01*
X12178414Y2805788D01*
X12253814Y2828660D01*
X12323303Y2865803D01*
X12384211Y2915789D01*
X12434197Y2976697D01*
X12471340Y3046186D01*
X12494212Y3121586D01*
X12501935Y3200000D01*
X12501935Y5126234D01*
X17349000Y5126234D01*
X17377452Y5032418D01*
X17495046Y4773632D01*
X17660867Y4542760D01*
X17868543Y4348674D01*
X18110092Y4198833D01*
X18376233Y4098995D01*
X18600000Y4207774D01*
X18600000Y5350000D01*
X17458683Y5350000D01*
X17349000Y5126234D01*
X12501935Y5126234D01*
X12501935Y5706652D01*
X12537224Y5710128D01*
X12669175Y5750155D01*
X12790781Y5815155D01*
X12897370Y5902630D01*
X12919296Y5929347D01*
X13146221Y6156272D01*
X13146224Y6156274D01*
X13243726Y6253776D01*
X13262925Y6282510D01*
X13284845Y6309219D01*
X13301135Y6339696D01*
X13320332Y6368426D01*
X13333554Y6400346D01*
X13349845Y6430825D01*
X13359877Y6463898D01*
X13373099Y6495818D01*
X13379840Y6529707D01*
X13389871Y6562775D01*
X13393258Y6597162D01*
X13400000Y6631056D01*
X13400000Y6665612D01*
X13403387Y6699999D01*
X13400000Y6734386D01*
X13400000Y6768944D01*
X13393258Y6802840D01*
X13389871Y6837223D01*
X13379841Y6870288D01*
X13373099Y6904182D01*
X13359876Y6936105D01*
X13349845Y6969174D01*
X13333555Y6999651D01*
X13320332Y7031574D01*
X13301135Y7060305D01*
X13284845Y7090781D01*
X13262926Y7117489D01*
X13243726Y7146224D01*
X13219284Y7170666D01*
X13197369Y7197369D01*
X13170666Y7219284D01*
X13146224Y7243726D01*
X13117489Y7262926D01*
X13090781Y7284845D01*
X13060305Y7301135D01*
X13031574Y7320332D01*
X12999651Y7333555D01*
X12969174Y7349845D01*
X12936105Y7359876D01*
X12904182Y7373099D01*
X12870288Y7379841D01*
X12837223Y7389871D01*
X12802840Y7393258D01*
X12768944Y7400000D01*
X12734386Y7400000D01*
X12699999Y7403387D01*
X12665612Y7400000D01*
X12631056Y7400000D01*
X12597162Y7393258D01*
X12562775Y7389871D01*
X12529707Y7379840D01*
X12495818Y7373099D01*
X12463898Y7359877D01*
X12430825Y7349845D01*
X12400346Y7333554D01*
X12368426Y7320332D01*
X12352866Y7309935D01*
X12323303Y7334197D01*
X12253814Y7371340D01*
X12178414Y7394212D01*
X12100000Y7401935D01*
X10700000Y7401935D01*
X10621586Y7394212D01*
X10546186Y7371340D01*
X10476697Y7334197D01*
X10435028Y7300000D01*
X9564972Y7300000D01*
X9523303Y7334197D01*
X9453814Y7371340D01*
X9378414Y7394212D01*
X9300000Y7401935D01*
X7900000Y7401935D01*
X7821586Y7394212D01*
X7746186Y7371340D01*
X7676697Y7334197D01*
X7615789Y7284211D01*
X7565803Y7223303D01*
X7554842Y7202796D01*
X7507201Y7228261D01*
X7387248Y7264648D01*
X7262500Y7276935D01*
X6662500Y7276935D01*
X6537752Y7264648D01*
X6417799Y7228261D01*
X6307249Y7169171D01*
X6300886Y7163949D01*
X6276296Y7209955D01*
X6201317Y7301317D01*
X6109955Y7376296D01*
X6005721Y7432010D01*
X5892621Y7466318D01*
X5775000Y7477903D01*
X5537500Y7475000D01*
X5387500Y7325000D01*
X5087500Y7325000D01*
X4937500Y7475000D01*
X4700000Y7477903D01*
X4582379Y7466318D01*
X4469279Y7432010D01*
X4365045Y7376296D01*
X4273683Y7301317D01*
X4198704Y7209955D01*
X4142990Y7105721D01*
X4108682Y6992621D01*
X4097097Y6875000D01*
X1703848Y6875000D01*
X1842097Y6932265D01*
X2046828Y7069062D01*
X2220938Y7243172D01*
X2357735Y7447903D01*
X2451963Y7675389D01*
X2500000Y7916886D01*
X2500000Y8163114D01*
X2451963Y8404611D01*
X2357735Y8632097D01*
X2266297Y8768944D01*
X10500000Y8768944D01*
X10500000Y8631056D01*
X10526901Y8495818D01*
X10579668Y8368426D01*
X10656274Y8253776D01*
X10753776Y8156274D01*
X10868426Y8079668D01*
X10995818Y8026901D01*
X11131056Y8000000D01*
X11268944Y8000000D01*
X11404182Y8026901D01*
X11531574Y8079668D01*
X11646224Y8156274D01*
X11743726Y8253776D01*
X11820332Y8368426D01*
X11873099Y8495818D01*
X11900000Y8631056D01*
X11900000Y8768944D01*
X11873099Y8904182D01*
X11820332Y9031574D01*
X11743726Y9146224D01*
X11700000Y9189950D01*
X11700000Y9592895D01*
X12507106Y10400000D01*
X12568944Y10400000D01*
X12704182Y10426901D01*
X12831574Y10479668D01*
X12946224Y10556274D01*
X13043726Y10653776D01*
X13120332Y10768426D01*
X13173099Y10895818D01*
X13200000Y11031056D01*
X13200000Y11168944D01*
X13173099Y11304182D01*
X13120332Y11431574D01*
X13043726Y11546224D01*
X12946224Y11643726D01*
X12831574Y11720332D01*
X12704182Y11773099D01*
X12568944Y11800000D01*
X12431056Y11800000D01*
X12295818Y11773099D01*
X12168426Y11720332D01*
X12053776Y11643726D01*
X11956274Y11546224D01*
X11879668Y11431574D01*
X11826901Y11304182D01*
X11800000Y11168944D01*
X11800000Y11107106D01*
X10863824Y10170929D01*
X10844736Y10155264D01*
X10782254Y10079129D01*
X10735825Y9992266D01*
X10727554Y9965000D01*
X10707235Y9898017D01*
X10697581Y9800000D01*
X10700000Y9775439D01*
X10700001Y9189951D01*
X10656274Y9146224D01*
X10579668Y9031574D01*
X10526901Y8904182D01*
X10500000Y8768944D01*
X2266297Y8768944D01*
X2220938Y8836828D01*
X2046828Y9010938D01*
X1842097Y9147735D01*
X1614611Y9241963D01*
X1373114Y9290000D01*
X1126886Y9290000D01*
X885389Y9241963D01*
X657903Y9147735D01*
X453172Y9010938D01*
X425000Y8982766D01*
X425000Y9328065D01*
X2100000Y9328065D01*
X2178414Y9335788D01*
X2253814Y9358660D01*
X2323303Y9395803D01*
X2384211Y9445789D01*
X2434197Y9506697D01*
X2471340Y9576186D01*
X2494212Y9651586D01*
X2501935Y9730000D01*
X2501935Y11430000D01*
X2494212Y11508414D01*
X2471340Y11583814D01*
X2434197Y11653303D01*
X2384211Y11714211D01*
X2323303Y11764197D01*
X2253814Y11801340D01*
X2178414Y11824212D01*
X2100000Y11831935D01*
X432975Y11831935D01*
X1785763Y13184722D01*
X1801974Y13198026D01*
X1855084Y13262740D01*
X1894548Y13336573D01*
X1918850Y13416686D01*
X1925000Y13479126D01*
X1925000Y13479132D01*
X1927055Y13499999D01*
X1925000Y13520866D01*
X1925000Y18323960D01*
X3176041Y19575000D01*
X3358230Y19575000D01*
X3315803Y19523303D01*
%TA.AperFunction,Conductor*%
D21*
G36*
X3315803Y19523303D02*
G01*
X3278660Y19453814D01*
X3255788Y19378414D01*
X3248065Y19300000D01*
X3248065Y18300000D01*
X3255788Y18221586D01*
X3278660Y18146186D01*
X3315803Y18076697D01*
X3365789Y18015789D01*
X3426697Y17965803D01*
X3496186Y17928660D01*
X3571586Y17905788D01*
X3650000Y17898065D01*
X4650001Y17898065D01*
X4650001Y17727017D01*
X4647340Y17700000D01*
X4650001Y17672982D01*
X4657959Y17592181D01*
X4679449Y17521340D01*
X4689409Y17488506D01*
X4740479Y17392958D01*
X4791987Y17330196D01*
X4791993Y17330190D01*
X4809211Y17309210D01*
X4830191Y17291992D01*
X5222388Y16899794D01*
X5210738Y16904620D01*
X5075500Y16931521D01*
X4937612Y16931521D01*
X4802374Y16904620D01*
X4674982Y16851853D01*
X4569722Y16781521D01*
X4458529Y16781521D01*
X4431521Y16784181D01*
X4404513Y16781521D01*
X4404503Y16781521D01*
X4323702Y16773563D01*
X4220027Y16742113D01*
X4134103Y16696186D01*
X4124479Y16691042D01*
X4061716Y16639534D01*
X4061711Y16639529D01*
X4040731Y16622311D01*
X4023513Y16601331D01*
X3824117Y16401935D01*
X3200000Y16401935D01*
X3121586Y16394212D01*
X3046186Y16371340D01*
X2976697Y16334197D01*
X2915789Y16284211D01*
X2865803Y16223303D01*
X2828660Y16153814D01*
X2805788Y16078414D01*
X2798065Y16000000D01*
X2798065Y15000000D01*
X2805788Y14921586D01*
X2828660Y14846186D01*
X2865803Y14776697D01*
X2915789Y14715789D01*
X2976697Y14665803D01*
X3046186Y14628660D01*
X3121586Y14605788D01*
X3200000Y14598065D01*
X4200000Y14598065D01*
X4278414Y14605788D01*
X4353814Y14628660D01*
X4423303Y14665803D01*
X4484211Y14715789D01*
X4534197Y14776697D01*
X4571340Y14846186D01*
X4594212Y14921586D01*
X4601935Y15000000D01*
X4601935Y15624117D01*
X4623443Y15645626D01*
X4674982Y15611189D01*
X4802374Y15558422D01*
X4937612Y15531521D01*
X5075500Y15531521D01*
X5210738Y15558422D01*
X5298065Y15594594D01*
X5298065Y15000000D01*
X5305788Y14921586D01*
X5328660Y14846186D01*
X5365803Y14776697D01*
X5415789Y14715789D01*
X5476697Y14665803D01*
X5546186Y14628660D01*
X5621586Y14605788D01*
X5700000Y14598065D01*
X6700000Y14598065D01*
X6778414Y14605788D01*
X6853814Y14628660D01*
X6923303Y14665803D01*
X6984211Y14715789D01*
X7034197Y14776697D01*
X7054766Y14815178D01*
X7131068Y14800000D01*
X7268956Y14800000D01*
X7404194Y14826901D01*
X7531586Y14879668D01*
X7646236Y14956274D01*
X7743738Y15053776D01*
X7820344Y15168426D01*
X7873111Y15295818D01*
X7900012Y15431056D01*
X7900012Y15568944D01*
X7873111Y15704182D01*
X7820344Y15831574D01*
X7743738Y15946224D01*
X7739962Y15950000D01*
X8000000Y15950000D01*
X8000000Y15849998D01*
X8049998Y15849998D01*
X8000000Y15800000D01*
X8011806Y15717638D01*
X8048930Y15605430D01*
X8107232Y15502621D01*
X8184471Y15413162D01*
X8277678Y15340490D01*
X8383272Y15287398D01*
X8497195Y15255927D01*
X8615068Y15247285D01*
X9000000Y15250000D01*
X9150000Y15400000D01*
X9150000Y15948065D01*
X9450000Y15948065D01*
X9450000Y15400000D01*
X9600000Y15250000D01*
X9984932Y15247285D01*
X10102805Y15255927D01*
X10216728Y15287398D01*
X10322322Y15340490D01*
X10415529Y15413162D01*
X10492768Y15502621D01*
X10551070Y15605430D01*
X10588194Y15717638D01*
X10600000Y15800000D01*
X10450000Y15950000D01*
X10019647Y15950000D01*
X10078414Y15955788D01*
X10153814Y15978660D01*
X10223303Y16015803D01*
X10264972Y16050000D01*
X10450000Y16050000D01*
X10600000Y16200000D01*
X10588194Y16282362D01*
X10578928Y16310369D01*
X10631056Y16300000D01*
X10768944Y16300000D01*
X10904182Y16326901D01*
X11031574Y16379668D01*
X11146224Y16456274D01*
X11243726Y16553776D01*
X11320332Y16668426D01*
X11373099Y16795818D01*
X11400000Y16931056D01*
X11400000Y17068944D01*
X11373099Y17204182D01*
X11333411Y17300000D01*
X11947340Y17300000D01*
X11950000Y17272992D01*
X11950000Y16747006D01*
X11947340Y16719998D01*
X11950000Y16692990D01*
X11950000Y16692980D01*
X11957958Y16612179D01*
X11981121Y16535825D01*
X11989409Y16508504D01*
X12040479Y16412956D01*
X12091987Y16350194D01*
X12091993Y16350188D01*
X12109211Y16329208D01*
X12130191Y16311990D01*
X12311985Y16130196D01*
X12329208Y16109210D01*
X12350194Y16091987D01*
X12412076Y16041201D01*
X12412956Y16040479D01*
X12508504Y15989408D01*
X12598065Y15962240D01*
X12598065Y15850000D01*
X12605788Y15771586D01*
X12628660Y15696186D01*
X12665803Y15626697D01*
X12715789Y15565789D01*
X12776697Y15515803D01*
X12846186Y15478660D01*
X12921586Y15455788D01*
X13000000Y15448065D01*
X14174118Y15448065D01*
X14858832Y14763350D01*
X14849999Y14718943D01*
X14849999Y14581055D01*
X14876900Y14445817D01*
X14929667Y14318425D01*
X15006273Y14203775D01*
X15103775Y14106273D01*
X15218425Y14029667D01*
X15345817Y13976900D01*
X15481055Y13949999D01*
X15618943Y13949999D01*
X15754181Y13976900D01*
X15881573Y14029667D01*
X15996223Y14106273D01*
X16093725Y14203775D01*
X16170331Y14318425D01*
X16223098Y14445817D01*
X16249999Y14581055D01*
X16249999Y14718943D01*
X16223098Y14854181D01*
X16170331Y14981573D01*
X16093725Y15096223D01*
X16036786Y15153162D01*
X16055851Y15165901D01*
X16153353Y15263403D01*
X16229959Y15378053D01*
X16282726Y15505445D01*
X16309627Y15640683D01*
X16309627Y15778571D01*
X16282726Y15913809D01*
X16229959Y16041201D01*
X16153353Y16155851D01*
X16055851Y16253353D01*
X15941201Y16329959D01*
X15813809Y16382726D01*
X15689648Y16407424D01*
X15348261Y16748810D01*
X15883358Y17472759D01*
X15904182Y17476901D01*
X16005683Y17518944D01*
X16550000Y17518944D01*
X16550000Y17381056D01*
X16575000Y17255375D01*
X16575000Y16475780D01*
X16572461Y16450000D01*
X16575000Y16424220D01*
X16575000Y16424212D01*
X16577920Y16394570D01*
X16582597Y16347083D01*
X16612617Y16248120D01*
X16658341Y16162577D01*
X16661368Y16156914D01*
X16725000Y16079378D01*
X16725001Y12875790D01*
X16722461Y12850000D01*
X16732597Y12747083D01*
X16762617Y12648120D01*
X16811367Y12556915D01*
X16811368Y12556914D01*
X16876974Y12476973D01*
X16897005Y12460534D01*
X16900000Y12457539D01*
X16900000Y12431056D01*
X16926901Y12295818D01*
X16979668Y12168426D01*
X17056274Y12053776D01*
X17153776Y11956274D01*
X17268426Y11879668D01*
X17395818Y11826901D01*
X17531056Y11800000D01*
X17668944Y11800000D01*
X17804182Y11826901D01*
X17931574Y11879668D01*
X18046224Y11956274D01*
X18143726Y12053776D01*
X18220332Y12168426D01*
X18273099Y12295818D01*
X18300000Y12431056D01*
X18300000Y12568944D01*
X18273099Y12704182D01*
X18220332Y12831574D01*
X18143726Y12946224D01*
X18046224Y13043726D01*
X17931574Y13120332D01*
X17804182Y13173099D01*
X17775000Y13178904D01*
X17775000Y16274221D01*
X17777539Y16300001D01*
X17775000Y16325781D01*
X17775000Y16325788D01*
X17767403Y16402918D01*
X17737383Y16501881D01*
X17688633Y16593086D01*
X17625000Y16670623D01*
X17625000Y16858684D01*
X17696224Y16906274D01*
X17793726Y17003776D01*
X17870332Y17118426D01*
X17923099Y17245818D01*
X17950000Y17381056D01*
X17950000Y17518944D01*
X17923099Y17654182D01*
X17870332Y17781574D01*
X17793726Y17896224D01*
X17696224Y17993726D01*
X17581574Y18070332D01*
X17454182Y18123099D01*
X17318944Y18150000D01*
X17181056Y18150000D01*
X17045818Y18123099D01*
X16918426Y18070332D01*
X16803776Y17993726D01*
X16706274Y17896224D01*
X16629668Y17781574D01*
X16576901Y17654182D01*
X16550000Y17518944D01*
X16005683Y17518944D01*
X16031574Y17529668D01*
X16146224Y17606274D01*
X16243726Y17703776D01*
X16320332Y17818426D01*
X16373099Y17945818D01*
X16400000Y18081056D01*
X16400000Y18218944D01*
X16373099Y18354182D01*
X16320332Y18481574D01*
X16243726Y18596224D01*
X16146224Y18693726D01*
X16031574Y18770332D01*
X15904182Y18823099D01*
X15768944Y18850000D01*
X15631056Y18850000D01*
X15495818Y18823099D01*
X15368426Y18770332D01*
X15253776Y18693726D01*
X15156274Y18596224D01*
X15079668Y18481574D01*
X15026901Y18354182D01*
X15000000Y18218944D01*
X15000000Y18128261D01*
X14801935Y17860292D01*
X14801935Y18150000D01*
X14794212Y18228414D01*
X14771340Y18303814D01*
X14734197Y18373303D01*
X14684211Y18434211D01*
X14623303Y18484197D01*
X14553814Y18521340D01*
X14478414Y18544212D01*
X14400000Y18551935D01*
X14384262Y18551935D01*
X14400000Y18631056D01*
X14400000Y18768944D01*
X14373099Y18904182D01*
X14320332Y19031574D01*
X14243726Y19146224D01*
X14146224Y19243726D01*
X14031574Y19320332D01*
X13904182Y19373099D01*
X13768944Y19400000D01*
X13631056Y19400000D01*
X13495818Y19373099D01*
X13368426Y19320332D01*
X13253776Y19243726D01*
X13156274Y19146224D01*
X13079668Y19031574D01*
X13026901Y18904182D01*
X13000000Y18768944D01*
X13000000Y18631056D01*
X13015738Y18551935D01*
X13000000Y18551935D01*
X12921586Y18544212D01*
X12846186Y18521340D01*
X12776697Y18484197D01*
X12715789Y18434211D01*
X12665803Y18373303D01*
X12628660Y18303814D01*
X12605788Y18228414D01*
X12598065Y18150000D01*
X12598065Y18042622D01*
X12592181Y18042042D01*
X12488506Y18010592D01*
X12392958Y17959521D01*
X12309210Y17890790D01*
X12291983Y17869800D01*
X12130197Y17708014D01*
X12109210Y17690790D01*
X12040479Y17607042D01*
X11989408Y17511493D01*
X11957958Y17407818D01*
X11950000Y17327017D01*
X11950000Y17327008D01*
X11947340Y17300000D01*
X11333411Y17300000D01*
X11320332Y17331574D01*
X11243726Y17446224D01*
X11146224Y17543726D01*
X11031574Y17620332D01*
X10904182Y17673099D01*
X10768944Y17700000D01*
X10631056Y17700000D01*
X10592289Y17692289D01*
X10600000Y17700000D01*
X10588194Y17782362D01*
X10551070Y17894570D01*
X10497008Y17989902D01*
X10607106Y18100000D01*
X10668944Y18100000D01*
X10804182Y18126901D01*
X10931574Y18179668D01*
X11046224Y18256274D01*
X11143726Y18353776D01*
X11220332Y18468426D01*
X11273099Y18595818D01*
X11300000Y18731056D01*
X11300000Y18868944D01*
X11273099Y19004182D01*
X11220332Y19131574D01*
X11143726Y19246224D01*
X11046224Y19343726D01*
X10931574Y19420332D01*
X10804182Y19473099D01*
X10668944Y19500000D01*
X10531056Y19500000D01*
X10395818Y19473099D01*
X10268426Y19420332D01*
X10153776Y19343726D01*
X10056274Y19246224D01*
X9979668Y19131574D01*
X9926901Y19004182D01*
X9900000Y18868944D01*
X9900000Y18807106D01*
X9644829Y18551935D01*
X8600000Y18551935D01*
X8521586Y18544212D01*
X8446186Y18521340D01*
X8376697Y18484197D01*
X8315789Y18434211D01*
X8265803Y18373303D01*
X8228660Y18303814D01*
X8205788Y18228414D01*
X8198065Y18150000D01*
X8198065Y18097437D01*
X8184471Y18086838D01*
X8107232Y17997379D01*
X8048930Y17894570D01*
X8011806Y17782362D01*
X8000000Y17700000D01*
X8150000Y17550000D01*
X8335028Y17550000D01*
X8376697Y17515803D01*
X8406262Y17500000D01*
X8376697Y17484197D01*
X8335028Y17450000D01*
X8150000Y17450000D01*
X8000000Y17300000D01*
X8011806Y17217638D01*
X8048930Y17105430D01*
X8080364Y17050000D01*
X7068944Y17050000D01*
X7204182Y17076901D01*
X7331574Y17129668D01*
X7446224Y17206274D01*
X7543726Y17303776D01*
X7620332Y17418426D01*
X7673099Y17545818D01*
X7700000Y17681056D01*
X7700000Y17818944D01*
X7673099Y17954182D01*
X7620332Y18081574D01*
X7543726Y18196224D01*
X7538196Y18201754D01*
X7544212Y18221586D01*
X7551935Y18300000D01*
X7551935Y19300000D01*
X7544212Y19378414D01*
X7521340Y19453814D01*
X7484197Y19523303D01*
X7441770Y19575000D01*
X16823960Y19575000D01*
X18075000Y18323959D01*
X18075001Y13520877D01*
X18072945Y13500000D01*
X18081150Y13416686D01*
X18105207Y13337383D01*
X18105453Y13336573D01*
X18144917Y13262740D01*
X18198027Y13198026D01*
X18214239Y13184721D01*
X19567024Y11831935D01*
X17900000Y11831935D01*
X17821586Y11824212D01*
X17746186Y11801340D01*
X17676697Y11764197D01*
X17615789Y11714211D01*
X17565803Y11653303D01*
X17528660Y11583814D01*
X17505788Y11508414D01*
X17498065Y11430000D01*
X17498065Y11350190D01*
X17407372Y11322679D01*
X17350478Y11292268D01*
X17268393Y11248393D01*
X17207010Y11198017D01*
X17146578Y11148422D01*
X17121531Y11117902D01*
X16562098Y10558468D01*
X16531579Y10533422D01*
X16506532Y10502902D01*
X16506531Y10502901D01*
X16431607Y10411606D01*
X16357321Y10272627D01*
X16311577Y10121827D01*
X16296130Y9965000D01*
X16300001Y9925700D01*
X16300000Y6860708D01*
X16311576Y6743174D01*
X16357321Y6592373D01*
X16431607Y6453395D01*
X16531578Y6331578D01*
X16653394Y6231607D01*
X16792372Y6157321D01*
X16943173Y6111576D01*
X17100000Y6096130D01*
X17256826Y6111576D01*
X17407627Y6157321D01*
X17481650Y6196887D01*
X17377452Y5967582D01*
X17349000Y5873766D01*
X17458683Y5650000D01*
X18600000Y5650000D01*
X18600000Y5670000D01*
X18900000Y5670000D01*
X18900000Y5650000D01*
X18920000Y5650000D01*
X18920000Y5350000D01*
X18900000Y5350000D01*
X18900000Y4207774D01*
X19039109Y4140149D01*
X18214243Y3315283D01*
X18198026Y3301974D01*
X18144916Y3237259D01*
X18105452Y3163426D01*
X18092760Y3121586D01*
X18081151Y3083315D01*
X18081150Y3083313D01*
X18075000Y3020873D01*
X18075000Y3020867D01*
X18072945Y3000000D01*
X18075000Y2979133D01*
X18075001Y1676042D01*
X16823960Y425000D01*
X12521935Y425000D01*
X12521935Y2050000D01*
X12514212Y2128414D01*
X12491340Y2203814D01*
X12454197Y2273303D01*
X12404211Y2334211D01*
X12343303Y2384197D01*
X12273814Y2421340D01*
X12198414Y2444212D01*
X12120000Y2451935D01*
X10420000Y2451935D01*
X10341586Y2444212D01*
X10266186Y2421340D01*
X10196697Y2384197D01*
X10135789Y2334211D01*
X10085803Y2273303D01*
X10048660Y2203814D01*
X10025788Y2128414D01*
X10018065Y2050000D01*
X10018065Y1861029D01*
X9881326Y2081457D01*
X9687240Y2289133D01*
X9456368Y2454954D01*
X9197582Y2572548D01*
X9103766Y2601000D01*
X8880000Y2491317D01*
X8880000Y1350000D01*
X8900000Y1350000D01*
X8900000Y1050000D01*
X8880000Y1050000D01*
X8880000Y1030000D01*
X8580000Y1030000D01*
X8580000Y1050000D01*
X7437774Y1050000D01*
X7328995Y826233D01*
X7428833Y560092D01*
X7512635Y425000D01*
X3176041Y425000D01*
X2027274Y1573767D01*
X7328995Y1573767D01*
X7437774Y1350000D01*
X8580000Y1350000D01*
X8580000Y2491317D01*
X8356234Y2601000D01*
X8262418Y2572548D01*
X8003632Y2454954D01*
X7772760Y2289133D01*
X7578674Y2081457D01*
X7428833Y1839908D01*
X7328995Y1573767D01*
X2027274Y1573767D01*
X1925000Y1676040D01*
X1925000Y2979134D01*
X1927055Y3000001D01*
X1925000Y3020868D01*
X1925000Y3020874D01*
X1918850Y3083314D01*
X1894548Y3163427D01*
X1855084Y3237260D01*
X1801974Y3301974D01*
X1785763Y3315278D01*
X960891Y4140149D01*
X1100000Y4207774D01*
X1100000Y5350000D01*
X1400000Y5350000D01*
X1400000Y4207774D01*
X1623767Y4098995D01*
X1889908Y4198833D01*
X2131457Y4348674D01*
X2339133Y4542760D01*
X2504954Y4773632D01*
X2622548Y5032418D01*
X2651000Y5126234D01*
X2541317Y5350000D01*
X1400000Y5350000D01*
X1100000Y5350000D01*
X1080000Y5350000D01*
X1080000Y5650000D01*
X1100000Y5650000D01*
X1100000Y5670000D01*
X1400000Y5670000D01*
X1400000Y5650000D01*
X2541317Y5650000D01*
X2651000Y5873766D01*
X2635463Y5925000D01*
X4097097Y5925000D01*
X4108682Y5807379D01*
X4142990Y5694279D01*
X4198704Y5590045D01*
X4273683Y5498683D01*
X4365045Y5423704D01*
X4469279Y5367990D01*
X4582379Y5333682D01*
X4700000Y5322097D01*
X4937500Y5325000D01*
X5087500Y5475000D01*
X5087500Y6250000D01*
X4250000Y6250000D01*
X4100000Y6100000D01*
X4097097Y5925000D01*
X2635463Y5925000D01*
X2622548Y5967582D01*
X2504954Y6226368D01*
X2339133Y6457240D01*
X2131457Y6651326D01*
X1889908Y6801167D01*
X1698735Y6872882D01*
X1703848Y6875000D01*
X4097097Y6875000D01*
X4100000Y6700000D01*
X4250000Y6550000D01*
X5087500Y6550000D01*
X5087500Y7325000D01*
X5387500Y7325000D01*
X5387500Y6550000D01*
X5407500Y6550000D01*
X5407500Y6250000D01*
X5387500Y6250000D01*
X5387500Y5475000D01*
X5537500Y5325000D01*
X5775000Y5322097D01*
X5892621Y5333682D01*
X6005721Y5367990D01*
X6109955Y5423704D01*
X6201317Y5498683D01*
X6276296Y5590045D01*
X6300000Y5634393D01*
X6300000Y5231056D01*
X6306741Y5197168D01*
X6310128Y5162777D01*
X6320160Y5129705D01*
X6326901Y5095818D01*
X6340123Y5063897D01*
X6350155Y5030826D01*
X6366445Y5000350D01*
X6379668Y4968426D01*
X6398867Y4939692D01*
X6415155Y4909220D01*
X6437072Y4882513D01*
X6456274Y4853776D01*
X6480713Y4829337D01*
X6502630Y4802631D01*
X6529337Y4780713D01*
X6553776Y4756274D01*
X6582510Y4737075D01*
X6609219Y4715155D01*
X6639696Y4698865D01*
X6668426Y4679668D01*
X6700346Y4666446D01*
X6730825Y4650155D01*
X6763900Y4640122D01*
X6795818Y4626901D01*
X6829702Y4620161D01*
X6862776Y4610128D01*
X6897169Y4606741D01*
X6931056Y4600000D01*
X6965610Y4600000D01*
X7000000Y4596613D01*
X7034390Y4600000D01*
X7068944Y4600000D01*
X7102832Y4606741D01*
X7137223Y4610128D01*
X7170295Y4620160D01*
X7204182Y4626901D01*
X7236103Y4640123D01*
X7269174Y4650155D01*
X7299650Y4666445D01*
X7331574Y4679668D01*
X7360308Y4698867D01*
X7390780Y4715155D01*
X7417487Y4737072D01*
X7446224Y4756274D01*
X7470663Y4780713D01*
X7497369Y4802630D01*
X7498065Y4803478D01*
X7498065Y3200000D01*
X7505788Y3121586D01*
X7528660Y3046186D01*
X7565803Y2976697D01*
X7615789Y2915789D01*
X7676697Y2865803D01*
X7746186Y2828660D01*
X7821586Y2805788D01*
X7900000Y2798065D01*
X9300000Y2798065D01*
X9378414Y2805788D01*
X9453814Y2828660D01*
X9523303Y2865803D01*
X9564972Y2900000D01*
X10435028Y2900000D01*
X10476697Y2865803D01*
X10546186Y2828660D01*
X10621586Y2805788D01*
X10700000Y2798065D01*
X12100000Y2798065D01*
X12178414Y2805788D01*
X12253814Y2828660D01*
X12323303Y2865803D01*
X12384211Y2915789D01*
X12434197Y2976697D01*
X12471340Y3046186D01*
X12494212Y3121586D01*
X12501935Y3200000D01*
X12501935Y5126234D01*
X17349000Y5126234D01*
X17377452Y5032418D01*
X17495046Y4773632D01*
X17660867Y4542760D01*
X17868543Y4348674D01*
X18110092Y4198833D01*
X18376233Y4098995D01*
X18600000Y4207774D01*
X18600000Y5350000D01*
X17458683Y5350000D01*
X17349000Y5126234D01*
X12501935Y5126234D01*
X12501935Y5706652D01*
X12537224Y5710128D01*
X12669175Y5750155D01*
X12790781Y5815155D01*
X12897370Y5902630D01*
X12919296Y5929347D01*
X13146221Y6156272D01*
X13146224Y6156274D01*
X13243726Y6253776D01*
X13262925Y6282510D01*
X13284845Y6309219D01*
X13301135Y6339696D01*
X13320332Y6368426D01*
X13333554Y6400346D01*
X13349845Y6430825D01*
X13359877Y6463898D01*
X13373099Y6495818D01*
X13379840Y6529707D01*
X13389871Y6562775D01*
X13393258Y6597162D01*
X13400000Y6631056D01*
X13400000Y6665612D01*
X13403387Y6699999D01*
X13400000Y6734386D01*
X13400000Y6768944D01*
X13393258Y6802840D01*
X13389871Y6837223D01*
X13379841Y6870288D01*
X13373099Y6904182D01*
X13359876Y6936105D01*
X13349845Y6969174D01*
X13333555Y6999651D01*
X13320332Y7031574D01*
X13301135Y7060305D01*
X13284845Y7090781D01*
X13262926Y7117489D01*
X13243726Y7146224D01*
X13219284Y7170666D01*
X13197369Y7197369D01*
X13170666Y7219284D01*
X13146224Y7243726D01*
X13117489Y7262926D01*
X13090781Y7284845D01*
X13060305Y7301135D01*
X13031574Y7320332D01*
X12999651Y7333555D01*
X12969174Y7349845D01*
X12936105Y7359876D01*
X12904182Y7373099D01*
X12870288Y7379841D01*
X12837223Y7389871D01*
X12802840Y7393258D01*
X12768944Y7400000D01*
X12734386Y7400000D01*
X12699999Y7403387D01*
X12665612Y7400000D01*
X12631056Y7400000D01*
X12597162Y7393258D01*
X12562775Y7389871D01*
X12529707Y7379840D01*
X12495818Y7373099D01*
X12463898Y7359877D01*
X12430825Y7349845D01*
X12400346Y7333554D01*
X12368426Y7320332D01*
X12352866Y7309935D01*
X12323303Y7334197D01*
X12253814Y7371340D01*
X12178414Y7394212D01*
X12100000Y7401935D01*
X10700000Y7401935D01*
X10621586Y7394212D01*
X10546186Y7371340D01*
X10476697Y7334197D01*
X10435028Y7300000D01*
X9564972Y7300000D01*
X9523303Y7334197D01*
X9453814Y7371340D01*
X9378414Y7394212D01*
X9300000Y7401935D01*
X7900000Y7401935D01*
X7821586Y7394212D01*
X7746186Y7371340D01*
X7676697Y7334197D01*
X7615789Y7284211D01*
X7565803Y7223303D01*
X7554842Y7202796D01*
X7507201Y7228261D01*
X7387248Y7264648D01*
X7262500Y7276935D01*
X6662500Y7276935D01*
X6537752Y7264648D01*
X6417799Y7228261D01*
X6307249Y7169171D01*
X6300886Y7163949D01*
X6276296Y7209955D01*
X6201317Y7301317D01*
X6109955Y7376296D01*
X6005721Y7432010D01*
X5892621Y7466318D01*
X5775000Y7477903D01*
X5537500Y7475000D01*
X5387500Y7325000D01*
X5087500Y7325000D01*
X4937500Y7475000D01*
X4700000Y7477903D01*
X4582379Y7466318D01*
X4469279Y7432010D01*
X4365045Y7376296D01*
X4273683Y7301317D01*
X4198704Y7209955D01*
X4142990Y7105721D01*
X4108682Y6992621D01*
X4097097Y6875000D01*
X1703848Y6875000D01*
X1842097Y6932265D01*
X2046828Y7069062D01*
X2220938Y7243172D01*
X2357735Y7447903D01*
X2451963Y7675389D01*
X2500000Y7916886D01*
X2500000Y8163114D01*
X2451963Y8404611D01*
X2357735Y8632097D01*
X2266297Y8768944D01*
X10500000Y8768944D01*
X10500000Y8631056D01*
X10526901Y8495818D01*
X10579668Y8368426D01*
X10656274Y8253776D01*
X10753776Y8156274D01*
X10868426Y8079668D01*
X10995818Y8026901D01*
X11131056Y8000000D01*
X11268944Y8000000D01*
X11404182Y8026901D01*
X11531574Y8079668D01*
X11646224Y8156274D01*
X11743726Y8253776D01*
X11820332Y8368426D01*
X11873099Y8495818D01*
X11900000Y8631056D01*
X11900000Y8768944D01*
X11873099Y8904182D01*
X11820332Y9031574D01*
X11743726Y9146224D01*
X11700000Y9189950D01*
X11700000Y9592895D01*
X12507106Y10400000D01*
X12568944Y10400000D01*
X12704182Y10426901D01*
X12831574Y10479668D01*
X12946224Y10556274D01*
X13043726Y10653776D01*
X13120332Y10768426D01*
X13173099Y10895818D01*
X13200000Y11031056D01*
X13200000Y11168944D01*
X13173099Y11304182D01*
X13120332Y11431574D01*
X13043726Y11546224D01*
X12946224Y11643726D01*
X12831574Y11720332D01*
X12704182Y11773099D01*
X12568944Y11800000D01*
X12431056Y11800000D01*
X12295818Y11773099D01*
X12168426Y11720332D01*
X12053776Y11643726D01*
X11956274Y11546224D01*
X11879668Y11431574D01*
X11826901Y11304182D01*
X11800000Y11168944D01*
X11800000Y11107106D01*
X10863824Y10170929D01*
X10844736Y10155264D01*
X10782254Y10079129D01*
X10735825Y9992266D01*
X10727554Y9965000D01*
X10707235Y9898017D01*
X10697581Y9800000D01*
X10700000Y9775439D01*
X10700001Y9189951D01*
X10656274Y9146224D01*
X10579668Y9031574D01*
X10526901Y8904182D01*
X10500000Y8768944D01*
X2266297Y8768944D01*
X2220938Y8836828D01*
X2046828Y9010938D01*
X1842097Y9147735D01*
X1614611Y9241963D01*
X1373114Y9290000D01*
X1126886Y9290000D01*
X885389Y9241963D01*
X657903Y9147735D01*
X453172Y9010938D01*
X425000Y8982766D01*
X425000Y9328065D01*
X2100000Y9328065D01*
X2178414Y9335788D01*
X2253814Y9358660D01*
X2323303Y9395803D01*
X2384211Y9445789D01*
X2434197Y9506697D01*
X2471340Y9576186D01*
X2494212Y9651586D01*
X2501935Y9730000D01*
X2501935Y11430000D01*
X2494212Y11508414D01*
X2471340Y11583814D01*
X2434197Y11653303D01*
X2384211Y11714211D01*
X2323303Y11764197D01*
X2253814Y11801340D01*
X2178414Y11824212D01*
X2100000Y11831935D01*
X432975Y11831935D01*
X1785763Y13184722D01*
X1801974Y13198026D01*
X1855084Y13262740D01*
X1894548Y13336573D01*
X1918850Y13416686D01*
X1925000Y13479126D01*
X1925000Y13479132D01*
X1927055Y13499999D01*
X1925000Y13520866D01*
X1925000Y18323960D01*
X3176041Y19575000D01*
X3358230Y19575000D01*
X3315803Y19523303D01*
G37*
%TD.AperFunction*%
%TD*%
M02*
