%TF.GenerationSoftware,KiCad,Pcbnew,5.99.0+really5.1.10+dfsg1-1*%
%TF.CreationDate,2021-11-14T15:35:52+01:00*%
%TF.ProjectId,GBPOCKET_DCDC,4742504f-434b-4455-945f-444344432e6b,Rev1*%
%TF.SameCoordinates,PX7102aa0PY5f5e100*%
%TF.FileFunction,Copper,L1,Top*%
%TF.FilePolarity,Positive*%
%FSLAX46Y46*%
G04 Gerber Fmt 4.6, Leading zero omitted, Abs format (unit mm)*
G04 Created by KiCad (PCBNEW 5.99.0+really5.1.10+dfsg1-1) date 2021-11-14 15:35:52*
%MOMM*%
%LPD*%
G01*
G04 APERTURE LIST*
%TA.AperFunction,ComponentPad*%
%ADD10O,1.700000X1.700000*%
%TD*%
%TA.AperFunction,ComponentPad*%
%ADD11R,1.700000X1.700000*%
%TD*%
%TA.AperFunction,SMDPad,CuDef*%
%ADD12R,1.560000X0.650000*%
%TD*%
%TA.AperFunction,ViaPad*%
%ADD13C,0.600000*%
%TD*%
%TA.AperFunction,Conductor*%
%ADD14C,0.500000*%
%TD*%
%TA.AperFunction,Conductor*%
%ADD15C,0.600000*%
%TD*%
%TA.AperFunction,Conductor*%
%ADD16C,0.400000*%
%TD*%
%TA.AperFunction,Conductor*%
%ADD17C,0.250000*%
%TD*%
%TA.AperFunction,Conductor*%
%ADD18C,0.300000*%
%TD*%
%TA.AperFunction,Conductor*%
%ADD19C,0.800000*%
%TD*%
%TA.AperFunction,Conductor*%
%ADD20C,0.200000*%
%TD*%
%TA.AperFunction,Conductor*%
%ADD21C,0.100000*%
%TD*%
G04 APERTURE END LIST*
D10*
%TO.P,J3,2*%
%TO.N,GND*%
X8730000Y1200000D03*
D11*
%TO.P,J3,1*%
%TO.N,Net-(J3-Pad1)*%
X11270000Y1200000D03*
%TD*%
%TO.P,FB1,2*%
%TO.N,+BATT*%
%TA.AperFunction,SMDPad,CuDef*%
G36*
G01*
X8050001Y9950000D02*
X7149999Y9950000D01*
G75*
G02*
X6900000Y10199999I0J249999D01*
G01*
X6900000Y10850001D01*
G75*
G02*
X7149999Y11100000I249999J0D01*
G01*
X8050001Y11100000D01*
G75*
G02*
X8300000Y10850001I0J-249999D01*
G01*
X8300000Y10199999D01*
G75*
G02*
X8050001Y9950000I-249999J0D01*
G01*
G37*
%TD.AperFunction*%
%TO.P,FB1,1*%
%TO.N,+VSW*%
%TA.AperFunction,SMDPad,CuDef*%
G36*
G01*
X8050001Y7900000D02*
X7149999Y7900000D01*
G75*
G02*
X6900000Y8149999I0J249999D01*
G01*
X6900000Y8800001D01*
G75*
G02*
X7149999Y9050000I249999J0D01*
G01*
X8050001Y9050000D01*
G75*
G02*
X8300000Y8800001I0J-249999D01*
G01*
X8300000Y8149999D01*
G75*
G02*
X8050001Y7900000I-249999J0D01*
G01*
G37*
%TD.AperFunction*%
%TD*%
%TO.P,C12,2*%
%TO.N,GND*%
%TA.AperFunction,SMDPad,CuDef*%
G36*
G01*
X6250000Y7075000D02*
X6250000Y6125000D01*
G75*
G02*
X6000000Y5875000I-250000J0D01*
G01*
X5325000Y5875000D01*
G75*
G02*
X5075000Y6125000I0J250000D01*
G01*
X5075000Y7075000D01*
G75*
G02*
X5325000Y7325000I250000J0D01*
G01*
X6000000Y7325000D01*
G75*
G02*
X6250000Y7075000I0J-250000D01*
G01*
G37*
%TD.AperFunction*%
%TO.P,C12,1*%
%TO.N,+VSW*%
%TA.AperFunction,SMDPad,CuDef*%
G36*
G01*
X8325000Y7075000D02*
X8325000Y6125000D01*
G75*
G02*
X8075000Y5875000I-250000J0D01*
G01*
X7400000Y5875000D01*
G75*
G02*
X7150000Y6125000I0J250000D01*
G01*
X7150000Y7075000D01*
G75*
G02*
X7400000Y7325000I250000J0D01*
G01*
X8075000Y7325000D01*
G75*
G02*
X8325000Y7075000I0J-250000D01*
G01*
G37*
%TD.AperFunction*%
%TD*%
%TO.P,R6,2*%
%TO.N,Net-(J3-Pad1)*%
%TA.AperFunction,SMDPad,CuDef*%
G36*
G01*
X14575000Y1437500D02*
X14575000Y962500D01*
G75*
G02*
X14337500Y725000I-237500J0D01*
G01*
X13837500Y725000D01*
G75*
G02*
X13600000Y962500I0J237500D01*
G01*
X13600000Y1437500D01*
G75*
G02*
X13837500Y1675000I237500J0D01*
G01*
X14337500Y1675000D01*
G75*
G02*
X14575000Y1437500I0J-237500D01*
G01*
G37*
%TD.AperFunction*%
%TO.P,R6,1*%
%TO.N,+5V*%
%TA.AperFunction,SMDPad,CuDef*%
G36*
G01*
X16400000Y1437500D02*
X16400000Y962500D01*
G75*
G02*
X16162500Y725000I-237500J0D01*
G01*
X15662500Y725000D01*
G75*
G02*
X15425000Y962500I0J237500D01*
G01*
X15425000Y1437500D01*
G75*
G02*
X15662500Y1675000I237500J0D01*
G01*
X16162500Y1675000D01*
G75*
G02*
X16400000Y1437500I0J-237500D01*
G01*
G37*
%TD.AperFunction*%
%TD*%
D10*
%TO.P,J2,3*%
%TO.N,GND*%
X1250000Y5500000D03*
%TO.P,J2,2*%
%TO.N,N/C*%
X1250000Y8040000D03*
D11*
%TO.P,J2,1*%
%TO.N,+BATT*%
X1250000Y10580000D03*
%TD*%
D12*
%TO.P,U1,5*%
%TO.N,+5V*%
X9850000Y9400000D03*
%TO.P,U1,6*%
%TO.N,+VSW*%
X9850000Y8450000D03*
%TO.P,U1,4*%
%TO.N,/FB*%
X9850000Y10350000D03*
%TO.P,U1,3*%
%TO.N,+VSW*%
X12550000Y10350000D03*
%TO.P,U1,2*%
%TO.N,GND*%
X12550000Y9400000D03*
%TO.P,U1,1*%
%TO.N,Net-(L1-Pad1)*%
X12550000Y8450000D03*
%TD*%
%TO.P,R5,2*%
%TO.N,GND*%
%TA.AperFunction,SMDPad,CuDef*%
G36*
G01*
X5075000Y14137500D02*
X5075000Y13662500D01*
G75*
G02*
X4837500Y13425000I-237500J0D01*
G01*
X4337500Y13425000D01*
G75*
G02*
X4100000Y13662500I0J237500D01*
G01*
X4100000Y14137500D01*
G75*
G02*
X4337500Y14375000I237500J0D01*
G01*
X4837500Y14375000D01*
G75*
G02*
X5075000Y14137500I0J-237500D01*
G01*
G37*
%TD.AperFunction*%
%TO.P,R5,1*%
%TO.N,/FB*%
%TA.AperFunction,SMDPad,CuDef*%
G36*
G01*
X6900000Y14137500D02*
X6900000Y13662500D01*
G75*
G02*
X6662500Y13425000I-237500J0D01*
G01*
X6162500Y13425000D01*
G75*
G02*
X5925000Y13662500I0J237500D01*
G01*
X5925000Y14137500D01*
G75*
G02*
X6162500Y14375000I237500J0D01*
G01*
X6662500Y14375000D01*
G75*
G02*
X6900000Y14137500I0J-237500D01*
G01*
G37*
%TD.AperFunction*%
%TD*%
%TO.P,R4,2*%
%TO.N,/FB*%
%TA.AperFunction,SMDPad,CuDef*%
G36*
G01*
X8475000Y14137500D02*
X8475000Y13662500D01*
G75*
G02*
X8237500Y13425000I-237500J0D01*
G01*
X7737500Y13425000D01*
G75*
G02*
X7500000Y13662500I0J237500D01*
G01*
X7500000Y14137500D01*
G75*
G02*
X7737500Y14375000I237500J0D01*
G01*
X8237500Y14375000D01*
G75*
G02*
X8475000Y14137500I0J-237500D01*
G01*
G37*
%TD.AperFunction*%
%TO.P,R4,1*%
%TO.N,+5V*%
%TA.AperFunction,SMDPad,CuDef*%
G36*
G01*
X10300000Y14137500D02*
X10300000Y13662500D01*
G75*
G02*
X10062500Y13425000I-237500J0D01*
G01*
X9562500Y13425000D01*
G75*
G02*
X9325000Y13662500I0J237500D01*
G01*
X9325000Y14137500D01*
G75*
G02*
X9562500Y14375000I237500J0D01*
G01*
X10062500Y14375000D01*
G75*
G02*
X10300000Y14137500I0J-237500D01*
G01*
G37*
%TD.AperFunction*%
%TD*%
%TO.P,R3,2*%
%TO.N,-18V*%
%TA.AperFunction,SMDPad,CuDef*%
G36*
G01*
X16462500Y8575000D02*
X16937500Y8575000D01*
G75*
G02*
X17175000Y8337500I0J-237500D01*
G01*
X17175000Y7837500D01*
G75*
G02*
X16937500Y7600000I-237500J0D01*
G01*
X16462500Y7600000D01*
G75*
G02*
X16225000Y7837500I0J237500D01*
G01*
X16225000Y8337500D01*
G75*
G02*
X16462500Y8575000I237500J0D01*
G01*
G37*
%TD.AperFunction*%
%TO.P,R3,1*%
%TO.N,Net-(R2-Pad2)*%
%TA.AperFunction,SMDPad,CuDef*%
G36*
G01*
X16462500Y10400000D02*
X16937500Y10400000D01*
G75*
G02*
X17175000Y10162500I0J-237500D01*
G01*
X17175000Y9662500D01*
G75*
G02*
X16937500Y9425000I-237500J0D01*
G01*
X16462500Y9425000D01*
G75*
G02*
X16225000Y9662500I0J237500D01*
G01*
X16225000Y10162500D01*
G75*
G02*
X16462500Y10400000I237500J0D01*
G01*
G37*
%TD.AperFunction*%
%TD*%
%TO.P,R2,2*%
%TO.N,Net-(R2-Pad2)*%
%TA.AperFunction,SMDPad,CuDef*%
G36*
G01*
X16462500Y11875000D02*
X16937500Y11875000D01*
G75*
G02*
X17175000Y11637500I0J-237500D01*
G01*
X17175000Y11137500D01*
G75*
G02*
X16937500Y10900000I-237500J0D01*
G01*
X16462500Y10900000D01*
G75*
G02*
X16225000Y11137500I0J237500D01*
G01*
X16225000Y11637500D01*
G75*
G02*
X16462500Y11875000I237500J0D01*
G01*
G37*
%TD.AperFunction*%
%TO.P,R2,1*%
%TO.N,/FB_NEG*%
%TA.AperFunction,SMDPad,CuDef*%
G36*
G01*
X16462500Y13700000D02*
X16937500Y13700000D01*
G75*
G02*
X17175000Y13462500I0J-237500D01*
G01*
X17175000Y12962500D01*
G75*
G02*
X16937500Y12725000I-237500J0D01*
G01*
X16462500Y12725000D01*
G75*
G02*
X16225000Y12962500I0J237500D01*
G01*
X16225000Y13462500D01*
G75*
G02*
X16462500Y13700000I237500J0D01*
G01*
G37*
%TD.AperFunction*%
%TD*%
%TO.P,R1,2*%
%TO.N,/FB_NEG*%
%TA.AperFunction,SMDPad,CuDef*%
G36*
G01*
X16462500Y15175000D02*
X16937500Y15175000D01*
G75*
G02*
X17175000Y14937500I0J-237500D01*
G01*
X17175000Y14437500D01*
G75*
G02*
X16937500Y14200000I-237500J0D01*
G01*
X16462500Y14200000D01*
G75*
G02*
X16225000Y14437500I0J237500D01*
G01*
X16225000Y14937500D01*
G75*
G02*
X16462500Y15175000I237500J0D01*
G01*
G37*
%TD.AperFunction*%
%TO.P,R1,1*%
%TO.N,+5V*%
%TA.AperFunction,SMDPad,CuDef*%
G36*
G01*
X16462500Y17000000D02*
X16937500Y17000000D01*
G75*
G02*
X17175000Y16762500I0J-237500D01*
G01*
X17175000Y16262500D01*
G75*
G02*
X16937500Y16025000I-237500J0D01*
G01*
X16462500Y16025000D01*
G75*
G02*
X16225000Y16262500I0J237500D01*
G01*
X16225000Y16762500D01*
G75*
G02*
X16462500Y17000000I237500J0D01*
G01*
G37*
%TD.AperFunction*%
%TD*%
D10*
%TO.P,J1,3*%
%TO.N,GND*%
X18750000Y5500000D03*
%TO.P,J1,2*%
%TO.N,-18V*%
X18750000Y8040000D03*
D11*
%TO.P,J1,1*%
%TO.N,+5V*%
X18750000Y10580000D03*
%TD*%
%TO.P,C11,2*%
%TO.N,/FB*%
%TA.AperFunction,SMDPad,CuDef*%
G36*
G01*
X8575000Y12537500D02*
X8575000Y12062500D01*
G75*
G02*
X8337500Y11825000I-237500J0D01*
G01*
X7737500Y11825000D01*
G75*
G02*
X7500000Y12062500I0J237500D01*
G01*
X7500000Y12537500D01*
G75*
G02*
X7737500Y12775000I237500J0D01*
G01*
X8337500Y12775000D01*
G75*
G02*
X8575000Y12537500I0J-237500D01*
G01*
G37*
%TD.AperFunction*%
%TO.P,C11,1*%
%TO.N,+5V*%
%TA.AperFunction,SMDPad,CuDef*%
G36*
G01*
X10300000Y12537500D02*
X10300000Y12062500D01*
G75*
G02*
X10062500Y11825000I-237500J0D01*
G01*
X9462500Y11825000D01*
G75*
G02*
X9225000Y12062500I0J237500D01*
G01*
X9225000Y12537500D01*
G75*
G02*
X9462500Y12775000I237500J0D01*
G01*
X10062500Y12775000D01*
G75*
G02*
X10300000Y12537500I0J-237500D01*
G01*
G37*
%TD.AperFunction*%
%TD*%
%TO.P,C10,2*%
%TO.N,-18V*%
%TA.AperFunction,SMDPad,CuDef*%
G36*
G01*
X14962500Y8675000D02*
X15437500Y8675000D01*
G75*
G02*
X15675000Y8437500I0J-237500D01*
G01*
X15675000Y7837500D01*
G75*
G02*
X15437500Y7600000I-237500J0D01*
G01*
X14962500Y7600000D01*
G75*
G02*
X14725000Y7837500I0J237500D01*
G01*
X14725000Y8437500D01*
G75*
G02*
X14962500Y8675000I237500J0D01*
G01*
G37*
%TD.AperFunction*%
%TO.P,C10,1*%
%TO.N,/FB_NEG*%
%TA.AperFunction,SMDPad,CuDef*%
G36*
G01*
X14962500Y10400000D02*
X15437500Y10400000D01*
G75*
G02*
X15675000Y10162500I0J-237500D01*
G01*
X15675000Y9562500D01*
G75*
G02*
X15437500Y9325000I-237500J0D01*
G01*
X14962500Y9325000D01*
G75*
G02*
X14725000Y9562500I0J237500D01*
G01*
X14725000Y10162500D01*
G75*
G02*
X14962500Y10400000I237500J0D01*
G01*
G37*
%TD.AperFunction*%
%TD*%
%TO.P,C9,2*%
%TO.N,GND*%
%TA.AperFunction,SMDPad,CuDef*%
G36*
G01*
X12725000Y13862500D02*
X12725000Y14337500D01*
G75*
G02*
X12962500Y14575000I237500J0D01*
G01*
X13562500Y14575000D01*
G75*
G02*
X13800000Y14337500I0J-237500D01*
G01*
X13800000Y13862500D01*
G75*
G02*
X13562500Y13625000I-237500J0D01*
G01*
X12962500Y13625000D01*
G75*
G02*
X12725000Y13862500I0J237500D01*
G01*
G37*
%TD.AperFunction*%
%TO.P,C9,1*%
%TO.N,+5V*%
%TA.AperFunction,SMDPad,CuDef*%
G36*
G01*
X11000000Y13862500D02*
X11000000Y14337500D01*
G75*
G02*
X11237500Y14575000I237500J0D01*
G01*
X11837500Y14575000D01*
G75*
G02*
X12075000Y14337500I0J-237500D01*
G01*
X12075000Y13862500D01*
G75*
G02*
X11837500Y13625000I-237500J0D01*
G01*
X11237500Y13625000D01*
G75*
G02*
X11000000Y13862500I0J237500D01*
G01*
G37*
%TD.AperFunction*%
%TD*%
%TO.P,C8,2*%
%TO.N,Net-(C8-Pad2)*%
%TA.AperFunction,SMDPad,CuDef*%
G36*
G01*
X15137500Y18525000D02*
X14662500Y18525000D01*
G75*
G02*
X14425000Y18762500I0J237500D01*
G01*
X14425000Y19362500D01*
G75*
G02*
X14662500Y19600000I237500J0D01*
G01*
X15137500Y19600000D01*
G75*
G02*
X15375000Y19362500I0J-237500D01*
G01*
X15375000Y18762500D01*
G75*
G02*
X15137500Y18525000I-237500J0D01*
G01*
G37*
%TD.AperFunction*%
%TO.P,C8,1*%
%TO.N,Net-(C8-Pad1)*%
%TA.AperFunction,SMDPad,CuDef*%
G36*
G01*
X15137500Y16800000D02*
X14662500Y16800000D01*
G75*
G02*
X14425000Y17037500I0J237500D01*
G01*
X14425000Y17637500D01*
G75*
G02*
X14662500Y17875000I237500J0D01*
G01*
X15137500Y17875000D01*
G75*
G02*
X15375000Y17637500I0J-237500D01*
G01*
X15375000Y17037500D01*
G75*
G02*
X15137500Y16800000I-237500J0D01*
G01*
G37*
%TD.AperFunction*%
%TD*%
%TO.P,C7,2*%
%TO.N,GND*%
%TA.AperFunction,SMDPad,CuDef*%
G36*
G01*
X12950000Y11825000D02*
X12950000Y12775000D01*
G75*
G02*
X13200000Y13025000I250000J0D01*
G01*
X13875000Y13025000D01*
G75*
G02*
X14125000Y12775000I0J-250000D01*
G01*
X14125000Y11825000D01*
G75*
G02*
X13875000Y11575000I-250000J0D01*
G01*
X13200000Y11575000D01*
G75*
G02*
X12950000Y11825000I0J250000D01*
G01*
G37*
%TD.AperFunction*%
%TO.P,C7,1*%
%TO.N,+5V*%
%TA.AperFunction,SMDPad,CuDef*%
G36*
G01*
X10875000Y11825000D02*
X10875000Y12775000D01*
G75*
G02*
X11125000Y13025000I250000J0D01*
G01*
X11800000Y13025000D01*
G75*
G02*
X12050000Y12775000I0J-250000D01*
G01*
X12050000Y11825000D01*
G75*
G02*
X11800000Y11575000I-250000J0D01*
G01*
X11125000Y11575000D01*
G75*
G02*
X10875000Y11825000I0J250000D01*
G01*
G37*
%TD.AperFunction*%
%TD*%
%TO.P,C6,2*%
%TO.N,Net-(C6-Pad2)*%
%TA.AperFunction,SMDPad,CuDef*%
G36*
G01*
X9737500Y18525000D02*
X9262500Y18525000D01*
G75*
G02*
X9025000Y18762500I0J237500D01*
G01*
X9025000Y19362500D01*
G75*
G02*
X9262500Y19600000I237500J0D01*
G01*
X9737500Y19600000D01*
G75*
G02*
X9975000Y19362500I0J-237500D01*
G01*
X9975000Y18762500D01*
G75*
G02*
X9737500Y18525000I-237500J0D01*
G01*
G37*
%TD.AperFunction*%
%TO.P,C6,1*%
%TO.N,Net-(C5-Pad2)*%
%TA.AperFunction,SMDPad,CuDef*%
G36*
G01*
X9737500Y16800000D02*
X9262500Y16800000D01*
G75*
G02*
X9025000Y17037500I0J237500D01*
G01*
X9025000Y17637500D01*
G75*
G02*
X9262500Y17875000I237500J0D01*
G01*
X9737500Y17875000D01*
G75*
G02*
X9975000Y17637500I0J-237500D01*
G01*
X9975000Y17037500D01*
G75*
G02*
X9737500Y16800000I-237500J0D01*
G01*
G37*
%TD.AperFunction*%
%TD*%
%TO.P,C5,2*%
%TO.N,Net-(C5-Pad2)*%
%TA.AperFunction,SMDPad,CuDef*%
G36*
G01*
X7325000Y16762500D02*
X7325000Y17237500D01*
G75*
G02*
X7562500Y17475000I237500J0D01*
G01*
X8162500Y17475000D01*
G75*
G02*
X8400000Y17237500I0J-237500D01*
G01*
X8400000Y16762500D01*
G75*
G02*
X8162500Y16525000I-237500J0D01*
G01*
X7562500Y16525000D01*
G75*
G02*
X7325000Y16762500I0J237500D01*
G01*
G37*
%TD.AperFunction*%
%TO.P,C5,1*%
%TO.N,Net-(C5-Pad1)*%
%TA.AperFunction,SMDPad,CuDef*%
G36*
G01*
X5600000Y16762500D02*
X5600000Y17237500D01*
G75*
G02*
X5837500Y17475000I237500J0D01*
G01*
X6437500Y17475000D01*
G75*
G02*
X6675000Y17237500I0J-237500D01*
G01*
X6675000Y16762500D01*
G75*
G02*
X6437500Y16525000I-237500J0D01*
G01*
X5837500Y16525000D01*
G75*
G02*
X5600000Y16762500I0J237500D01*
G01*
G37*
%TD.AperFunction*%
%TD*%
%TO.P,C4,2*%
%TO.N,GND*%
%TA.AperFunction,SMDPad,CuDef*%
G36*
G01*
X5562500Y9312500D02*
X6037500Y9312500D01*
G75*
G02*
X6275000Y9075000I0J-237500D01*
G01*
X6275000Y8475000D01*
G75*
G02*
X6037500Y8237500I-237500J0D01*
G01*
X5562500Y8237500D01*
G75*
G02*
X5325000Y8475000I0J237500D01*
G01*
X5325000Y9075000D01*
G75*
G02*
X5562500Y9312500I237500J0D01*
G01*
G37*
%TD.AperFunction*%
%TO.P,C4,1*%
%TO.N,+BATT*%
%TA.AperFunction,SMDPad,CuDef*%
G36*
G01*
X5562500Y11037500D02*
X6037500Y11037500D01*
G75*
G02*
X6275000Y10800000I0J-237500D01*
G01*
X6275000Y10200000D01*
G75*
G02*
X6037500Y9962500I-237500J0D01*
G01*
X5562500Y9962500D01*
G75*
G02*
X5325000Y10200000I0J237500D01*
G01*
X5325000Y10800000D01*
G75*
G02*
X5562500Y11037500I237500J0D01*
G01*
G37*
%TD.AperFunction*%
%TD*%
%TO.P,C3,2*%
%TO.N,GND*%
%TA.AperFunction,SMDPad,CuDef*%
G36*
G01*
X2975000Y17437500D02*
X2975000Y16962500D01*
G75*
G02*
X2737500Y16725000I-237500J0D01*
G01*
X2137500Y16725000D01*
G75*
G02*
X1900000Y16962500I0J237500D01*
G01*
X1900000Y17437500D01*
G75*
G02*
X2137500Y17675000I237500J0D01*
G01*
X2737500Y17675000D01*
G75*
G02*
X2975000Y17437500I0J-237500D01*
G01*
G37*
%TD.AperFunction*%
%TO.P,C3,1*%
%TO.N,Net-(C3-Pad1)*%
%TA.AperFunction,SMDPad,CuDef*%
G36*
G01*
X4700000Y17437500D02*
X4700000Y16962500D01*
G75*
G02*
X4462500Y16725000I-237500J0D01*
G01*
X3862500Y16725000D01*
G75*
G02*
X3625000Y16962500I0J237500D01*
G01*
X3625000Y17437500D01*
G75*
G02*
X3862500Y17675000I237500J0D01*
G01*
X4462500Y17675000D01*
G75*
G02*
X4700000Y17437500I0J-237500D01*
G01*
G37*
%TD.AperFunction*%
%TD*%
%TO.P,C2,2*%
%TO.N,GND*%
%TA.AperFunction,SMDPad,CuDef*%
G36*
G01*
X3525000Y9087500D02*
X4475000Y9087500D01*
G75*
G02*
X4725000Y8837500I0J-250000D01*
G01*
X4725000Y8162500D01*
G75*
G02*
X4475000Y7912500I-250000J0D01*
G01*
X3525000Y7912500D01*
G75*
G02*
X3275000Y8162500I0J250000D01*
G01*
X3275000Y8837500D01*
G75*
G02*
X3525000Y9087500I250000J0D01*
G01*
G37*
%TD.AperFunction*%
%TO.P,C2,1*%
%TO.N,+BATT*%
%TA.AperFunction,SMDPad,CuDef*%
G36*
G01*
X3525000Y11162500D02*
X4475000Y11162500D01*
G75*
G02*
X4725000Y10912500I0J-250000D01*
G01*
X4725000Y10237500D01*
G75*
G02*
X4475000Y9987500I-250000J0D01*
G01*
X3525000Y9987500D01*
G75*
G02*
X3275000Y10237500I0J250000D01*
G01*
X3275000Y10912500D01*
G75*
G02*
X3525000Y11162500I250000J0D01*
G01*
G37*
%TD.AperFunction*%
%TD*%
%TO.P,C1,2*%
%TO.N,GND*%
%TA.AperFunction,SMDPad,CuDef*%
G36*
G01*
X9375000Y15212500D02*
X9375000Y15687500D01*
G75*
G02*
X9612500Y15925000I237500J0D01*
G01*
X10212500Y15925000D01*
G75*
G02*
X10450000Y15687500I0J-237500D01*
G01*
X10450000Y15212500D01*
G75*
G02*
X10212500Y14975000I-237500J0D01*
G01*
X9612500Y14975000D01*
G75*
G02*
X9375000Y15212500I0J237500D01*
G01*
G37*
%TD.AperFunction*%
%TO.P,C1,1*%
%TO.N,-18V*%
%TA.AperFunction,SMDPad,CuDef*%
G36*
G01*
X7650000Y15212500D02*
X7650000Y15687500D01*
G75*
G02*
X7887500Y15925000I237500J0D01*
G01*
X8487500Y15925000D01*
G75*
G02*
X8725000Y15687500I0J-237500D01*
G01*
X8725000Y15212500D01*
G75*
G02*
X8487500Y14975000I-237500J0D01*
G01*
X7887500Y14975000D01*
G75*
G02*
X7650000Y15212500I0J237500D01*
G01*
G37*
%TD.AperFunction*%
%TD*%
D13*
%TO.N,GND*%
X14000000Y10300000D03*
X14000000Y9400000D03*
X14000000Y8500000D03*
X11200000Y7700000D03*
X8000000Y19300000D03*
X7900000Y18400000D03*
X11900000Y19300000D03*
X11900000Y18200000D03*
X11600000Y15400000D03*
X14650000Y14450000D03*
X15400000Y13300000D03*
X14850000Y12300000D03*
X4350000Y12450000D03*
X3200000Y13850000D03*
X4950000Y15250000D03*
X2300000Y15800000D03*
X2350000Y18450000D03*
X3000000Y19050000D03*
X16300000Y19200000D03*
X17550000Y18450000D03*
X17150000Y4650000D03*
X17950000Y3600000D03*
X17250000Y1200000D03*
X17150000Y2450000D03*
X14550000Y2400000D03*
X13050000Y2500000D03*
X14600000Y4700000D03*
X15200000Y6750000D03*
X13700000Y6600000D03*
X12900000Y5500000D03*
X12850000Y3500000D03*
X9900000Y2400000D03*
X7350000Y2650000D03*
X7050000Y4200000D03*
X6450000Y700000D03*
X3200000Y900000D03*
X2300000Y1950000D03*
X2250000Y3800000D03*
X5400000Y4700000D03*
X3850000Y5050000D03*
X3750000Y6700000D03*
X2400000Y9100000D03*
X1150000Y12200000D03*
X6650000Y11750000D03*
X2850000Y11800000D03*
X17850000Y16750000D03*
%TO.N,-18V*%
X7200012Y15500000D03*
X17250000Y17450000D03*
X17600000Y12500000D03*
%TO.N,Net-(C3-Pad1)*%
X5200000Y18800000D03*
%TO.N,Net-(C5-Pad2)*%
X10700000Y17000000D03*
%TO.N,Net-(C5-Pad1)*%
X7000000Y17750000D03*
X5006556Y16231521D03*
%TO.N,Net-(C6-Pad2)*%
X10600000Y18800000D03*
%TO.N,+5V*%
X17100000Y6900000D03*
X15609627Y15709627D03*
%TO.N,Net-(C8-Pad2)*%
X13700000Y18700000D03*
%TO.N,Net-(C8-Pad1)*%
X15700000Y18150000D03*
%TO.N,/FB_NEG*%
X15549999Y14649999D03*
%TO.N,Net-(L1-Pad1)*%
X12700000Y6700000D03*
%TO.N,+VSW*%
X7000000Y5300000D03*
X12500000Y11100000D03*
X11200000Y8700000D03*
%TD*%
D14*
%TO.N,GND*%
X4275000Y8775000D02*
X4000000Y8500000D01*
X5800000Y8775000D02*
X4275000Y8775000D01*
D15*
X2200000Y6700000D02*
X3750000Y6700000D01*
X1250000Y5750000D02*
X2200000Y6700000D01*
X1250000Y5500000D02*
X1250000Y5750000D01*
D14*
%TO.N,-18V*%
X16747500Y8040000D02*
X16700000Y8087500D01*
X18750000Y8040000D02*
X16747500Y8040000D01*
X15250000Y8087500D02*
X15200000Y8137500D01*
X16700000Y8087500D02*
X15250000Y8087500D01*
D16*
X7250012Y15450000D02*
X7200012Y15500000D01*
X8187500Y15450000D02*
X7250012Y15450000D01*
D17*
X17500016Y12400016D02*
X17600000Y12500000D01*
X16700000Y8087500D02*
X17500016Y8887516D01*
X17500016Y8887516D02*
X17500016Y12400016D01*
D18*
X15874990Y16944124D02*
X15874990Y17274990D01*
X15205876Y16275010D02*
X15874990Y16944124D01*
X9012510Y16275010D02*
X15205876Y16275010D01*
X8187500Y15450000D02*
X9012510Y16275010D01*
X16050000Y17450000D02*
X17250000Y17450000D01*
X15874990Y17274990D02*
X16050000Y17450000D01*
D19*
%TO.N,+BATT*%
X3995000Y10580000D02*
X4000000Y10575000D01*
X1250000Y10580000D02*
X3995000Y10580000D01*
X4075000Y10500000D02*
X4000000Y10575000D01*
X5800000Y10500000D02*
X4075000Y10500000D01*
X7575000Y10500000D02*
X7600000Y10525000D01*
X5800000Y10500000D02*
X7575000Y10500000D01*
D18*
%TO.N,Net-(C3-Pad1)*%
X4162500Y17962500D02*
X4162500Y17200000D01*
X5000000Y18800000D02*
X4162500Y17962500D01*
X5200000Y18800000D02*
X5000000Y18800000D01*
D15*
%TO.N,Net-(C5-Pad2)*%
X7900000Y17037500D02*
X7862500Y17000000D01*
X7862500Y17000000D02*
X8300000Y17000000D01*
X8637500Y17337500D02*
X9500000Y17337500D01*
X8300000Y17000000D02*
X8637500Y17337500D01*
D14*
X10362500Y17337500D02*
X10700000Y17000000D01*
X9500000Y17337500D02*
X10362500Y17337500D01*
D18*
%TO.N,Net-(C5-Pad1)*%
X6137500Y17000000D02*
X6137500Y16525000D01*
X6137500Y16525000D02*
X5844021Y16231521D01*
X5844021Y16231521D02*
X5006556Y16231521D01*
X6550000Y17750000D02*
X7000000Y17750000D01*
X6137500Y17337500D02*
X6550000Y17750000D01*
X6137500Y17000000D02*
X6137500Y17337500D01*
D20*
%TO.N,Net-(C6-Pad2)*%
X9537500Y18800000D02*
X9500000Y18762500D01*
D15*
X10337500Y19062500D02*
X10600000Y18800000D01*
X9500000Y19062500D02*
X10337500Y19062500D01*
D14*
%TO.N,+5V*%
X11537500Y12375000D02*
X11462500Y12300000D01*
X11537500Y14100000D02*
X11537500Y12375000D01*
X10012500Y14100000D02*
X9812500Y13900000D01*
X11537500Y14100000D02*
X10012500Y14100000D01*
X9812500Y12350000D02*
X9762500Y12300000D01*
X9812500Y13900000D02*
X9812500Y12350000D01*
X11100000Y11937500D02*
X11462500Y12300000D01*
X11100000Y9684998D02*
X11100000Y11937500D01*
X10815002Y9400000D02*
X11100000Y9684998D01*
X9850000Y9400000D02*
X10815002Y9400000D01*
D19*
X15912500Y5712500D02*
X17100000Y6900000D01*
X15912500Y1200000D02*
X15912500Y5712500D01*
D14*
X18700000Y10630000D02*
X18750000Y10580000D01*
X18700000Y12600000D02*
X18700000Y10630000D01*
X17700000Y13600000D02*
X18700000Y12600000D01*
X17700000Y15512500D02*
X17700000Y13600000D01*
X16700000Y16512500D02*
X17700000Y15512500D01*
D18*
X13147127Y15709627D02*
X15609627Y15709627D01*
X11537500Y14100000D02*
X13147127Y15709627D01*
X16700000Y16512500D02*
X16412500Y16512500D01*
X16412500Y16512500D02*
X15609627Y15709627D01*
%TO.N,Net-(C8-Pad2)*%
X13725000Y18725000D02*
X13700000Y18700000D01*
D17*
X14887500Y19050000D02*
X14900000Y19062500D01*
X14050000Y19050000D02*
X14887500Y19050000D01*
X13700000Y18700000D02*
X14050000Y19050000D01*
D16*
%TO.N,Net-(C8-Pad1)*%
X14900000Y17350000D02*
X15700000Y18150000D01*
X14900000Y17337500D02*
X14900000Y17350000D01*
D14*
%TO.N,/FB_NEG*%
X15200000Y9862500D02*
X15200000Y10500000D01*
X15774990Y12287490D02*
X16700000Y13212500D01*
X15774990Y11074990D02*
X15774990Y12287490D01*
X15200000Y10500000D02*
X15774990Y11074990D01*
X16700000Y14687500D02*
X16700000Y13212500D01*
D18*
X16700000Y14687500D02*
X15587500Y14687500D01*
X15587500Y14687500D02*
X15549999Y14649999D01*
D14*
%TO.N,/FB*%
X8037500Y13850000D02*
X7987500Y13900000D01*
X8037500Y12300000D02*
X8037500Y13850000D01*
X6412500Y13900000D02*
X7987500Y13900000D01*
X8037500Y12162500D02*
X9850000Y10350000D01*
X8037500Y12300000D02*
X8037500Y12162500D01*
D15*
%TO.N,Net-(L1-Pad1)*%
X12550000Y6850000D02*
X12700000Y6700000D01*
X12550000Y8450000D02*
X12550000Y6850000D01*
D14*
%TO.N,Net-(R2-Pad2)*%
X16700000Y9912500D02*
X16700000Y11387500D01*
D19*
%TO.N,+VSW*%
X7600000Y6737500D02*
X7737500Y6600000D01*
X7600000Y8475000D02*
X7600000Y6737500D01*
D15*
X7737500Y6037500D02*
X7000000Y5300000D01*
X7737500Y6600000D02*
X7737500Y6037500D01*
D20*
X12550000Y11050000D02*
X12500000Y11100000D01*
X12550000Y10350000D02*
X12550000Y11050000D01*
X9850000Y8450000D02*
X10950000Y8450000D01*
X10950000Y8450000D02*
X11200000Y8700000D01*
D19*
X7737500Y6600000D02*
X9400000Y6600000D01*
D15*
X9800000Y8400000D02*
X9850000Y8450000D01*
D19*
X9400000Y6600000D02*
X9800000Y7000000D01*
D15*
X9800000Y7000000D02*
X9800000Y8400000D01*
D19*
%TO.N,Net-(J3-Pad1)*%
X11270000Y1200000D02*
X14087500Y1200000D01*
%TD*%
D20*
%TO.N,GND*%
X17377452Y5967582D02*
X17349000Y5873766D01*
X17458683Y5650000D01*
X18600000Y5650000D01*
X18600000Y5670000D01*
X18900000Y5670000D01*
X18900000Y5650000D01*
X18920000Y5650000D01*
X18920000Y5350000D01*
X18900000Y5350000D01*
X18900000Y4207774D01*
X19039109Y4140149D01*
X18214243Y3315283D01*
X18198026Y3301974D01*
X18144916Y3237259D01*
X18105452Y3163426D01*
X18088522Y3107616D01*
X18081151Y3083315D01*
X18081150Y3083313D01*
X18075000Y3020873D01*
X18075000Y3020867D01*
X18072945Y3000000D01*
X18075000Y2979133D01*
X18075001Y1676042D01*
X16823960Y425000D01*
X16506846Y425000D01*
X16517751Y430829D01*
X16614649Y510351D01*
X16694171Y607249D01*
X16753261Y717799D01*
X16789648Y837752D01*
X16801935Y962500D01*
X16801935Y1437500D01*
X16789648Y1562248D01*
X16753261Y1682201D01*
X16712500Y1758460D01*
X16712500Y5126234D01*
X17349000Y5126234D01*
X17377452Y5032418D01*
X17495046Y4773632D01*
X17660867Y4542760D01*
X17868543Y4348674D01*
X18110092Y4198833D01*
X18376233Y4098995D01*
X18600000Y4207774D01*
X18600000Y5350000D01*
X17458683Y5350000D01*
X17349000Y5126234D01*
X16712500Y5126234D01*
X16712500Y5381130D01*
X17442831Y6111461D01*
X17377452Y5967582D01*
%TA.AperFunction,Conductor*%
D21*
G36*
X17377452Y5967582D02*
G01*
X17349000Y5873766D01*
X17458683Y5650000D01*
X18600000Y5650000D01*
X18600000Y5670000D01*
X18900000Y5670000D01*
X18900000Y5650000D01*
X18920000Y5650000D01*
X18920000Y5350000D01*
X18900000Y5350000D01*
X18900000Y4207774D01*
X19039109Y4140149D01*
X18214243Y3315283D01*
X18198026Y3301974D01*
X18144916Y3237259D01*
X18105452Y3163426D01*
X18088522Y3107616D01*
X18081151Y3083315D01*
X18081150Y3083313D01*
X18075000Y3020873D01*
X18075000Y3020867D01*
X18072945Y3000000D01*
X18075000Y2979133D01*
X18075001Y1676042D01*
X16823960Y425000D01*
X16506846Y425000D01*
X16517751Y430829D01*
X16614649Y510351D01*
X16694171Y607249D01*
X16753261Y717799D01*
X16789648Y837752D01*
X16801935Y962500D01*
X16801935Y1437500D01*
X16789648Y1562248D01*
X16753261Y1682201D01*
X16712500Y1758460D01*
X16712500Y5126234D01*
X17349000Y5126234D01*
X17377452Y5032418D01*
X17495046Y4773632D01*
X17660867Y4542760D01*
X17868543Y4348674D01*
X18110092Y4198833D01*
X18376233Y4098995D01*
X18600000Y4207774D01*
X18600000Y5350000D01*
X17458683Y5350000D01*
X17349000Y5126234D01*
X16712500Y5126234D01*
X16712500Y5381130D01*
X17442831Y6111461D01*
X17377452Y5967582D01*
G37*
%TD.AperFunction*%
D20*
X15006273Y15096223D02*
X14929667Y14981573D01*
X14876900Y14854181D01*
X14849999Y14718943D01*
X14849999Y14581055D01*
X14876900Y14445817D01*
X14929667Y14318425D01*
X15006273Y14203775D01*
X15103775Y14106273D01*
X15218425Y14029667D01*
X15345817Y13976900D01*
X15481055Y13949999D01*
X15618943Y13949999D01*
X15754181Y13976900D01*
X15881573Y14029667D01*
X15941255Y14069545D01*
X16010351Y13985351D01*
X16050000Y13952812D01*
X16050001Y13947188D01*
X16010351Y13914649D01*
X15930829Y13817751D01*
X15871739Y13707201D01*
X15835352Y13587248D01*
X15823065Y13462500D01*
X15823065Y13254803D01*
X15337948Y12769686D01*
X15313148Y12749333D01*
X15292795Y12724533D01*
X15292792Y12724530D01*
X15231920Y12650358D01*
X15171563Y12537437D01*
X15134396Y12414912D01*
X15121846Y12287490D01*
X15124991Y12255559D01*
X15124990Y11344228D01*
X14762958Y10982196D01*
X14738158Y10961843D01*
X14717805Y10937043D01*
X14717802Y10937040D01*
X14656930Y10862868D01*
X14624361Y10801935D01*
X14596573Y10749948D01*
X14570506Y10664017D01*
X14510351Y10614649D01*
X14430829Y10517751D01*
X14371739Y10407201D01*
X14335352Y10287248D01*
X14323065Y10162500D01*
X14323065Y9562500D01*
X14335352Y9437752D01*
X14371739Y9317799D01*
X14430829Y9207249D01*
X14510351Y9110351D01*
X14607249Y9030829D01*
X14664926Y9000000D01*
X14607249Y8969171D01*
X14510351Y8889649D01*
X14430829Y8792751D01*
X14371739Y8682201D01*
X14335352Y8562248D01*
X14323065Y8437500D01*
X14323065Y7837500D01*
X14335352Y7712752D01*
X14371739Y7592799D01*
X14430829Y7482249D01*
X14510351Y7385351D01*
X14607249Y7305829D01*
X14717799Y7246739D01*
X14837752Y7210352D01*
X14962500Y7198065D01*
X15437500Y7198065D01*
X15562248Y7210352D01*
X15682201Y7246739D01*
X15792751Y7305829D01*
X15889649Y7385351D01*
X15932447Y7437500D01*
X15967553Y7437500D01*
X16010351Y7385351D01*
X16107249Y7305829D01*
X16217799Y7246739D01*
X16292660Y7224030D01*
X15374598Y6305968D01*
X15344079Y6280922D01*
X15319032Y6250402D01*
X15319031Y6250401D01*
X15244107Y6159106D01*
X15169821Y6020127D01*
X15124077Y5869327D01*
X15108630Y5712500D01*
X15112501Y5673200D01*
X15112500Y1758460D01*
X15071739Y1682201D01*
X15035352Y1562248D01*
X15023065Y1437500D01*
X15023065Y962500D01*
X15035352Y837752D01*
X15071739Y717799D01*
X15130829Y607249D01*
X15210351Y510351D01*
X15307249Y430829D01*
X15318154Y425000D01*
X14681846Y425000D01*
X14692751Y430829D01*
X14789649Y510351D01*
X14869171Y607249D01*
X14928261Y717799D01*
X14964648Y837752D01*
X14976935Y962500D01*
X14976935Y1437500D01*
X14964648Y1562248D01*
X14928261Y1682201D01*
X14869171Y1792751D01*
X14789649Y1889649D01*
X14692751Y1969171D01*
X14582201Y2028261D01*
X14462248Y2064648D01*
X14337500Y2076935D01*
X13837500Y2076935D01*
X13712752Y2064648D01*
X13592799Y2028261D01*
X13539926Y2000000D01*
X12521935Y2000000D01*
X12521935Y2050000D01*
X12514212Y2128414D01*
X12491340Y2203814D01*
X12454197Y2273303D01*
X12404211Y2334211D01*
X12343303Y2384197D01*
X12273814Y2421340D01*
X12198414Y2444212D01*
X12120000Y2451935D01*
X10420000Y2451935D01*
X10341586Y2444212D01*
X10266186Y2421340D01*
X10196697Y2384197D01*
X10135789Y2334211D01*
X10085803Y2273303D01*
X10048660Y2203814D01*
X10025788Y2128414D01*
X10018065Y2050000D01*
X10018065Y1861029D01*
X9881326Y2081457D01*
X9687240Y2289133D01*
X9456368Y2454954D01*
X9197582Y2572548D01*
X9103766Y2601000D01*
X8880000Y2491317D01*
X8880000Y1350000D01*
X8900000Y1350000D01*
X8900000Y1050000D01*
X8880000Y1050000D01*
X8880000Y1030000D01*
X8580000Y1030000D01*
X8580000Y1050000D01*
X7437774Y1050000D01*
X7328995Y826233D01*
X7428833Y560092D01*
X7512635Y425000D01*
X3176041Y425000D01*
X2027274Y1573767D01*
X7328995Y1573767D01*
X7437774Y1350000D01*
X8580000Y1350000D01*
X8580000Y2491317D01*
X8356234Y2601000D01*
X8262418Y2572548D01*
X8003632Y2454954D01*
X7772760Y2289133D01*
X7578674Y2081457D01*
X7428833Y1839908D01*
X7328995Y1573767D01*
X2027274Y1573767D01*
X1925000Y1676040D01*
X1925000Y2979134D01*
X1927055Y3000001D01*
X1925000Y3020868D01*
X1925000Y3020874D01*
X1918850Y3083314D01*
X1894548Y3163427D01*
X1855084Y3237260D01*
X1801974Y3301974D01*
X1785763Y3315278D01*
X960891Y4140149D01*
X1100000Y4207774D01*
X1100000Y5350000D01*
X1400000Y5350000D01*
X1400000Y4207774D01*
X1623767Y4098995D01*
X1889908Y4198833D01*
X2131457Y4348674D01*
X2339133Y4542760D01*
X2504954Y4773632D01*
X2622548Y5032418D01*
X2651000Y5126234D01*
X2541317Y5350000D01*
X1400000Y5350000D01*
X1100000Y5350000D01*
X1080000Y5350000D01*
X1080000Y5650000D01*
X1100000Y5650000D01*
X1100000Y5670000D01*
X1400000Y5670000D01*
X1400000Y5650000D01*
X2541317Y5650000D01*
X2651000Y5873766D01*
X2650626Y5875000D01*
X4472097Y5875000D01*
X4483682Y5757379D01*
X4517990Y5644279D01*
X4573704Y5540045D01*
X4648683Y5448683D01*
X4740045Y5373704D01*
X4844279Y5317990D01*
X4957379Y5283682D01*
X5075000Y5272097D01*
X5362500Y5275000D01*
X5512500Y5425000D01*
X5512500Y6450000D01*
X4625000Y6450000D01*
X4475000Y6300000D01*
X4472097Y5875000D01*
X2650626Y5875000D01*
X2622548Y5967582D01*
X2504954Y6226368D01*
X2339133Y6457240D01*
X2131457Y6651326D01*
X1889908Y6801167D01*
X1698735Y6872882D01*
X1842097Y6932265D01*
X2046828Y7069062D01*
X2220938Y7243172D01*
X2357735Y7447903D01*
X2451963Y7675389D01*
X2499127Y7912500D01*
X2672097Y7912500D01*
X2683682Y7794879D01*
X2717990Y7681779D01*
X2773704Y7577545D01*
X2848683Y7486183D01*
X2940045Y7411204D01*
X3044279Y7355490D01*
X3157379Y7321182D01*
X3275000Y7309597D01*
X3700000Y7312500D01*
X3850000Y7462500D01*
X3850000Y8350000D01*
X2825000Y8350000D01*
X2675000Y8200000D01*
X2672097Y7912500D01*
X2499127Y7912500D01*
X2500000Y7916886D01*
X2500000Y8163114D01*
X2451963Y8404611D01*
X2357735Y8632097D01*
X2220938Y8836828D01*
X2046828Y9010938D01*
X1842097Y9147735D01*
X1614611Y9241963D01*
X1373114Y9290000D01*
X1126886Y9290000D01*
X885389Y9241963D01*
X657903Y9147735D01*
X453172Y9010938D01*
X425000Y8982766D01*
X425000Y9328065D01*
X2100000Y9328065D01*
X2178414Y9335788D01*
X2253814Y9358660D01*
X2323303Y9395803D01*
X2384211Y9445789D01*
X2434197Y9506697D01*
X2471340Y9576186D01*
X2494212Y9651586D01*
X2501935Y9730000D01*
X2501935Y9780000D01*
X3061149Y9780000D01*
X3064012Y9776512D01*
X3162804Y9695436D01*
X3188213Y9681855D01*
X3157379Y9678818D01*
X3044279Y9644510D01*
X2940045Y9588796D01*
X2848683Y9513817D01*
X2773704Y9422455D01*
X2717990Y9318221D01*
X2683682Y9205121D01*
X2672097Y9087500D01*
X2675000Y8800000D01*
X2825000Y8650000D01*
X3850000Y8650000D01*
X3850000Y8670000D01*
X4150000Y8670000D01*
X4150000Y8650000D01*
X4170000Y8650000D01*
X4170000Y8350000D01*
X4150000Y8350000D01*
X4150000Y7462500D01*
X4300000Y7312500D01*
X4472190Y7311324D01*
X4475000Y6900000D01*
X4625000Y6750000D01*
X5512500Y6750000D01*
X5512500Y7650000D01*
X5650000Y7787500D01*
X5650000Y8625000D01*
X5630000Y8625000D01*
X5630000Y8925000D01*
X5650000Y8925000D01*
X5650000Y8945000D01*
X5950000Y8945000D01*
X5950000Y8925000D01*
X5970000Y8925000D01*
X5970000Y8625000D01*
X5950000Y8625000D01*
X5950000Y7912500D01*
X5812500Y7775000D01*
X5812500Y6750000D01*
X5832500Y6750000D01*
X5832500Y6450000D01*
X5812500Y6450000D01*
X5812500Y5425000D01*
X5962500Y5275000D01*
X6250000Y5272097D01*
X6298887Y5276912D01*
X6300000Y5265613D01*
X6300000Y5231056D01*
X6306742Y5197161D01*
X6310129Y5162777D01*
X6320159Y5129712D01*
X6326901Y5095818D01*
X6340124Y5063895D01*
X6350155Y5030826D01*
X6366445Y5000349D01*
X6379668Y4968426D01*
X6398865Y4939695D01*
X6415155Y4909219D01*
X6437074Y4882511D01*
X6456274Y4853776D01*
X6480716Y4829334D01*
X6502631Y4802631D01*
X6529334Y4780716D01*
X6553776Y4756274D01*
X6582511Y4737074D01*
X6609219Y4715155D01*
X6639695Y4698865D01*
X6668426Y4679668D01*
X6700349Y4666445D01*
X6730826Y4650155D01*
X6763895Y4640124D01*
X6795818Y4626901D01*
X6829712Y4620159D01*
X6862777Y4610129D01*
X6897161Y4606742D01*
X6931056Y4600000D01*
X6965613Y4600000D01*
X7000000Y4596613D01*
X7034387Y4600000D01*
X7068944Y4600000D01*
X7102839Y4606742D01*
X7137223Y4610129D01*
X7170288Y4620159D01*
X7204182Y4626901D01*
X7236105Y4640124D01*
X7269174Y4650155D01*
X7299651Y4666445D01*
X7331574Y4679668D01*
X7360305Y4698865D01*
X7390781Y4715155D01*
X7417490Y4737075D01*
X7446224Y4756274D01*
X7543726Y4853776D01*
X7543728Y4853779D01*
X8172630Y5482681D01*
X8202186Y5485592D01*
X8324485Y5522691D01*
X8437196Y5582936D01*
X8535988Y5664012D01*
X8617064Y5762804D01*
X8636946Y5800000D01*
X9360709Y5800000D01*
X9400000Y5796130D01*
X9439291Y5800000D01*
X9439293Y5800000D01*
X9556827Y5811576D01*
X9707628Y5857321D01*
X9846606Y5931607D01*
X9968422Y6031578D01*
X9993473Y6062103D01*
X10393469Y6462099D01*
X10468393Y6553394D01*
X10542678Y6692372D01*
X10588423Y6843172D01*
X10603869Y6999999D01*
X10588423Y7156826D01*
X10542678Y7307627D01*
X10500000Y7387473D01*
X10500000Y7723065D01*
X10630000Y7723065D01*
X10708414Y7730788D01*
X10783814Y7753660D01*
X10853303Y7790803D01*
X10914211Y7840789D01*
X10964197Y7901697D01*
X10990875Y7951607D01*
X11048017Y7957235D01*
X11142267Y7985825D01*
X11168786Y8000000D01*
X11268944Y8000000D01*
X11383035Y8022695D01*
X11398660Y7971186D01*
X11435803Y7901697D01*
X11485789Y7840789D01*
X11546697Y7790803D01*
X11616186Y7753660D01*
X11691586Y7730788D01*
X11770000Y7723065D01*
X11850000Y7723065D01*
X11850001Y6884397D01*
X11846613Y6850000D01*
X11851423Y6801167D01*
X11860129Y6712776D01*
X11872271Y6672750D01*
X11900155Y6580826D01*
X11965155Y6459219D01*
X12001318Y6415155D01*
X12052631Y6352630D01*
X12079342Y6330709D01*
X12156272Y6253779D01*
X12156274Y6253776D01*
X12253776Y6156274D01*
X12282510Y6137075D01*
X12309219Y6115155D01*
X12339695Y6098865D01*
X12368426Y6079668D01*
X12400349Y6066445D01*
X12430826Y6050155D01*
X12463895Y6040124D01*
X12495818Y6026901D01*
X12529710Y6020159D01*
X12562776Y6010129D01*
X12597162Y6006742D01*
X12631056Y6000000D01*
X12665612Y6000000D01*
X12699999Y5996613D01*
X12734386Y6000000D01*
X12768944Y6000000D01*
X12802840Y6006742D01*
X12837223Y6010129D01*
X12870288Y6020159D01*
X12904182Y6026901D01*
X12936105Y6040124D01*
X12969174Y6050155D01*
X12999651Y6066445D01*
X13031574Y6079668D01*
X13060305Y6098865D01*
X13090781Y6115155D01*
X13117489Y6137074D01*
X13146224Y6156274D01*
X13170666Y6180716D01*
X13197369Y6202631D01*
X13219284Y6229334D01*
X13243726Y6253776D01*
X13262926Y6282511D01*
X13284845Y6309219D01*
X13301135Y6339695D01*
X13320332Y6368426D01*
X13333555Y6400349D01*
X13349845Y6430826D01*
X13359876Y6463895D01*
X13373099Y6495818D01*
X13379841Y6529712D01*
X13389871Y6562777D01*
X13393258Y6597160D01*
X13400000Y6631056D01*
X13400000Y6665614D01*
X13403387Y6700001D01*
X13400000Y6734388D01*
X13400000Y6768944D01*
X13393258Y6802838D01*
X13389871Y6837224D01*
X13379841Y6870290D01*
X13373099Y6904182D01*
X13359876Y6936105D01*
X13349845Y6969174D01*
X13333555Y6999651D01*
X13320332Y7031574D01*
X13301135Y7060305D01*
X13284845Y7090781D01*
X13262925Y7117490D01*
X13250000Y7136834D01*
X13250000Y7723065D01*
X13330000Y7723065D01*
X13408414Y7730788D01*
X13483814Y7753660D01*
X13553303Y7790803D01*
X13614211Y7840789D01*
X13664197Y7901697D01*
X13701340Y7971186D01*
X13724212Y8046586D01*
X13731935Y8125000D01*
X13731935Y8628673D01*
X13756317Y8648683D01*
X13831296Y8740045D01*
X13887010Y8844279D01*
X13921318Y8957379D01*
X13932903Y9075000D01*
X13930000Y9100000D01*
X13780000Y9250000D01*
X12700000Y9250000D01*
X12700000Y9230000D01*
X12400000Y9230000D01*
X12400000Y9250000D01*
X12380000Y9250000D01*
X12380000Y9550000D01*
X12400000Y9550000D01*
X12400000Y9570000D01*
X12700000Y9570000D01*
X12700000Y9550000D01*
X13780000Y9550000D01*
X13930000Y9700000D01*
X13932903Y9725000D01*
X13921318Y9842621D01*
X13887010Y9955721D01*
X13831296Y10059955D01*
X13756317Y10151317D01*
X13731935Y10171327D01*
X13731935Y10675000D01*
X13724212Y10753414D01*
X13701340Y10828814D01*
X13664197Y10898303D01*
X13614211Y10959211D01*
X13594972Y10975000D01*
X13687502Y10975000D01*
X13687502Y11124998D01*
X13837500Y10975000D01*
X14125000Y10972097D01*
X14242621Y10983682D01*
X14355721Y11017990D01*
X14459955Y11073704D01*
X14551317Y11148683D01*
X14626296Y11240045D01*
X14682010Y11344279D01*
X14716318Y11457379D01*
X14727903Y11575000D01*
X14725000Y12000000D01*
X14575000Y12150000D01*
X13687500Y12150000D01*
X13687500Y12130000D01*
X13387500Y12130000D01*
X13387500Y12150000D01*
X13367500Y12150000D01*
X13367500Y12450000D01*
X13387500Y12450000D01*
X13387500Y12470000D01*
X13687500Y12470000D01*
X13687500Y12450000D01*
X14575000Y12450000D01*
X14725000Y12600000D01*
X14727903Y13025000D01*
X14716318Y13142621D01*
X14682010Y13255721D01*
X14626296Y13359955D01*
X14551317Y13451317D01*
X14459955Y13526296D01*
X14396521Y13560202D01*
X14402903Y13625000D01*
X14400000Y13800000D01*
X14250000Y13950000D01*
X13412500Y13950000D01*
X13412500Y13930000D01*
X13112500Y13930000D01*
X13112500Y13950000D01*
X13092500Y13950000D01*
X13092500Y14250000D01*
X13112500Y14250000D01*
X13112500Y14270000D01*
X13412500Y14270000D01*
X13412500Y14250000D01*
X14250000Y14250000D01*
X14400000Y14400000D01*
X14402903Y14575000D01*
X14391318Y14692621D01*
X14357010Y14805721D01*
X14301296Y14909955D01*
X14226317Y15001317D01*
X14134955Y15076296D01*
X14030721Y15132010D01*
X13939679Y15159627D01*
X15069677Y15159627D01*
X15006273Y15096223D01*
%TA.AperFunction,Conductor*%
D21*
G36*
X15006273Y15096223D02*
G01*
X14929667Y14981573D01*
X14876900Y14854181D01*
X14849999Y14718943D01*
X14849999Y14581055D01*
X14876900Y14445817D01*
X14929667Y14318425D01*
X15006273Y14203775D01*
X15103775Y14106273D01*
X15218425Y14029667D01*
X15345817Y13976900D01*
X15481055Y13949999D01*
X15618943Y13949999D01*
X15754181Y13976900D01*
X15881573Y14029667D01*
X15941255Y14069545D01*
X16010351Y13985351D01*
X16050000Y13952812D01*
X16050001Y13947188D01*
X16010351Y13914649D01*
X15930829Y13817751D01*
X15871739Y13707201D01*
X15835352Y13587248D01*
X15823065Y13462500D01*
X15823065Y13254803D01*
X15337948Y12769686D01*
X15313148Y12749333D01*
X15292795Y12724533D01*
X15292792Y12724530D01*
X15231920Y12650358D01*
X15171563Y12537437D01*
X15134396Y12414912D01*
X15121846Y12287490D01*
X15124991Y12255559D01*
X15124990Y11344228D01*
X14762958Y10982196D01*
X14738158Y10961843D01*
X14717805Y10937043D01*
X14717802Y10937040D01*
X14656930Y10862868D01*
X14624361Y10801935D01*
X14596573Y10749948D01*
X14570506Y10664017D01*
X14510351Y10614649D01*
X14430829Y10517751D01*
X14371739Y10407201D01*
X14335352Y10287248D01*
X14323065Y10162500D01*
X14323065Y9562500D01*
X14335352Y9437752D01*
X14371739Y9317799D01*
X14430829Y9207249D01*
X14510351Y9110351D01*
X14607249Y9030829D01*
X14664926Y9000000D01*
X14607249Y8969171D01*
X14510351Y8889649D01*
X14430829Y8792751D01*
X14371739Y8682201D01*
X14335352Y8562248D01*
X14323065Y8437500D01*
X14323065Y7837500D01*
X14335352Y7712752D01*
X14371739Y7592799D01*
X14430829Y7482249D01*
X14510351Y7385351D01*
X14607249Y7305829D01*
X14717799Y7246739D01*
X14837752Y7210352D01*
X14962500Y7198065D01*
X15437500Y7198065D01*
X15562248Y7210352D01*
X15682201Y7246739D01*
X15792751Y7305829D01*
X15889649Y7385351D01*
X15932447Y7437500D01*
X15967553Y7437500D01*
X16010351Y7385351D01*
X16107249Y7305829D01*
X16217799Y7246739D01*
X16292660Y7224030D01*
X15374598Y6305968D01*
X15344079Y6280922D01*
X15319032Y6250402D01*
X15319031Y6250401D01*
X15244107Y6159106D01*
X15169821Y6020127D01*
X15124077Y5869327D01*
X15108630Y5712500D01*
X15112501Y5673200D01*
X15112500Y1758460D01*
X15071739Y1682201D01*
X15035352Y1562248D01*
X15023065Y1437500D01*
X15023065Y962500D01*
X15035352Y837752D01*
X15071739Y717799D01*
X15130829Y607249D01*
X15210351Y510351D01*
X15307249Y430829D01*
X15318154Y425000D01*
X14681846Y425000D01*
X14692751Y430829D01*
X14789649Y510351D01*
X14869171Y607249D01*
X14928261Y717799D01*
X14964648Y837752D01*
X14976935Y962500D01*
X14976935Y1437500D01*
X14964648Y1562248D01*
X14928261Y1682201D01*
X14869171Y1792751D01*
X14789649Y1889649D01*
X14692751Y1969171D01*
X14582201Y2028261D01*
X14462248Y2064648D01*
X14337500Y2076935D01*
X13837500Y2076935D01*
X13712752Y2064648D01*
X13592799Y2028261D01*
X13539926Y2000000D01*
X12521935Y2000000D01*
X12521935Y2050000D01*
X12514212Y2128414D01*
X12491340Y2203814D01*
X12454197Y2273303D01*
X12404211Y2334211D01*
X12343303Y2384197D01*
X12273814Y2421340D01*
X12198414Y2444212D01*
X12120000Y2451935D01*
X10420000Y2451935D01*
X10341586Y2444212D01*
X10266186Y2421340D01*
X10196697Y2384197D01*
X10135789Y2334211D01*
X10085803Y2273303D01*
X10048660Y2203814D01*
X10025788Y2128414D01*
X10018065Y2050000D01*
X10018065Y1861029D01*
X9881326Y2081457D01*
X9687240Y2289133D01*
X9456368Y2454954D01*
X9197582Y2572548D01*
X9103766Y2601000D01*
X8880000Y2491317D01*
X8880000Y1350000D01*
X8900000Y1350000D01*
X8900000Y1050000D01*
X8880000Y1050000D01*
X8880000Y1030000D01*
X8580000Y1030000D01*
X8580000Y1050000D01*
X7437774Y1050000D01*
X7328995Y826233D01*
X7428833Y560092D01*
X7512635Y425000D01*
X3176041Y425000D01*
X2027274Y1573767D01*
X7328995Y1573767D01*
X7437774Y1350000D01*
X8580000Y1350000D01*
X8580000Y2491317D01*
X8356234Y2601000D01*
X8262418Y2572548D01*
X8003632Y2454954D01*
X7772760Y2289133D01*
X7578674Y2081457D01*
X7428833Y1839908D01*
X7328995Y1573767D01*
X2027274Y1573767D01*
X1925000Y1676040D01*
X1925000Y2979134D01*
X1927055Y3000001D01*
X1925000Y3020868D01*
X1925000Y3020874D01*
X1918850Y3083314D01*
X1894548Y3163427D01*
X1855084Y3237260D01*
X1801974Y3301974D01*
X1785763Y3315278D01*
X960891Y4140149D01*
X1100000Y4207774D01*
X1100000Y5350000D01*
X1400000Y5350000D01*
X1400000Y4207774D01*
X1623767Y4098995D01*
X1889908Y4198833D01*
X2131457Y4348674D01*
X2339133Y4542760D01*
X2504954Y4773632D01*
X2622548Y5032418D01*
X2651000Y5126234D01*
X2541317Y5350000D01*
X1400000Y5350000D01*
X1100000Y5350000D01*
X1080000Y5350000D01*
X1080000Y5650000D01*
X1100000Y5650000D01*
X1100000Y5670000D01*
X1400000Y5670000D01*
X1400000Y5650000D01*
X2541317Y5650000D01*
X2651000Y5873766D01*
X2650626Y5875000D01*
X4472097Y5875000D01*
X4483682Y5757379D01*
X4517990Y5644279D01*
X4573704Y5540045D01*
X4648683Y5448683D01*
X4740045Y5373704D01*
X4844279Y5317990D01*
X4957379Y5283682D01*
X5075000Y5272097D01*
X5362500Y5275000D01*
X5512500Y5425000D01*
X5512500Y6450000D01*
X4625000Y6450000D01*
X4475000Y6300000D01*
X4472097Y5875000D01*
X2650626Y5875000D01*
X2622548Y5967582D01*
X2504954Y6226368D01*
X2339133Y6457240D01*
X2131457Y6651326D01*
X1889908Y6801167D01*
X1698735Y6872882D01*
X1842097Y6932265D01*
X2046828Y7069062D01*
X2220938Y7243172D01*
X2357735Y7447903D01*
X2451963Y7675389D01*
X2499127Y7912500D01*
X2672097Y7912500D01*
X2683682Y7794879D01*
X2717990Y7681779D01*
X2773704Y7577545D01*
X2848683Y7486183D01*
X2940045Y7411204D01*
X3044279Y7355490D01*
X3157379Y7321182D01*
X3275000Y7309597D01*
X3700000Y7312500D01*
X3850000Y7462500D01*
X3850000Y8350000D01*
X2825000Y8350000D01*
X2675000Y8200000D01*
X2672097Y7912500D01*
X2499127Y7912500D01*
X2500000Y7916886D01*
X2500000Y8163114D01*
X2451963Y8404611D01*
X2357735Y8632097D01*
X2220938Y8836828D01*
X2046828Y9010938D01*
X1842097Y9147735D01*
X1614611Y9241963D01*
X1373114Y9290000D01*
X1126886Y9290000D01*
X885389Y9241963D01*
X657903Y9147735D01*
X453172Y9010938D01*
X425000Y8982766D01*
X425000Y9328065D01*
X2100000Y9328065D01*
X2178414Y9335788D01*
X2253814Y9358660D01*
X2323303Y9395803D01*
X2384211Y9445789D01*
X2434197Y9506697D01*
X2471340Y9576186D01*
X2494212Y9651586D01*
X2501935Y9730000D01*
X2501935Y9780000D01*
X3061149Y9780000D01*
X3064012Y9776512D01*
X3162804Y9695436D01*
X3188213Y9681855D01*
X3157379Y9678818D01*
X3044279Y9644510D01*
X2940045Y9588796D01*
X2848683Y9513817D01*
X2773704Y9422455D01*
X2717990Y9318221D01*
X2683682Y9205121D01*
X2672097Y9087500D01*
X2675000Y8800000D01*
X2825000Y8650000D01*
X3850000Y8650000D01*
X3850000Y8670000D01*
X4150000Y8670000D01*
X4150000Y8650000D01*
X4170000Y8650000D01*
X4170000Y8350000D01*
X4150000Y8350000D01*
X4150000Y7462500D01*
X4300000Y7312500D01*
X4472190Y7311324D01*
X4475000Y6900000D01*
X4625000Y6750000D01*
X5512500Y6750000D01*
X5512500Y7650000D01*
X5650000Y7787500D01*
X5650000Y8625000D01*
X5630000Y8625000D01*
X5630000Y8925000D01*
X5650000Y8925000D01*
X5650000Y8945000D01*
X5950000Y8945000D01*
X5950000Y8925000D01*
X5970000Y8925000D01*
X5970000Y8625000D01*
X5950000Y8625000D01*
X5950000Y7912500D01*
X5812500Y7775000D01*
X5812500Y6750000D01*
X5832500Y6750000D01*
X5832500Y6450000D01*
X5812500Y6450000D01*
X5812500Y5425000D01*
X5962500Y5275000D01*
X6250000Y5272097D01*
X6298887Y5276912D01*
X6300000Y5265613D01*
X6300000Y5231056D01*
X6306742Y5197161D01*
X6310129Y5162777D01*
X6320159Y5129712D01*
X6326901Y5095818D01*
X6340124Y5063895D01*
X6350155Y5030826D01*
X6366445Y5000349D01*
X6379668Y4968426D01*
X6398865Y4939695D01*
X6415155Y4909219D01*
X6437074Y4882511D01*
X6456274Y4853776D01*
X6480716Y4829334D01*
X6502631Y4802631D01*
X6529334Y4780716D01*
X6553776Y4756274D01*
X6582511Y4737074D01*
X6609219Y4715155D01*
X6639695Y4698865D01*
X6668426Y4679668D01*
X6700349Y4666445D01*
X6730826Y4650155D01*
X6763895Y4640124D01*
X6795818Y4626901D01*
X6829712Y4620159D01*
X6862777Y4610129D01*
X6897161Y4606742D01*
X6931056Y4600000D01*
X6965613Y4600000D01*
X7000000Y4596613D01*
X7034387Y4600000D01*
X7068944Y4600000D01*
X7102839Y4606742D01*
X7137223Y4610129D01*
X7170288Y4620159D01*
X7204182Y4626901D01*
X7236105Y4640124D01*
X7269174Y4650155D01*
X7299651Y4666445D01*
X7331574Y4679668D01*
X7360305Y4698865D01*
X7390781Y4715155D01*
X7417490Y4737075D01*
X7446224Y4756274D01*
X7543726Y4853776D01*
X7543728Y4853779D01*
X8172630Y5482681D01*
X8202186Y5485592D01*
X8324485Y5522691D01*
X8437196Y5582936D01*
X8535988Y5664012D01*
X8617064Y5762804D01*
X8636946Y5800000D01*
X9360709Y5800000D01*
X9400000Y5796130D01*
X9439291Y5800000D01*
X9439293Y5800000D01*
X9556827Y5811576D01*
X9707628Y5857321D01*
X9846606Y5931607D01*
X9968422Y6031578D01*
X9993473Y6062103D01*
X10393469Y6462099D01*
X10468393Y6553394D01*
X10542678Y6692372D01*
X10588423Y6843172D01*
X10603869Y6999999D01*
X10588423Y7156826D01*
X10542678Y7307627D01*
X10500000Y7387473D01*
X10500000Y7723065D01*
X10630000Y7723065D01*
X10708414Y7730788D01*
X10783814Y7753660D01*
X10853303Y7790803D01*
X10914211Y7840789D01*
X10964197Y7901697D01*
X10990875Y7951607D01*
X11048017Y7957235D01*
X11142267Y7985825D01*
X11168786Y8000000D01*
X11268944Y8000000D01*
X11383035Y8022695D01*
X11398660Y7971186D01*
X11435803Y7901697D01*
X11485789Y7840789D01*
X11546697Y7790803D01*
X11616186Y7753660D01*
X11691586Y7730788D01*
X11770000Y7723065D01*
X11850000Y7723065D01*
X11850001Y6884397D01*
X11846613Y6850000D01*
X11851423Y6801167D01*
X11860129Y6712776D01*
X11872271Y6672750D01*
X11900155Y6580826D01*
X11965155Y6459219D01*
X12001318Y6415155D01*
X12052631Y6352630D01*
X12079342Y6330709D01*
X12156272Y6253779D01*
X12156274Y6253776D01*
X12253776Y6156274D01*
X12282510Y6137075D01*
X12309219Y6115155D01*
X12339695Y6098865D01*
X12368426Y6079668D01*
X12400349Y6066445D01*
X12430826Y6050155D01*
X12463895Y6040124D01*
X12495818Y6026901D01*
X12529710Y6020159D01*
X12562776Y6010129D01*
X12597162Y6006742D01*
X12631056Y6000000D01*
X12665612Y6000000D01*
X12699999Y5996613D01*
X12734386Y6000000D01*
X12768944Y6000000D01*
X12802840Y6006742D01*
X12837223Y6010129D01*
X12870288Y6020159D01*
X12904182Y6026901D01*
X12936105Y6040124D01*
X12969174Y6050155D01*
X12999651Y6066445D01*
X13031574Y6079668D01*
X13060305Y6098865D01*
X13090781Y6115155D01*
X13117489Y6137074D01*
X13146224Y6156274D01*
X13170666Y6180716D01*
X13197369Y6202631D01*
X13219284Y6229334D01*
X13243726Y6253776D01*
X13262926Y6282511D01*
X13284845Y6309219D01*
X13301135Y6339695D01*
X13320332Y6368426D01*
X13333555Y6400349D01*
X13349845Y6430826D01*
X13359876Y6463895D01*
X13373099Y6495818D01*
X13379841Y6529712D01*
X13389871Y6562777D01*
X13393258Y6597160D01*
X13400000Y6631056D01*
X13400000Y6665614D01*
X13403387Y6700001D01*
X13400000Y6734388D01*
X13400000Y6768944D01*
X13393258Y6802838D01*
X13389871Y6837224D01*
X13379841Y6870290D01*
X13373099Y6904182D01*
X13359876Y6936105D01*
X13349845Y6969174D01*
X13333555Y6999651D01*
X13320332Y7031574D01*
X13301135Y7060305D01*
X13284845Y7090781D01*
X13262925Y7117490D01*
X13250000Y7136834D01*
X13250000Y7723065D01*
X13330000Y7723065D01*
X13408414Y7730788D01*
X13483814Y7753660D01*
X13553303Y7790803D01*
X13614211Y7840789D01*
X13664197Y7901697D01*
X13701340Y7971186D01*
X13724212Y8046586D01*
X13731935Y8125000D01*
X13731935Y8628673D01*
X13756317Y8648683D01*
X13831296Y8740045D01*
X13887010Y8844279D01*
X13921318Y8957379D01*
X13932903Y9075000D01*
X13930000Y9100000D01*
X13780000Y9250000D01*
X12700000Y9250000D01*
X12700000Y9230000D01*
X12400000Y9230000D01*
X12400000Y9250000D01*
X12380000Y9250000D01*
X12380000Y9550000D01*
X12400000Y9550000D01*
X12400000Y9570000D01*
X12700000Y9570000D01*
X12700000Y9550000D01*
X13780000Y9550000D01*
X13930000Y9700000D01*
X13932903Y9725000D01*
X13921318Y9842621D01*
X13887010Y9955721D01*
X13831296Y10059955D01*
X13756317Y10151317D01*
X13731935Y10171327D01*
X13731935Y10675000D01*
X13724212Y10753414D01*
X13701340Y10828814D01*
X13664197Y10898303D01*
X13614211Y10959211D01*
X13594972Y10975000D01*
X13687502Y10975000D01*
X13687502Y11124998D01*
X13837500Y10975000D01*
X14125000Y10972097D01*
X14242621Y10983682D01*
X14355721Y11017990D01*
X14459955Y11073704D01*
X14551317Y11148683D01*
X14626296Y11240045D01*
X14682010Y11344279D01*
X14716318Y11457379D01*
X14727903Y11575000D01*
X14725000Y12000000D01*
X14575000Y12150000D01*
X13687500Y12150000D01*
X13687500Y12130000D01*
X13387500Y12130000D01*
X13387500Y12150000D01*
X13367500Y12150000D01*
X13367500Y12450000D01*
X13387500Y12450000D01*
X13387500Y12470000D01*
X13687500Y12470000D01*
X13687500Y12450000D01*
X14575000Y12450000D01*
X14725000Y12600000D01*
X14727903Y13025000D01*
X14716318Y13142621D01*
X14682010Y13255721D01*
X14626296Y13359955D01*
X14551317Y13451317D01*
X14459955Y13526296D01*
X14396521Y13560202D01*
X14402903Y13625000D01*
X14400000Y13800000D01*
X14250000Y13950000D01*
X13412500Y13950000D01*
X13412500Y13930000D01*
X13112500Y13930000D01*
X13112500Y13950000D01*
X13092500Y13950000D01*
X13092500Y14250000D01*
X13112500Y14250000D01*
X13112500Y14270000D01*
X13412500Y14270000D01*
X13412500Y14250000D01*
X14250000Y14250000D01*
X14400000Y14400000D01*
X14402903Y14575000D01*
X14391318Y14692621D01*
X14357010Y14805721D01*
X14301296Y14909955D01*
X14226317Y15001317D01*
X14134955Y15076296D01*
X14030721Y15132010D01*
X13939679Y15159627D01*
X15069677Y15159627D01*
X15006273Y15096223D01*
G37*
%TD.AperFunction*%
D20*
X8635352Y19487248D02*
X8623065Y19362500D01*
X8623065Y18762500D01*
X8635352Y18637752D01*
X8671739Y18517799D01*
X8730829Y18407249D01*
X8810351Y18310351D01*
X8907249Y18230829D01*
X8964926Y18200000D01*
X8907249Y18169171D01*
X8810351Y18089649D01*
X8767553Y18037500D01*
X8671886Y18037500D01*
X8637499Y18040887D01*
X8603112Y18037500D01*
X8603110Y18037500D01*
X8500276Y18027372D01*
X8368325Y17987345D01*
X8246719Y17922345D01*
X8188291Y17874395D01*
X8162500Y17876935D01*
X7688465Y17876935D01*
X7673099Y17954182D01*
X7620332Y18081574D01*
X7543726Y18196224D01*
X7446224Y18293726D01*
X7331574Y18370332D01*
X7204182Y18423099D01*
X7068944Y18450000D01*
X6931056Y18450000D01*
X6795818Y18423099D01*
X6668426Y18370332D01*
X6564944Y18301188D01*
X6549999Y18302660D01*
X6522991Y18300000D01*
X6522982Y18300000D01*
X6442181Y18292042D01*
X6338506Y18260592D01*
X6318690Y18250000D01*
X6242957Y18209521D01*
X6180195Y18158013D01*
X6180190Y18158008D01*
X6159210Y18140790D01*
X6141991Y18119809D01*
X5899118Y17876935D01*
X5837500Y17876935D01*
X5712752Y17864648D01*
X5592799Y17828261D01*
X5482249Y17769171D01*
X5385351Y17689649D01*
X5305829Y17592751D01*
X5246739Y17482201D01*
X5210352Y17362248D01*
X5198065Y17237500D01*
X5198065Y16907141D01*
X5098434Y16926959D01*
X5101935Y16962500D01*
X5101935Y17437500D01*
X5089648Y17562248D01*
X5053261Y17682201D01*
X4994171Y17792751D01*
X4914649Y17889649D01*
X4888734Y17910917D01*
X5086651Y18108833D01*
X5131056Y18100000D01*
X5268944Y18100000D01*
X5404182Y18126901D01*
X5531574Y18179668D01*
X5646224Y18256274D01*
X5743726Y18353776D01*
X5820332Y18468426D01*
X5873099Y18595818D01*
X5900000Y18731056D01*
X5900000Y18868944D01*
X5873099Y19004182D01*
X5820332Y19131574D01*
X5743726Y19246224D01*
X5646224Y19343726D01*
X5531574Y19420332D01*
X5404182Y19473099D01*
X5268944Y19500000D01*
X5131056Y19500000D01*
X4995818Y19473099D01*
X4868426Y19420332D01*
X4753776Y19343726D01*
X4656274Y19246224D01*
X4631407Y19209008D01*
X4630195Y19208013D01*
X4630190Y19208008D01*
X4609210Y19190790D01*
X4591992Y19169810D01*
X3792696Y18370513D01*
X3771710Y18353290D01*
X3702979Y18269542D01*
X3651908Y18173993D01*
X3620458Y18070318D01*
X3616233Y18027424D01*
X3507249Y17969171D01*
X3500886Y17963949D01*
X3476296Y18009955D01*
X3401317Y18101317D01*
X3309955Y18176296D01*
X3205721Y18232010D01*
X3092621Y18266318D01*
X2975000Y18277903D01*
X2737500Y18275000D01*
X2587500Y18125000D01*
X2587500Y17350000D01*
X2607500Y17350000D01*
X2607500Y17050000D01*
X2587500Y17050000D01*
X2587500Y16275000D01*
X2737500Y16125000D01*
X2975000Y16122097D01*
X3092621Y16133682D01*
X3205721Y16167990D01*
X3309955Y16223704D01*
X3401317Y16298683D01*
X3476296Y16390045D01*
X3500886Y16436051D01*
X3507249Y16430829D01*
X3617799Y16371739D01*
X3737752Y16335352D01*
X3862500Y16323065D01*
X4311052Y16323065D01*
X4306556Y16300465D01*
X4306556Y16162577D01*
X4333457Y16027339D01*
X4386224Y15899947D01*
X4462830Y15785297D01*
X4560332Y15687795D01*
X4674982Y15611189D01*
X4802374Y15558422D01*
X4937612Y15531521D01*
X5075500Y15531521D01*
X5210738Y15558422D01*
X5338130Y15611189D01*
X5443390Y15681521D01*
X5817013Y15681521D01*
X5844021Y15678861D01*
X5871029Y15681521D01*
X5871039Y15681521D01*
X5951840Y15689479D01*
X6055515Y15720929D01*
X6151063Y15772000D01*
X6206437Y15817445D01*
X6213825Y15823508D01*
X6234811Y15840731D01*
X6252034Y15861717D01*
X6507304Y16116987D01*
X6525240Y16131707D01*
X6562248Y16135352D01*
X6682201Y16171739D01*
X6792751Y16230829D01*
X6889649Y16310351D01*
X6969171Y16407249D01*
X7000000Y16464926D01*
X7030829Y16407249D01*
X7110351Y16310351D01*
X7207249Y16230829D01*
X7264926Y16200000D01*
X7131068Y16200000D01*
X6995830Y16173099D01*
X6868438Y16120332D01*
X6753788Y16043726D01*
X6656286Y15946224D01*
X6579680Y15831574D01*
X6526913Y15704182D01*
X6500012Y15568944D01*
X6500012Y15431056D01*
X6526913Y15295818D01*
X6579680Y15168426D01*
X6656286Y15053776D01*
X6753788Y14956274D01*
X6868438Y14879668D01*
X6995830Y14826901D01*
X7131068Y14800000D01*
X7268956Y14800000D01*
X7384027Y14822889D01*
X7435351Y14760351D01*
X7481689Y14722323D01*
X7382249Y14669171D01*
X7285351Y14589649D01*
X7252812Y14550000D01*
X7147188Y14550000D01*
X7114649Y14589649D01*
X7017751Y14669171D01*
X6907201Y14728261D01*
X6787248Y14764648D01*
X6662500Y14776935D01*
X6162500Y14776935D01*
X6037752Y14764648D01*
X5917799Y14728261D01*
X5807249Y14669171D01*
X5710351Y14589649D01*
X5656712Y14524289D01*
X5632010Y14605721D01*
X5576296Y14709955D01*
X5501317Y14801317D01*
X5409955Y14876296D01*
X5305721Y14932010D01*
X5192621Y14966318D01*
X5075000Y14977903D01*
X4887500Y14975000D01*
X4737500Y14825000D01*
X4737500Y14050000D01*
X4757500Y14050000D01*
X4757500Y13750000D01*
X4737500Y13750000D01*
X4737500Y12975000D01*
X4887500Y12825000D01*
X5075000Y12822097D01*
X5192621Y12833682D01*
X5305721Y12867990D01*
X5409955Y12923704D01*
X5501317Y12998683D01*
X5576296Y13090045D01*
X5632010Y13194279D01*
X5656712Y13275711D01*
X5710351Y13210351D01*
X5807249Y13130829D01*
X5917799Y13071739D01*
X6037752Y13035352D01*
X6162500Y13023065D01*
X6662500Y13023065D01*
X6787248Y13035352D01*
X6907201Y13071739D01*
X7017751Y13130829D01*
X7114649Y13210351D01*
X7147188Y13250000D01*
X7252812Y13250000D01*
X7285351Y13210351D01*
X7382249Y13130829D01*
X7387501Y13128022D01*
X7387500Y13071978D01*
X7382249Y13069171D01*
X7285351Y12989649D01*
X7205829Y12892751D01*
X7146739Y12782201D01*
X7110352Y12662248D01*
X7098065Y12537500D01*
X7098065Y12062500D01*
X7110352Y11937752D01*
X7146739Y11817799D01*
X7205829Y11707249D01*
X7285351Y11610351D01*
X7382249Y11530829D01*
X7436306Y11501935D01*
X7149999Y11501935D01*
X7022813Y11489408D01*
X6900515Y11452309D01*
X6787804Y11392064D01*
X6689012Y11310988D01*
X6679994Y11300000D01*
X6431342Y11300000D01*
X6392751Y11331671D01*
X6282201Y11390761D01*
X6162248Y11427148D01*
X6037500Y11439435D01*
X5562500Y11439435D01*
X5437752Y11427148D01*
X5317799Y11390761D01*
X5207249Y11331671D01*
X5168658Y11300000D01*
X4996298Y11300000D01*
X4935988Y11373488D01*
X4837196Y11454564D01*
X4724485Y11514809D01*
X4602186Y11551908D01*
X4475000Y11564435D01*
X3525000Y11564435D01*
X3397814Y11551908D01*
X3275515Y11514809D01*
X3162804Y11454564D01*
X3071947Y11380000D01*
X2501935Y11380000D01*
X2501935Y11430000D01*
X2494212Y11508414D01*
X2471340Y11583814D01*
X2434197Y11653303D01*
X2384211Y11714211D01*
X2323303Y11764197D01*
X2253814Y11801340D01*
X2178414Y11824212D01*
X2100000Y11831935D01*
X432975Y11831935D01*
X1785763Y13184722D01*
X1801974Y13198026D01*
X1855084Y13262740D01*
X1894548Y13336573D01*
X1912053Y13394279D01*
X1918850Y13416685D01*
X1919668Y13425000D01*
X3497097Y13425000D01*
X3508682Y13307379D01*
X3542990Y13194279D01*
X3598704Y13090045D01*
X3673683Y12998683D01*
X3765045Y12923704D01*
X3869279Y12867990D01*
X3982379Y12833682D01*
X4100000Y12822097D01*
X4287500Y12825000D01*
X4437500Y12975000D01*
X4437500Y13750000D01*
X3650000Y13750000D01*
X3500000Y13600000D01*
X3497097Y13425000D01*
X1919668Y13425000D01*
X1922261Y13451317D01*
X1925000Y13479126D01*
X1925000Y13479132D01*
X1927055Y13499999D01*
X1925000Y13520866D01*
X1925000Y14375000D01*
X3497097Y14375000D01*
X3500000Y14200000D01*
X3650000Y14050000D01*
X4437500Y14050000D01*
X4437500Y14825000D01*
X4287500Y14975000D01*
X4100000Y14977903D01*
X3982379Y14966318D01*
X3869279Y14932010D01*
X3765045Y14876296D01*
X3673683Y14801317D01*
X3598704Y14709955D01*
X3542990Y14605721D01*
X3508682Y14492621D01*
X3497097Y14375000D01*
X1925000Y14375000D01*
X1925000Y16122403D01*
X2137500Y16125000D01*
X2287500Y16275000D01*
X2287500Y17050000D01*
X2267500Y17050000D01*
X2267500Y17350000D01*
X2287500Y17350000D01*
X2287500Y18125000D01*
X2137500Y18275000D01*
X1925000Y18277597D01*
X1925000Y18323960D01*
X3176041Y19575000D01*
X8661971Y19575000D01*
X8635352Y19487248D01*
%TA.AperFunction,Conductor*%
D21*
G36*
X8635352Y19487248D02*
G01*
X8623065Y19362500D01*
X8623065Y18762500D01*
X8635352Y18637752D01*
X8671739Y18517799D01*
X8730829Y18407249D01*
X8810351Y18310351D01*
X8907249Y18230829D01*
X8964926Y18200000D01*
X8907249Y18169171D01*
X8810351Y18089649D01*
X8767553Y18037500D01*
X8671886Y18037500D01*
X8637499Y18040887D01*
X8603112Y18037500D01*
X8603110Y18037500D01*
X8500276Y18027372D01*
X8368325Y17987345D01*
X8246719Y17922345D01*
X8188291Y17874395D01*
X8162500Y17876935D01*
X7688465Y17876935D01*
X7673099Y17954182D01*
X7620332Y18081574D01*
X7543726Y18196224D01*
X7446224Y18293726D01*
X7331574Y18370332D01*
X7204182Y18423099D01*
X7068944Y18450000D01*
X6931056Y18450000D01*
X6795818Y18423099D01*
X6668426Y18370332D01*
X6564944Y18301188D01*
X6549999Y18302660D01*
X6522991Y18300000D01*
X6522982Y18300000D01*
X6442181Y18292042D01*
X6338506Y18260592D01*
X6318690Y18250000D01*
X6242957Y18209521D01*
X6180195Y18158013D01*
X6180190Y18158008D01*
X6159210Y18140790D01*
X6141991Y18119809D01*
X5899118Y17876935D01*
X5837500Y17876935D01*
X5712752Y17864648D01*
X5592799Y17828261D01*
X5482249Y17769171D01*
X5385351Y17689649D01*
X5305829Y17592751D01*
X5246739Y17482201D01*
X5210352Y17362248D01*
X5198065Y17237500D01*
X5198065Y16907141D01*
X5098434Y16926959D01*
X5101935Y16962500D01*
X5101935Y17437500D01*
X5089648Y17562248D01*
X5053261Y17682201D01*
X4994171Y17792751D01*
X4914649Y17889649D01*
X4888734Y17910917D01*
X5086651Y18108833D01*
X5131056Y18100000D01*
X5268944Y18100000D01*
X5404182Y18126901D01*
X5531574Y18179668D01*
X5646224Y18256274D01*
X5743726Y18353776D01*
X5820332Y18468426D01*
X5873099Y18595818D01*
X5900000Y18731056D01*
X5900000Y18868944D01*
X5873099Y19004182D01*
X5820332Y19131574D01*
X5743726Y19246224D01*
X5646224Y19343726D01*
X5531574Y19420332D01*
X5404182Y19473099D01*
X5268944Y19500000D01*
X5131056Y19500000D01*
X4995818Y19473099D01*
X4868426Y19420332D01*
X4753776Y19343726D01*
X4656274Y19246224D01*
X4631407Y19209008D01*
X4630195Y19208013D01*
X4630190Y19208008D01*
X4609210Y19190790D01*
X4591992Y19169810D01*
X3792696Y18370513D01*
X3771710Y18353290D01*
X3702979Y18269542D01*
X3651908Y18173993D01*
X3620458Y18070318D01*
X3616233Y18027424D01*
X3507249Y17969171D01*
X3500886Y17963949D01*
X3476296Y18009955D01*
X3401317Y18101317D01*
X3309955Y18176296D01*
X3205721Y18232010D01*
X3092621Y18266318D01*
X2975000Y18277903D01*
X2737500Y18275000D01*
X2587500Y18125000D01*
X2587500Y17350000D01*
X2607500Y17350000D01*
X2607500Y17050000D01*
X2587500Y17050000D01*
X2587500Y16275000D01*
X2737500Y16125000D01*
X2975000Y16122097D01*
X3092621Y16133682D01*
X3205721Y16167990D01*
X3309955Y16223704D01*
X3401317Y16298683D01*
X3476296Y16390045D01*
X3500886Y16436051D01*
X3507249Y16430829D01*
X3617799Y16371739D01*
X3737752Y16335352D01*
X3862500Y16323065D01*
X4311052Y16323065D01*
X4306556Y16300465D01*
X4306556Y16162577D01*
X4333457Y16027339D01*
X4386224Y15899947D01*
X4462830Y15785297D01*
X4560332Y15687795D01*
X4674982Y15611189D01*
X4802374Y15558422D01*
X4937612Y15531521D01*
X5075500Y15531521D01*
X5210738Y15558422D01*
X5338130Y15611189D01*
X5443390Y15681521D01*
X5817013Y15681521D01*
X5844021Y15678861D01*
X5871029Y15681521D01*
X5871039Y15681521D01*
X5951840Y15689479D01*
X6055515Y15720929D01*
X6151063Y15772000D01*
X6206437Y15817445D01*
X6213825Y15823508D01*
X6234811Y15840731D01*
X6252034Y15861717D01*
X6507304Y16116987D01*
X6525240Y16131707D01*
X6562248Y16135352D01*
X6682201Y16171739D01*
X6792751Y16230829D01*
X6889649Y16310351D01*
X6969171Y16407249D01*
X7000000Y16464926D01*
X7030829Y16407249D01*
X7110351Y16310351D01*
X7207249Y16230829D01*
X7264926Y16200000D01*
X7131068Y16200000D01*
X6995830Y16173099D01*
X6868438Y16120332D01*
X6753788Y16043726D01*
X6656286Y15946224D01*
X6579680Y15831574D01*
X6526913Y15704182D01*
X6500012Y15568944D01*
X6500012Y15431056D01*
X6526913Y15295818D01*
X6579680Y15168426D01*
X6656286Y15053776D01*
X6753788Y14956274D01*
X6868438Y14879668D01*
X6995830Y14826901D01*
X7131068Y14800000D01*
X7268956Y14800000D01*
X7384027Y14822889D01*
X7435351Y14760351D01*
X7481689Y14722323D01*
X7382249Y14669171D01*
X7285351Y14589649D01*
X7252812Y14550000D01*
X7147188Y14550000D01*
X7114649Y14589649D01*
X7017751Y14669171D01*
X6907201Y14728261D01*
X6787248Y14764648D01*
X6662500Y14776935D01*
X6162500Y14776935D01*
X6037752Y14764648D01*
X5917799Y14728261D01*
X5807249Y14669171D01*
X5710351Y14589649D01*
X5656712Y14524289D01*
X5632010Y14605721D01*
X5576296Y14709955D01*
X5501317Y14801317D01*
X5409955Y14876296D01*
X5305721Y14932010D01*
X5192621Y14966318D01*
X5075000Y14977903D01*
X4887500Y14975000D01*
X4737500Y14825000D01*
X4737500Y14050000D01*
X4757500Y14050000D01*
X4757500Y13750000D01*
X4737500Y13750000D01*
X4737500Y12975000D01*
X4887500Y12825000D01*
X5075000Y12822097D01*
X5192621Y12833682D01*
X5305721Y12867990D01*
X5409955Y12923704D01*
X5501317Y12998683D01*
X5576296Y13090045D01*
X5632010Y13194279D01*
X5656712Y13275711D01*
X5710351Y13210351D01*
X5807249Y13130829D01*
X5917799Y13071739D01*
X6037752Y13035352D01*
X6162500Y13023065D01*
X6662500Y13023065D01*
X6787248Y13035352D01*
X6907201Y13071739D01*
X7017751Y13130829D01*
X7114649Y13210351D01*
X7147188Y13250000D01*
X7252812Y13250000D01*
X7285351Y13210351D01*
X7382249Y13130829D01*
X7387501Y13128022D01*
X7387500Y13071978D01*
X7382249Y13069171D01*
X7285351Y12989649D01*
X7205829Y12892751D01*
X7146739Y12782201D01*
X7110352Y12662248D01*
X7098065Y12537500D01*
X7098065Y12062500D01*
X7110352Y11937752D01*
X7146739Y11817799D01*
X7205829Y11707249D01*
X7285351Y11610351D01*
X7382249Y11530829D01*
X7436306Y11501935D01*
X7149999Y11501935D01*
X7022813Y11489408D01*
X6900515Y11452309D01*
X6787804Y11392064D01*
X6689012Y11310988D01*
X6679994Y11300000D01*
X6431342Y11300000D01*
X6392751Y11331671D01*
X6282201Y11390761D01*
X6162248Y11427148D01*
X6037500Y11439435D01*
X5562500Y11439435D01*
X5437752Y11427148D01*
X5317799Y11390761D01*
X5207249Y11331671D01*
X5168658Y11300000D01*
X4996298Y11300000D01*
X4935988Y11373488D01*
X4837196Y11454564D01*
X4724485Y11514809D01*
X4602186Y11551908D01*
X4475000Y11564435D01*
X3525000Y11564435D01*
X3397814Y11551908D01*
X3275515Y11514809D01*
X3162804Y11454564D01*
X3071947Y11380000D01*
X2501935Y11380000D01*
X2501935Y11430000D01*
X2494212Y11508414D01*
X2471340Y11583814D01*
X2434197Y11653303D01*
X2384211Y11714211D01*
X2323303Y11764197D01*
X2253814Y11801340D01*
X2178414Y11824212D01*
X2100000Y11831935D01*
X432975Y11831935D01*
X1785763Y13184722D01*
X1801974Y13198026D01*
X1855084Y13262740D01*
X1894548Y13336573D01*
X1912053Y13394279D01*
X1918850Y13416685D01*
X1919668Y13425000D01*
X3497097Y13425000D01*
X3508682Y13307379D01*
X3542990Y13194279D01*
X3598704Y13090045D01*
X3673683Y12998683D01*
X3765045Y12923704D01*
X3869279Y12867990D01*
X3982379Y12833682D01*
X4100000Y12822097D01*
X4287500Y12825000D01*
X4437500Y12975000D01*
X4437500Y13750000D01*
X3650000Y13750000D01*
X3500000Y13600000D01*
X3497097Y13425000D01*
X1919668Y13425000D01*
X1922261Y13451317D01*
X1925000Y13479126D01*
X1925000Y13479132D01*
X1927055Y13499999D01*
X1925000Y13520866D01*
X1925000Y14375000D01*
X3497097Y14375000D01*
X3500000Y14200000D01*
X3650000Y14050000D01*
X4437500Y14050000D01*
X4437500Y14825000D01*
X4287500Y14975000D01*
X4100000Y14977903D01*
X3982379Y14966318D01*
X3869279Y14932010D01*
X3765045Y14876296D01*
X3673683Y14801317D01*
X3598704Y14709955D01*
X3542990Y14605721D01*
X3508682Y14492621D01*
X3497097Y14375000D01*
X1925000Y14375000D01*
X1925000Y16122403D01*
X2137500Y16125000D01*
X2287500Y16275000D01*
X2287500Y17050000D01*
X2267500Y17050000D01*
X2267500Y17350000D01*
X2287500Y17350000D01*
X2287500Y18125000D01*
X2137500Y18275000D01*
X1925000Y18277597D01*
X1925000Y18323960D01*
X3176041Y19575000D01*
X8661971Y19575000D01*
X8635352Y19487248D01*
G37*
%TD.AperFunction*%
D20*
X11636618Y14976935D02*
X11237500Y14976935D01*
X11112752Y14964648D01*
X11050009Y14945615D01*
X11052903Y14975000D01*
X11050000Y15150000D01*
X10900000Y15300000D01*
X10062500Y15300000D01*
X10062500Y15280000D01*
X9762500Y15280000D01*
X9762500Y15300000D01*
X9742500Y15300000D01*
X9742500Y15600000D01*
X9762500Y15600000D01*
X9762500Y15620000D01*
X10062500Y15620000D01*
X10062500Y15600000D01*
X10900000Y15600000D01*
X11025010Y15725010D01*
X12384692Y15725010D01*
X11636618Y14976935D01*
%TA.AperFunction,Conductor*%
D21*
G36*
X11636618Y14976935D02*
G01*
X11237500Y14976935D01*
X11112752Y14964648D01*
X11050009Y14945615D01*
X11052903Y14975000D01*
X11050000Y15150000D01*
X10900000Y15300000D01*
X10062500Y15300000D01*
X10062500Y15280000D01*
X9762500Y15280000D01*
X9762500Y15300000D01*
X9742500Y15300000D01*
X9742500Y15600000D01*
X9762500Y15600000D01*
X9762500Y15620000D01*
X10062500Y15620000D01*
X10062500Y15600000D01*
X10900000Y15600000D01*
X11025010Y15725010D01*
X12384692Y15725010D01*
X11636618Y14976935D01*
G37*
%TD.AperFunction*%
D20*
X18075000Y18323959D02*
X18075000Y16056738D01*
X17576935Y16554803D01*
X17576935Y16762500D01*
X17570760Y16825189D01*
X17581574Y16829668D01*
X17696224Y16906274D01*
X17793726Y17003776D01*
X17870332Y17118426D01*
X17923099Y17245818D01*
X17950000Y17381056D01*
X17950000Y17518944D01*
X17923099Y17654182D01*
X17870332Y17781574D01*
X17793726Y17896224D01*
X17696224Y17993726D01*
X17581574Y18070332D01*
X17454182Y18123099D01*
X17318944Y18150000D01*
X17181056Y18150000D01*
X17045818Y18123099D01*
X16918426Y18070332D01*
X16813166Y18000000D01*
X16383877Y18000000D01*
X16400000Y18081056D01*
X16400000Y18218944D01*
X16373099Y18354182D01*
X16320332Y18481574D01*
X16243726Y18596224D01*
X16146224Y18693726D01*
X16031574Y18770332D01*
X15904182Y18823099D01*
X15776935Y18848410D01*
X15776935Y19362500D01*
X15764648Y19487248D01*
X15738029Y19575000D01*
X16823960Y19575000D01*
X18075000Y18323959D01*
%TA.AperFunction,Conductor*%
D21*
G36*
X18075000Y18323959D02*
G01*
X18075000Y16056738D01*
X17576935Y16554803D01*
X17576935Y16762500D01*
X17570760Y16825189D01*
X17581574Y16829668D01*
X17696224Y16906274D01*
X17793726Y17003776D01*
X17870332Y17118426D01*
X17923099Y17245818D01*
X17950000Y17381056D01*
X17950000Y17518944D01*
X17923099Y17654182D01*
X17870332Y17781574D01*
X17793726Y17896224D01*
X17696224Y17993726D01*
X17581574Y18070332D01*
X17454182Y18123099D01*
X17318944Y18150000D01*
X17181056Y18150000D01*
X17045818Y18123099D01*
X16918426Y18070332D01*
X16813166Y18000000D01*
X16383877Y18000000D01*
X16400000Y18081056D01*
X16400000Y18218944D01*
X16373099Y18354182D01*
X16320332Y18481574D01*
X16243726Y18596224D01*
X16146224Y18693726D01*
X16031574Y18770332D01*
X15904182Y18823099D01*
X15776935Y18848410D01*
X15776935Y19362500D01*
X15764648Y19487248D01*
X15738029Y19575000D01*
X16823960Y19575000D01*
X18075000Y18323959D01*
G37*
%TD.AperFunction*%
D20*
X13947082Y19567403D02*
X13848119Y19537383D01*
X13756914Y19488633D01*
X13676973Y19423027D01*
X13660534Y19402996D01*
X13657538Y19400000D01*
X13631056Y19400000D01*
X13495818Y19373099D01*
X13368426Y19320332D01*
X13253776Y19243726D01*
X13156274Y19146224D01*
X13079668Y19031574D01*
X13026901Y18904182D01*
X13000000Y18768944D01*
X13000000Y18631056D01*
X13026901Y18495818D01*
X13079668Y18368426D01*
X13156274Y18253776D01*
X13253776Y18156274D01*
X13368426Y18079668D01*
X13495818Y18026901D01*
X13631056Y18000000D01*
X13768944Y18000000D01*
X13904182Y18026901D01*
X14031574Y18079668D01*
X14146224Y18156274D01*
X14243726Y18253776D01*
X14256320Y18272625D01*
X14307249Y18230829D01*
X14364926Y18200000D01*
X14307249Y18169171D01*
X14210351Y18089649D01*
X14130829Y17992751D01*
X14071739Y17882201D01*
X14035352Y17762248D01*
X14023065Y17637500D01*
X14023065Y17037500D01*
X14035352Y16912752D01*
X14061968Y16825010D01*
X11378906Y16825010D01*
X11400000Y16931056D01*
X11400000Y17068944D01*
X11373099Y17204182D01*
X11320332Y17331574D01*
X11243726Y17446224D01*
X11146224Y17543726D01*
X11031574Y17620332D01*
X10975807Y17643431D01*
X10844700Y17774538D01*
X10824343Y17799343D01*
X10725368Y17880570D01*
X10612448Y17940927D01*
X10489922Y17978095D01*
X10394432Y17987500D01*
X10394421Y17987500D01*
X10362500Y17990644D01*
X10330579Y17987500D01*
X10271978Y17987500D01*
X10269171Y17992751D01*
X10189649Y18089649D01*
X10092751Y18169171D01*
X10035074Y18200000D01*
X10092751Y18230829D01*
X10140244Y18269806D01*
X10153776Y18256274D01*
X10182510Y18237075D01*
X10209219Y18215155D01*
X10239695Y18198865D01*
X10268426Y18179668D01*
X10300349Y18166445D01*
X10330826Y18150155D01*
X10363896Y18140123D01*
X10395818Y18126901D01*
X10429708Y18120160D01*
X10462775Y18110129D01*
X10497162Y18106742D01*
X10531056Y18100000D01*
X10565612Y18100000D01*
X10599999Y18096613D01*
X10634386Y18100000D01*
X10668944Y18100000D01*
X10702840Y18106742D01*
X10737223Y18110129D01*
X10770288Y18120159D01*
X10804182Y18126901D01*
X10836105Y18140124D01*
X10869174Y18150155D01*
X10899651Y18166445D01*
X10931574Y18179668D01*
X10960305Y18198865D01*
X10990781Y18215155D01*
X11017489Y18237074D01*
X11046224Y18256274D01*
X11070666Y18280716D01*
X11097369Y18302631D01*
X11119284Y18329334D01*
X11143726Y18353776D01*
X11162926Y18382511D01*
X11184845Y18409219D01*
X11201135Y18439695D01*
X11220332Y18468426D01*
X11233555Y18500349D01*
X11249845Y18530826D01*
X11259876Y18563895D01*
X11273099Y18595818D01*
X11279841Y18629712D01*
X11289871Y18662777D01*
X11293258Y18697160D01*
X11300000Y18731056D01*
X11300000Y18765614D01*
X11303387Y18800001D01*
X11300000Y18834388D01*
X11300000Y18868944D01*
X11293258Y18902838D01*
X11289871Y18937225D01*
X11279840Y18970292D01*
X11273099Y19004182D01*
X11259877Y19036104D01*
X11249845Y19069174D01*
X11233555Y19099651D01*
X11220332Y19131574D01*
X11201135Y19160305D01*
X11184845Y19190781D01*
X11162925Y19217490D01*
X11143726Y19246224D01*
X11046224Y19343726D01*
X11046221Y19343728D01*
X10856796Y19533153D01*
X10834870Y19559870D01*
X10816434Y19575000D01*
X14024212Y19575000D01*
X13947082Y19567403D01*
%TA.AperFunction,Conductor*%
D21*
G36*
X13947082Y19567403D02*
G01*
X13848119Y19537383D01*
X13756914Y19488633D01*
X13676973Y19423027D01*
X13660534Y19402996D01*
X13657538Y19400000D01*
X13631056Y19400000D01*
X13495818Y19373099D01*
X13368426Y19320332D01*
X13253776Y19243726D01*
X13156274Y19146224D01*
X13079668Y19031574D01*
X13026901Y18904182D01*
X13000000Y18768944D01*
X13000000Y18631056D01*
X13026901Y18495818D01*
X13079668Y18368426D01*
X13156274Y18253776D01*
X13253776Y18156274D01*
X13368426Y18079668D01*
X13495818Y18026901D01*
X13631056Y18000000D01*
X13768944Y18000000D01*
X13904182Y18026901D01*
X14031574Y18079668D01*
X14146224Y18156274D01*
X14243726Y18253776D01*
X14256320Y18272625D01*
X14307249Y18230829D01*
X14364926Y18200000D01*
X14307249Y18169171D01*
X14210351Y18089649D01*
X14130829Y17992751D01*
X14071739Y17882201D01*
X14035352Y17762248D01*
X14023065Y17637500D01*
X14023065Y17037500D01*
X14035352Y16912752D01*
X14061968Y16825010D01*
X11378906Y16825010D01*
X11400000Y16931056D01*
X11400000Y17068944D01*
X11373099Y17204182D01*
X11320332Y17331574D01*
X11243726Y17446224D01*
X11146224Y17543726D01*
X11031574Y17620332D01*
X10975807Y17643431D01*
X10844700Y17774538D01*
X10824343Y17799343D01*
X10725368Y17880570D01*
X10612448Y17940927D01*
X10489922Y17978095D01*
X10394432Y17987500D01*
X10394421Y17987500D01*
X10362500Y17990644D01*
X10330579Y17987500D01*
X10271978Y17987500D01*
X10269171Y17992751D01*
X10189649Y18089649D01*
X10092751Y18169171D01*
X10035074Y18200000D01*
X10092751Y18230829D01*
X10140244Y18269806D01*
X10153776Y18256274D01*
X10182510Y18237075D01*
X10209219Y18215155D01*
X10239695Y18198865D01*
X10268426Y18179668D01*
X10300349Y18166445D01*
X10330826Y18150155D01*
X10363896Y18140123D01*
X10395818Y18126901D01*
X10429708Y18120160D01*
X10462775Y18110129D01*
X10497162Y18106742D01*
X10531056Y18100000D01*
X10565612Y18100000D01*
X10599999Y18096613D01*
X10634386Y18100000D01*
X10668944Y18100000D01*
X10702840Y18106742D01*
X10737223Y18110129D01*
X10770288Y18120159D01*
X10804182Y18126901D01*
X10836105Y18140124D01*
X10869174Y18150155D01*
X10899651Y18166445D01*
X10931574Y18179668D01*
X10960305Y18198865D01*
X10990781Y18215155D01*
X11017489Y18237074D01*
X11046224Y18256274D01*
X11070666Y18280716D01*
X11097369Y18302631D01*
X11119284Y18329334D01*
X11143726Y18353776D01*
X11162926Y18382511D01*
X11184845Y18409219D01*
X11201135Y18439695D01*
X11220332Y18468426D01*
X11233555Y18500349D01*
X11249845Y18530826D01*
X11259876Y18563895D01*
X11273099Y18595818D01*
X11279841Y18629712D01*
X11289871Y18662777D01*
X11293258Y18697160D01*
X11300000Y18731056D01*
X11300000Y18765614D01*
X11303387Y18800001D01*
X11300000Y18834388D01*
X11300000Y18868944D01*
X11293258Y18902838D01*
X11289871Y18937225D01*
X11279840Y18970292D01*
X11273099Y19004182D01*
X11259877Y19036104D01*
X11249845Y19069174D01*
X11233555Y19099651D01*
X11220332Y19131574D01*
X11201135Y19160305D01*
X11184845Y19190781D01*
X11162925Y19217490D01*
X11143726Y19246224D01*
X11046224Y19343726D01*
X11046221Y19343728D01*
X10856796Y19533153D01*
X10834870Y19559870D01*
X10816434Y19575000D01*
X14024212Y19575000D01*
X13947082Y19567403D01*
G37*
%TD.AperFunction*%
%TD*%
M02*
