%TF.GenerationSoftware,KiCad,Pcbnew,5.99.0+really5.1.10+dfsg1-1*%
%TF.CreationDate,2021-11-14T15:35:52+01:00*%
%TF.ProjectId,GBPOCKET_DCDC,4742504f-434b-4455-945f-444344432e6b,Rev1*%
%TF.SameCoordinates,PX7102aa0PY5f5e100*%
%TF.FileFunction,Soldermask,Top*%
%TF.FilePolarity,Negative*%
%FSLAX46Y46*%
G04 Gerber Fmt 4.6, Leading zero omitted, Abs format (unit mm)*
G04 Created by KiCad (PCBNEW 5.99.0+really5.1.10+dfsg1-1) date 2021-11-14 15:35:52*
%MOMM*%
%LPD*%
G01*
G04 APERTURE LIST*
%ADD10O,1.700000X1.700000*%
%ADD11R,1.700000X1.700000*%
%ADD12R,1.560000X0.650000*%
G04 APERTURE END LIST*
D10*
%TO.C,J3*%
X8730000Y1200000D03*
D11*
X11270000Y1200000D03*
%TD*%
%TO.C,FB1*%
G36*
G01*
X8050001Y9950000D02*
X7149999Y9950000D01*
G75*
G02*
X6900000Y10199999I0J249999D01*
G01*
X6900000Y10850001D01*
G75*
G02*
X7149999Y11100000I249999J0D01*
G01*
X8050001Y11100000D01*
G75*
G02*
X8300000Y10850001I0J-249999D01*
G01*
X8300000Y10199999D01*
G75*
G02*
X8050001Y9950000I-249999J0D01*
G01*
G37*
G36*
G01*
X8050001Y7900000D02*
X7149999Y7900000D01*
G75*
G02*
X6900000Y8149999I0J249999D01*
G01*
X6900000Y8800001D01*
G75*
G02*
X7149999Y9050000I249999J0D01*
G01*
X8050001Y9050000D01*
G75*
G02*
X8300000Y8800001I0J-249999D01*
G01*
X8300000Y8149999D01*
G75*
G02*
X8050001Y7900000I-249999J0D01*
G01*
G37*
%TD*%
%TO.C,C12*%
G36*
G01*
X6250000Y7075000D02*
X6250000Y6125000D01*
G75*
G02*
X6000000Y5875000I-250000J0D01*
G01*
X5325000Y5875000D01*
G75*
G02*
X5075000Y6125000I0J250000D01*
G01*
X5075000Y7075000D01*
G75*
G02*
X5325000Y7325000I250000J0D01*
G01*
X6000000Y7325000D01*
G75*
G02*
X6250000Y7075000I0J-250000D01*
G01*
G37*
G36*
G01*
X8325000Y7075000D02*
X8325000Y6125000D01*
G75*
G02*
X8075000Y5875000I-250000J0D01*
G01*
X7400000Y5875000D01*
G75*
G02*
X7150000Y6125000I0J250000D01*
G01*
X7150000Y7075000D01*
G75*
G02*
X7400000Y7325000I250000J0D01*
G01*
X8075000Y7325000D01*
G75*
G02*
X8325000Y7075000I0J-250000D01*
G01*
G37*
%TD*%
%TO.C,R6*%
G36*
G01*
X14575000Y1437500D02*
X14575000Y962500D01*
G75*
G02*
X14337500Y725000I-237500J0D01*
G01*
X13837500Y725000D01*
G75*
G02*
X13600000Y962500I0J237500D01*
G01*
X13600000Y1437500D01*
G75*
G02*
X13837500Y1675000I237500J0D01*
G01*
X14337500Y1675000D01*
G75*
G02*
X14575000Y1437500I0J-237500D01*
G01*
G37*
G36*
G01*
X16400000Y1437500D02*
X16400000Y962500D01*
G75*
G02*
X16162500Y725000I-237500J0D01*
G01*
X15662500Y725000D01*
G75*
G02*
X15425000Y962500I0J237500D01*
G01*
X15425000Y1437500D01*
G75*
G02*
X15662500Y1675000I237500J0D01*
G01*
X16162500Y1675000D01*
G75*
G02*
X16400000Y1437500I0J-237500D01*
G01*
G37*
%TD*%
D10*
%TO.C,J2*%
X1250000Y5500000D03*
X1250000Y8040000D03*
D11*
X1250000Y10580000D03*
%TD*%
D12*
%TO.C,U1*%
X9850000Y9400000D03*
X9850000Y8450000D03*
X9850000Y10350000D03*
X12550000Y10350000D03*
X12550000Y9400000D03*
X12550000Y8450000D03*
%TD*%
%TO.C,R5*%
G36*
G01*
X5075000Y14137500D02*
X5075000Y13662500D01*
G75*
G02*
X4837500Y13425000I-237500J0D01*
G01*
X4337500Y13425000D01*
G75*
G02*
X4100000Y13662500I0J237500D01*
G01*
X4100000Y14137500D01*
G75*
G02*
X4337500Y14375000I237500J0D01*
G01*
X4837500Y14375000D01*
G75*
G02*
X5075000Y14137500I0J-237500D01*
G01*
G37*
G36*
G01*
X6900000Y14137500D02*
X6900000Y13662500D01*
G75*
G02*
X6662500Y13425000I-237500J0D01*
G01*
X6162500Y13425000D01*
G75*
G02*
X5925000Y13662500I0J237500D01*
G01*
X5925000Y14137500D01*
G75*
G02*
X6162500Y14375000I237500J0D01*
G01*
X6662500Y14375000D01*
G75*
G02*
X6900000Y14137500I0J-237500D01*
G01*
G37*
%TD*%
%TO.C,R4*%
G36*
G01*
X8475000Y14137500D02*
X8475000Y13662500D01*
G75*
G02*
X8237500Y13425000I-237500J0D01*
G01*
X7737500Y13425000D01*
G75*
G02*
X7500000Y13662500I0J237500D01*
G01*
X7500000Y14137500D01*
G75*
G02*
X7737500Y14375000I237500J0D01*
G01*
X8237500Y14375000D01*
G75*
G02*
X8475000Y14137500I0J-237500D01*
G01*
G37*
G36*
G01*
X10300000Y14137500D02*
X10300000Y13662500D01*
G75*
G02*
X10062500Y13425000I-237500J0D01*
G01*
X9562500Y13425000D01*
G75*
G02*
X9325000Y13662500I0J237500D01*
G01*
X9325000Y14137500D01*
G75*
G02*
X9562500Y14375000I237500J0D01*
G01*
X10062500Y14375000D01*
G75*
G02*
X10300000Y14137500I0J-237500D01*
G01*
G37*
%TD*%
%TO.C,R3*%
G36*
G01*
X16462500Y8575000D02*
X16937500Y8575000D01*
G75*
G02*
X17175000Y8337500I0J-237500D01*
G01*
X17175000Y7837500D01*
G75*
G02*
X16937500Y7600000I-237500J0D01*
G01*
X16462500Y7600000D01*
G75*
G02*
X16225000Y7837500I0J237500D01*
G01*
X16225000Y8337500D01*
G75*
G02*
X16462500Y8575000I237500J0D01*
G01*
G37*
G36*
G01*
X16462500Y10400000D02*
X16937500Y10400000D01*
G75*
G02*
X17175000Y10162500I0J-237500D01*
G01*
X17175000Y9662500D01*
G75*
G02*
X16937500Y9425000I-237500J0D01*
G01*
X16462500Y9425000D01*
G75*
G02*
X16225000Y9662500I0J237500D01*
G01*
X16225000Y10162500D01*
G75*
G02*
X16462500Y10400000I237500J0D01*
G01*
G37*
%TD*%
%TO.C,R2*%
G36*
G01*
X16462500Y11875000D02*
X16937500Y11875000D01*
G75*
G02*
X17175000Y11637500I0J-237500D01*
G01*
X17175000Y11137500D01*
G75*
G02*
X16937500Y10900000I-237500J0D01*
G01*
X16462500Y10900000D01*
G75*
G02*
X16225000Y11137500I0J237500D01*
G01*
X16225000Y11637500D01*
G75*
G02*
X16462500Y11875000I237500J0D01*
G01*
G37*
G36*
G01*
X16462500Y13700000D02*
X16937500Y13700000D01*
G75*
G02*
X17175000Y13462500I0J-237500D01*
G01*
X17175000Y12962500D01*
G75*
G02*
X16937500Y12725000I-237500J0D01*
G01*
X16462500Y12725000D01*
G75*
G02*
X16225000Y12962500I0J237500D01*
G01*
X16225000Y13462500D01*
G75*
G02*
X16462500Y13700000I237500J0D01*
G01*
G37*
%TD*%
%TO.C,R1*%
G36*
G01*
X16462500Y15175000D02*
X16937500Y15175000D01*
G75*
G02*
X17175000Y14937500I0J-237500D01*
G01*
X17175000Y14437500D01*
G75*
G02*
X16937500Y14200000I-237500J0D01*
G01*
X16462500Y14200000D01*
G75*
G02*
X16225000Y14437500I0J237500D01*
G01*
X16225000Y14937500D01*
G75*
G02*
X16462500Y15175000I237500J0D01*
G01*
G37*
G36*
G01*
X16462500Y17000000D02*
X16937500Y17000000D01*
G75*
G02*
X17175000Y16762500I0J-237500D01*
G01*
X17175000Y16262500D01*
G75*
G02*
X16937500Y16025000I-237500J0D01*
G01*
X16462500Y16025000D01*
G75*
G02*
X16225000Y16262500I0J237500D01*
G01*
X16225000Y16762500D01*
G75*
G02*
X16462500Y17000000I237500J0D01*
G01*
G37*
%TD*%
D10*
%TO.C,J1*%
X18750000Y5500000D03*
X18750000Y8040000D03*
D11*
X18750000Y10580000D03*
%TD*%
%TO.C,C11*%
G36*
G01*
X8575000Y12537500D02*
X8575000Y12062500D01*
G75*
G02*
X8337500Y11825000I-237500J0D01*
G01*
X7737500Y11825000D01*
G75*
G02*
X7500000Y12062500I0J237500D01*
G01*
X7500000Y12537500D01*
G75*
G02*
X7737500Y12775000I237500J0D01*
G01*
X8337500Y12775000D01*
G75*
G02*
X8575000Y12537500I0J-237500D01*
G01*
G37*
G36*
G01*
X10300000Y12537500D02*
X10300000Y12062500D01*
G75*
G02*
X10062500Y11825000I-237500J0D01*
G01*
X9462500Y11825000D01*
G75*
G02*
X9225000Y12062500I0J237500D01*
G01*
X9225000Y12537500D01*
G75*
G02*
X9462500Y12775000I237500J0D01*
G01*
X10062500Y12775000D01*
G75*
G02*
X10300000Y12537500I0J-237500D01*
G01*
G37*
%TD*%
%TO.C,C10*%
G36*
G01*
X14962500Y8675000D02*
X15437500Y8675000D01*
G75*
G02*
X15675000Y8437500I0J-237500D01*
G01*
X15675000Y7837500D01*
G75*
G02*
X15437500Y7600000I-237500J0D01*
G01*
X14962500Y7600000D01*
G75*
G02*
X14725000Y7837500I0J237500D01*
G01*
X14725000Y8437500D01*
G75*
G02*
X14962500Y8675000I237500J0D01*
G01*
G37*
G36*
G01*
X14962500Y10400000D02*
X15437500Y10400000D01*
G75*
G02*
X15675000Y10162500I0J-237500D01*
G01*
X15675000Y9562500D01*
G75*
G02*
X15437500Y9325000I-237500J0D01*
G01*
X14962500Y9325000D01*
G75*
G02*
X14725000Y9562500I0J237500D01*
G01*
X14725000Y10162500D01*
G75*
G02*
X14962500Y10400000I237500J0D01*
G01*
G37*
%TD*%
%TO.C,C9*%
G36*
G01*
X12725000Y13862500D02*
X12725000Y14337500D01*
G75*
G02*
X12962500Y14575000I237500J0D01*
G01*
X13562500Y14575000D01*
G75*
G02*
X13800000Y14337500I0J-237500D01*
G01*
X13800000Y13862500D01*
G75*
G02*
X13562500Y13625000I-237500J0D01*
G01*
X12962500Y13625000D01*
G75*
G02*
X12725000Y13862500I0J237500D01*
G01*
G37*
G36*
G01*
X11000000Y13862500D02*
X11000000Y14337500D01*
G75*
G02*
X11237500Y14575000I237500J0D01*
G01*
X11837500Y14575000D01*
G75*
G02*
X12075000Y14337500I0J-237500D01*
G01*
X12075000Y13862500D01*
G75*
G02*
X11837500Y13625000I-237500J0D01*
G01*
X11237500Y13625000D01*
G75*
G02*
X11000000Y13862500I0J237500D01*
G01*
G37*
%TD*%
%TO.C,C8*%
G36*
G01*
X15137500Y18525000D02*
X14662500Y18525000D01*
G75*
G02*
X14425000Y18762500I0J237500D01*
G01*
X14425000Y19362500D01*
G75*
G02*
X14662500Y19600000I237500J0D01*
G01*
X15137500Y19600000D01*
G75*
G02*
X15375000Y19362500I0J-237500D01*
G01*
X15375000Y18762500D01*
G75*
G02*
X15137500Y18525000I-237500J0D01*
G01*
G37*
G36*
G01*
X15137500Y16800000D02*
X14662500Y16800000D01*
G75*
G02*
X14425000Y17037500I0J237500D01*
G01*
X14425000Y17637500D01*
G75*
G02*
X14662500Y17875000I237500J0D01*
G01*
X15137500Y17875000D01*
G75*
G02*
X15375000Y17637500I0J-237500D01*
G01*
X15375000Y17037500D01*
G75*
G02*
X15137500Y16800000I-237500J0D01*
G01*
G37*
%TD*%
%TO.C,C7*%
G36*
G01*
X12950000Y11825000D02*
X12950000Y12775000D01*
G75*
G02*
X13200000Y13025000I250000J0D01*
G01*
X13875000Y13025000D01*
G75*
G02*
X14125000Y12775000I0J-250000D01*
G01*
X14125000Y11825000D01*
G75*
G02*
X13875000Y11575000I-250000J0D01*
G01*
X13200000Y11575000D01*
G75*
G02*
X12950000Y11825000I0J250000D01*
G01*
G37*
G36*
G01*
X10875000Y11825000D02*
X10875000Y12775000D01*
G75*
G02*
X11125000Y13025000I250000J0D01*
G01*
X11800000Y13025000D01*
G75*
G02*
X12050000Y12775000I0J-250000D01*
G01*
X12050000Y11825000D01*
G75*
G02*
X11800000Y11575000I-250000J0D01*
G01*
X11125000Y11575000D01*
G75*
G02*
X10875000Y11825000I0J250000D01*
G01*
G37*
%TD*%
%TO.C,C6*%
G36*
G01*
X9737500Y18525000D02*
X9262500Y18525000D01*
G75*
G02*
X9025000Y18762500I0J237500D01*
G01*
X9025000Y19362500D01*
G75*
G02*
X9262500Y19600000I237500J0D01*
G01*
X9737500Y19600000D01*
G75*
G02*
X9975000Y19362500I0J-237500D01*
G01*
X9975000Y18762500D01*
G75*
G02*
X9737500Y18525000I-237500J0D01*
G01*
G37*
G36*
G01*
X9737500Y16800000D02*
X9262500Y16800000D01*
G75*
G02*
X9025000Y17037500I0J237500D01*
G01*
X9025000Y17637500D01*
G75*
G02*
X9262500Y17875000I237500J0D01*
G01*
X9737500Y17875000D01*
G75*
G02*
X9975000Y17637500I0J-237500D01*
G01*
X9975000Y17037500D01*
G75*
G02*
X9737500Y16800000I-237500J0D01*
G01*
G37*
%TD*%
%TO.C,C5*%
G36*
G01*
X7325000Y16762500D02*
X7325000Y17237500D01*
G75*
G02*
X7562500Y17475000I237500J0D01*
G01*
X8162500Y17475000D01*
G75*
G02*
X8400000Y17237500I0J-237500D01*
G01*
X8400000Y16762500D01*
G75*
G02*
X8162500Y16525000I-237500J0D01*
G01*
X7562500Y16525000D01*
G75*
G02*
X7325000Y16762500I0J237500D01*
G01*
G37*
G36*
G01*
X5600000Y16762500D02*
X5600000Y17237500D01*
G75*
G02*
X5837500Y17475000I237500J0D01*
G01*
X6437500Y17475000D01*
G75*
G02*
X6675000Y17237500I0J-237500D01*
G01*
X6675000Y16762500D01*
G75*
G02*
X6437500Y16525000I-237500J0D01*
G01*
X5837500Y16525000D01*
G75*
G02*
X5600000Y16762500I0J237500D01*
G01*
G37*
%TD*%
%TO.C,C4*%
G36*
G01*
X5562500Y9312500D02*
X6037500Y9312500D01*
G75*
G02*
X6275000Y9075000I0J-237500D01*
G01*
X6275000Y8475000D01*
G75*
G02*
X6037500Y8237500I-237500J0D01*
G01*
X5562500Y8237500D01*
G75*
G02*
X5325000Y8475000I0J237500D01*
G01*
X5325000Y9075000D01*
G75*
G02*
X5562500Y9312500I237500J0D01*
G01*
G37*
G36*
G01*
X5562500Y11037500D02*
X6037500Y11037500D01*
G75*
G02*
X6275000Y10800000I0J-237500D01*
G01*
X6275000Y10200000D01*
G75*
G02*
X6037500Y9962500I-237500J0D01*
G01*
X5562500Y9962500D01*
G75*
G02*
X5325000Y10200000I0J237500D01*
G01*
X5325000Y10800000D01*
G75*
G02*
X5562500Y11037500I237500J0D01*
G01*
G37*
%TD*%
%TO.C,C3*%
G36*
G01*
X2975000Y17437500D02*
X2975000Y16962500D01*
G75*
G02*
X2737500Y16725000I-237500J0D01*
G01*
X2137500Y16725000D01*
G75*
G02*
X1900000Y16962500I0J237500D01*
G01*
X1900000Y17437500D01*
G75*
G02*
X2137500Y17675000I237500J0D01*
G01*
X2737500Y17675000D01*
G75*
G02*
X2975000Y17437500I0J-237500D01*
G01*
G37*
G36*
G01*
X4700000Y17437500D02*
X4700000Y16962500D01*
G75*
G02*
X4462500Y16725000I-237500J0D01*
G01*
X3862500Y16725000D01*
G75*
G02*
X3625000Y16962500I0J237500D01*
G01*
X3625000Y17437500D01*
G75*
G02*
X3862500Y17675000I237500J0D01*
G01*
X4462500Y17675000D01*
G75*
G02*
X4700000Y17437500I0J-237500D01*
G01*
G37*
%TD*%
%TO.C,C2*%
G36*
G01*
X3525000Y9087500D02*
X4475000Y9087500D01*
G75*
G02*
X4725000Y8837500I0J-250000D01*
G01*
X4725000Y8162500D01*
G75*
G02*
X4475000Y7912500I-250000J0D01*
G01*
X3525000Y7912500D01*
G75*
G02*
X3275000Y8162500I0J250000D01*
G01*
X3275000Y8837500D01*
G75*
G02*
X3525000Y9087500I250000J0D01*
G01*
G37*
G36*
G01*
X3525000Y11162500D02*
X4475000Y11162500D01*
G75*
G02*
X4725000Y10912500I0J-250000D01*
G01*
X4725000Y10237500D01*
G75*
G02*
X4475000Y9987500I-250000J0D01*
G01*
X3525000Y9987500D01*
G75*
G02*
X3275000Y10237500I0J250000D01*
G01*
X3275000Y10912500D01*
G75*
G02*
X3525000Y11162500I250000J0D01*
G01*
G37*
%TD*%
%TO.C,C1*%
G36*
G01*
X9375000Y15212500D02*
X9375000Y15687500D01*
G75*
G02*
X9612500Y15925000I237500J0D01*
G01*
X10212500Y15925000D01*
G75*
G02*
X10450000Y15687500I0J-237500D01*
G01*
X10450000Y15212500D01*
G75*
G02*
X10212500Y14975000I-237500J0D01*
G01*
X9612500Y14975000D01*
G75*
G02*
X9375000Y15212500I0J237500D01*
G01*
G37*
G36*
G01*
X7650000Y15212500D02*
X7650000Y15687500D01*
G75*
G02*
X7887500Y15925000I237500J0D01*
G01*
X8487500Y15925000D01*
G75*
G02*
X8725000Y15687500I0J-237500D01*
G01*
X8725000Y15212500D01*
G75*
G02*
X8487500Y14975000I-237500J0D01*
G01*
X7887500Y14975000D01*
G75*
G02*
X7650000Y15212500I0J237500D01*
G01*
G37*
%TD*%
M02*
