M48
; DRILL file {KiCad 5.99.0+really5.1.10+dfsg1-1} date Sun Nov 14 15:35:53 2021
; FORMAT={-:-/ absolute / inch / decimal}
; #@! TF.CreationDate,2021-11-14T15:35:53+01:00
; #@! TF.GenerationSoftware,Kicad,Pcbnew,5.99.0+really5.1.10+dfsg1-1
; #@! TF.FileFunction,Plated,1,2,PTH
FMAT,2
INCH
T1C0.0118
T2C0.0394
%
G90
G05
T1
X0.0453Y0.4803
X0.0886Y0.1496
X0.0906Y0.622
X0.0906Y0.0768
X0.0925Y0.7264
X0.0945Y0.3583
X0.1122Y0.4646
X0.1181Y0.75
X0.126Y0.5453
X0.126Y0.0354
X0.1476Y0.2638
X0.1516Y0.1988
X0.1713Y0.4902
X0.1949Y0.6004
X0.1971Y0.639
X0.2047Y0.7402
X0.2126Y0.185
X0.2539Y0.0276
X0.2618Y0.4626
X0.2756Y0.6988
X0.2756Y0.2087
X0.2776Y0.1654
X0.2835Y0.6102
X0.2894Y0.1043
X0.311Y0.7244
X0.315Y0.7598
X0.3898Y0.0945
X0.4173Y0.7402
X0.4213Y0.6693
X0.4409Y0.3425
X0.4409Y0.3031
X0.4567Y0.6063
X0.4685Y0.7598
X0.4685Y0.7165
X0.4921Y0.437
X0.5Y0.2638
X0.5059Y0.1378
X0.5079Y0.2165
X0.5138Y0.0984
X0.5394Y0.7362
X0.5394Y0.2598
X0.5512Y0.4055
X0.5512Y0.3701
X0.5512Y0.3346
X0.5728Y0.0945
X0.5748Y0.185
X0.5768Y0.5689
X0.5846Y0.4843
X0.5984Y0.2657
X0.6063Y0.5236
X0.6122Y0.5768
X0.6146Y0.6185
X0.6181Y0.7146
X0.6417Y0.7559
X0.6732Y0.2717
X0.6752Y0.1831
X0.6752Y0.0965
X0.6791Y0.687
X0.6791Y0.0472
X0.6909Y0.7264
X0.6929Y0.4921
X0.7028Y0.6594
X0.7067Y0.1417
T2
X0.0492Y0.4165
X0.0492Y0.3165
X0.0492Y0.2165
X0.3437Y0.0472
X0.4437Y0.0472
X0.7382Y0.4165
X0.7382Y0.3165
X0.7382Y0.2165
T0
M30
