%TF.GenerationSoftware,KiCad,Pcbnew,5.99.0+really5.1.10+dfsg1-1*%
%TF.CreationDate,2021-11-14T15:35:52+01:00*%
%TF.ProjectId,GBPOCKET_DCDC,4742504f-434b-4455-945f-444344432e6b,Rev1*%
%TF.SameCoordinates,PX7102aa0PY5f5e100*%
%TF.FileFunction,Soldermask,Bot*%
%TF.FilePolarity,Negative*%
%FSLAX46Y46*%
G04 Gerber Fmt 4.6, Leading zero omitted, Abs format (unit mm)*
G04 Created by KiCad (PCBNEW 5.99.0+really5.1.10+dfsg1-1) date 2021-11-14 15:35:52*
%MOMM*%
%LPD*%
G01*
G04 APERTURE LIST*
%ADD10O,1.700000X1.700000*%
%ADD11R,1.700000X1.700000*%
%ADD12R,1.400000X0.300000*%
%ADD13R,1.400000X3.800000*%
%ADD14R,1.000000X1.000000*%
G04 APERTURE END LIST*
D10*
%TO.C,J3*%
X8730000Y1200000D03*
D11*
X11270000Y1200000D03*
%TD*%
%TO.C,C13*%
G36*
G01*
X5775000Y6637500D02*
X5775000Y6162500D01*
G75*
G02*
X5537500Y5925000I-237500J0D01*
G01*
X4937500Y5925000D01*
G75*
G02*
X4700000Y6162500I0J237500D01*
G01*
X4700000Y6637500D01*
G75*
G02*
X4937500Y6875000I237500J0D01*
G01*
X5537500Y6875000D01*
G75*
G02*
X5775000Y6637500I0J-237500D01*
G01*
G37*
G36*
G01*
X7500000Y6637500D02*
X7500000Y6162500D01*
G75*
G02*
X7262500Y5925000I-237500J0D01*
G01*
X6662500Y5925000D01*
G75*
G02*
X6425000Y6162500I0J237500D01*
G01*
X6425000Y6637500D01*
G75*
G02*
X6662500Y6875000I237500J0D01*
G01*
X7262500Y6875000D01*
G75*
G02*
X7500000Y6637500I0J-237500D01*
G01*
G37*
%TD*%
D10*
%TO.C,J2*%
X1250000Y5500000D03*
X1250000Y8040000D03*
D11*
X1250000Y10580000D03*
%TD*%
D12*
%TO.C,U2*%
X13700000Y16000000D03*
X13700000Y16500000D03*
X13700000Y17000000D03*
X13700000Y17500000D03*
X13700000Y18000000D03*
X9300000Y18000000D03*
X9300000Y17500000D03*
X9300000Y17000000D03*
X9300000Y16500000D03*
X9300000Y16000000D03*
%TD*%
D13*
%TO.C,L1*%
X11400000Y5100000D03*
X8600000Y5100000D03*
%TD*%
D10*
%TO.C,J1*%
X18750000Y5500000D03*
X18750000Y8040000D03*
D11*
X18750000Y10580000D03*
%TD*%
D14*
%TO.C,D2*%
X6650000Y18800000D03*
X4150000Y18800000D03*
%TD*%
%TO.C,D1*%
X6200000Y15500000D03*
X3700000Y15500000D03*
%TD*%
M02*
